<svg id="Komponente_8_1" data-name="Komponente 8 – 1" xmlns="http://www.w3.org/2000/svg" xmlns:xlink="http://www.w3.org/1999/xlink" width="149.141" height="85.573" viewBox="0 0 149.141 85.573">
  <defs>
    <clipPath id="clip-path">
      <rect id="Rechteck_46" data-name="Rechteck 46" width="149.141" height="85.573" fill="#e4e4e4"/>
    </clipPath>
  </defs>
  <g id="Gruppe_93" data-name="Gruppe 93" clip-path="url(#clip-path)">
    <path id="Pfad_144" data-name="Pfad 144" d="M.877,44.071c.1-.424.191-.847.285-1.272a11.17,11.17,0,0,1,1.025-3.37,2.893,2.893,0,0,1,.245-.337l-.523-.265L78.713,0,64.369,21.635h84.771V56.022h-.614c-.606,3.175-2.5,6.576-5.343,7.887-1.752.807-5.025.573-7.777.346a77.984,77.984,0,0,1-13.079-.31c-1.246-.032-2.492-.077-3.737-.145a.427.427,0,0,1-.253-.1c-16.317-.61-32.646-.624-48.966-.135l6.6,9.95A.373.373,0,0,1,76.5,74c-.03.059-.065.118-.095.177l.958,1.445a.365.365,0,0,1,.389.533l-.016.03.973,1.469-1.156-.585a7.876,7.876,0,0,1-2.841,8.263.794.794,0,0,1-.766.2C57.427,79.209,40.833,72.853,25.2,64.5c-4.135-2.211-8.179-4.581-12.169-7.045C9.5,55.268,3.967,52.914,1.127,49.868c-1.66-1.781-1.26-3.787-.25-5.8m111.5,11.951A16.97,16.97,0,0,1,109.55,61.9c.873.023,1.745.054,2.618.08a34.51,34.51,0,0,1,2.982-5.958Zm.776,5.989c.645.019,1.288.036,1.932.058a.266.266,0,0,1-.1-.22,8.825,8.825,0,0,1,.992-2.659q.683-1.579,1.352-3.168H115.75v0a40.8,40.8,0,0,1-2.6,5.986m4.8-5.989c-.319,1.11-.661,2.206-1.072,3.287a8.008,8.008,0,0,1-1.325,2.775c.645.022,1.289.035,1.934.058a18.464,18.464,0,0,1,1.621-3.087c.573-1.026,1.171-2.032,1.779-3.033Zm3.475,0q-.762,1.744-1.59,3.458a26.449,26.449,0,0,1-1.337,2.706c.879.034,1.759.077,2.637.114.979-2.1,2.288-4.1,3.414-6.111.15-.269.547-.032.41.239-.977,1.93-1.868,4.018-2.975,5.908.941.041,1.883.078,2.825.122a20.3,20.3,0,0,1,1.6-3q.979-1.719,1.957-3.439Zm7.449,0q-.929,1.9-1.854,3.8a27.067,27.067,0,0,1-1.344,2.678c.488.023.976.039,1.464.064l.693.031a45.437,45.437,0,0,1,3.463-6.568Zm2.8,0a49.9,49.9,0,0,1-2.728,6.615q.677.026,1.358.042c.447-1.012,1.081-1.968,1.618-2.921.719-1.275,1.457-2.533,2.287-3.736Zm3.037,0c-.543,1.35-1.184,2.651-1.856,3.943-.464.891-.889,1.849-1.407,2.733q.963,0,1.917-.031a32.857,32.857,0,0,1,2.191-3.447c.689-1.061,1.36-2.133,2.04-3.2Zm3.237,0c-.493,1.119-1.026,2.213-1.623,3.3a24.927,24.927,0,0,1-1.98,3.3c.57-.036,1.137-.088,1.695-.158a3.31,3.31,0,0,1,.453-2.183c.146-.258.585-.085.487.205a3.239,3.239,0,0,0-.132.58c.822-1.722,1.73-3.4,2.711-5.042Zm2.4,0c-1.121,2.044-2.133,4.133-3.1,6.258.407-.073.806-.161,1.2-.258A13.836,13.836,0,0,1,140,58.386q.446-.858.95-1.679c.13-.211.338-.449.488-.685Zm1.85,0c-.458.943-1,1.856-1.464,2.8s-.806,1.982-1.294,2.921a11.794,11.794,0,0,0,7.145-5.717Zm-33.762,5.845a30.6,30.6,0,0,1,1.76-2.921c.569-.954,1.092-1.937,1.606-2.924h-2.688a31.505,31.505,0,0,1-3.036,5.8c.623.014,1.246.016,1.869.03l.489.015m-.012-5.845h-6.38c-.5,1.85-1.353,4.283-2.841,5.69,2.036.02,4.071.058,6.107.1,0-.031-.018-.058-.007-.091a26.051,26.051,0,0,1,3.121-5.7M98.1,61.693c.005-.022,0-.046.008-.068.453-.945,1.254-1.726,1.8-2.632a21.336,21.336,0,0,0,1.514-2.972H92.584A24.4,24.4,0,0,1,91.456,59.2a6.662,6.662,0,0,1-1.306,2.483c.746,0,1.491,0,2.237,0A10.05,10.05,0,0,1,93.549,59.4c.495-.942.976-1.884,1.388-2.866.132-.316.634-.205.533.146a21.74,21.74,0,0,1-1.064,3.01,9.182,9.182,0,0,1-1.08,2c1.592,0,3.186,0,4.778.009m-8.71-.016a.45.45,0,0,1-.043-.128c-.1-.98.61-1.871,1.048-2.714a26.107,26.107,0,0,1,1.669-2.813H87.053a27.449,27.449,0,0,1-1.252,3.2,10.4,10.4,0,0,1-1.223,2.49c.687-.007,1.372-.02,2.057-.024a.357.357,0,0,1-.026-.1c-.03-.869.833-1.649,1.275-2.363.56-.9,1.075-1.845,1.581-2.779a.277.277,0,0,1,.5.212,13.924,13.924,0,0,1-1.177,3.1,5.745,5.745,0,0,1-1.218,1.918c.607,0,1.212,0,1.819,0M78.5,56.022a17.849,17.849,0,0,1-1,3c-.331.9-.437,2.352-1.381,2.786a.4.4,0,0,1-.534-.139c-.524-.938.25-2.053.641-2.952a11.733,11.733,0,0,1,1.449-2.694H75.861c-.96,1.86-1.042,3.9-1.764,5.869,1.321-.031,2.641-.073,3.963-.1a8.833,8.833,0,0,1,1.192-2.553c.511-1.043,1.01-2.126,1.442-3.218Zm-6.277,0q-.373,1.64-.75,3.279a11.371,11.371,0,0,1-.689,2.671c.642-.018,1.284-.031,1.925-.047a24.719,24.719,0,0,0,1.13-4.068,6.719,6.719,0,0,1,.868-1.834Zm9.091,0a31.867,31.867,0,0,1-1.041,3.649,11.484,11.484,0,0,1-.856,2.1c1.345-.023,2.69-.032,4.035-.047a5.538,5.538,0,0,1,1.071-2.668,32.221,32.221,0,0,1,1.8-3.039ZM69.695,62a8.126,8.126,0,0,1,.75-3.249c.3-.931.65-1.831,1.022-2.728H69.726a22.432,22.432,0,0,1-1.517,5.08.577.577,0,0,1-.284.284l.428.646c.446-.014.893-.02,1.341-.032m-2.6-1.86a22.351,22.351,0,0,1,1.6-4.117H64.369Zm-7.265-6.551h86.872V24.069H59.834L71.6,6.323,7.3,38.828l64.3,32.5ZM42.083,70.8q1.2.545,2.41,1.081a1.54,1.54,0,0,1,.341-.439.568.568,0,0,1,.774.039c1.781-2.632,3.6-5.23,5.509-7.773L47.09,61.669a38.3,38.3,0,0,1-4.52,8.82.833.833,0,0,1-.487.308m11.084,4.64a.471.471,0,0,1,.355-.124c1.233-2.083,2.5-4.139,3.786-6.192.293-.472,1.066-1.915,1.773-1.121.088.1-.026.273-.15.193-.524-.334-2.3,3.751-2.513,4.189-.627,1.267-1.283,2.515-1.942,3.763.6.247,1.2.5,1.8.743a1.575,1.575,0,0,1,.545-1.475.4.4,0,0,1,.664.311c1.06-1.5,2.122-2.989,3.224-4.454.377-.5.912-1.565,1.614-1.9L54.674,65.5a28.707,28.707,0,0,1-3.809,9.044.771.771,0,0,1-.065.069q1.133.478,2.271.95a1.031,1.031,0,0,1,.1-.13m7.045,2.482a.472.472,0,0,1,.735.116A60.394,60.394,0,0,0,65.5,71.22c.132-.224.529-.077.435.184a28.425,28.425,0,0,1-4.313,7.617q.91.361,1.821.722a.811.811,0,0,1,.045-.155.381.381,0,0,1,.568-.178c.012-.016.014-.031.03-.047.1-.169.205-.341.3-.516.2-.35.377-.708.56-1.065.334-.657.647-1.321,1.026-1.953a7.169,7.169,0,0,1,2.6-2.788.163.163,0,0,1,.2.254c-1.746,1.906-2.414,4.236-3.637,6.45a3.867,3.867,0,0,1-.339.534c.558.219,1.112.443,1.671.662.014-.128.03-.261.055-.428a.341.341,0,0,1,.6-.1C68.647,78.3,70.287,76.226,72,74.26l-8.94-4.52a.2.2,0,0,1-.338-.065c.034.138-1.314,1.984-1.476,2.26-.362.614-.72,1.23-1.095,1.836-.772,1.252-1.564,2.491-2.348,3.736.7.283,1.4.553,2.106.834a1.631,1.631,0,0,1,.307-.422m-10.4-5.193a.452.452,0,0,1,.616.007c1.457-2.4,2.67-4.867,3.9-7.406L51.4,63.847c0,.008,0,.014,0,.022-1.575,3.009-3.245,5.953-4.973,8.874.977.427,1.959.839,2.938,1.258a1.169,1.169,0,0,1,.446-1.275M72.222,83.187c2.7.111,3.656-1.529,3.614-3.566l-.023.041a13.769,13.769,0,0,1-1.9,3.053.345.345,0,0,1-.573-.333,13.824,13.824,0,0,1,1.71-3.164l.6-1a10.3,10.3,0,0,0-.533-1.748q-1.2,2-2.571,3.891c-.611.843-1.49,2.541-2.78,1.84a.507.507,0,0,1-.251-.439c0-.07,0-.142,0-.212a.46.46,0,0,1,.85-.23c-.089-.17,2.613-3.359,2.947-3.84.435-.629.843-1.275,1.264-1.915l-1.937-.98c-1.515,2.353-3.167,4.665-4.9,6.861.061.023.12.047.181.072,1.188.464,3.029,1.615,4.291,1.667M35.337,67.622c1.975.969,3.964,1.9,5.963,2.822a1.508,1.508,0,0,1,.364-1.968.524.524,0,0,1,.519-.054c1.511-2.314,3-4.643,4.516-6.95l-3.447-1.742a39.945,39.945,0,0,1-4.451,8.16c-.373.565-1.421.4-1.369-.372q.03-.614.1-1.226c.03-.322.458-.576.71-.384a35.346,35.346,0,0,1,4.515-6.43l-6.826-3.452a61.561,61.561,0,0,1-2.491,5.863c-.55,1.176-.95,3.221-2.425,3.414a.668.668,0,0,1-.576-.331.774.774,0,0,1-.118-.766.512.512,0,0,1,.358-.36c.046-.009.093-.019.139-.03a.816.816,0,0,1,.288-.579q.3-.6.629-1.183c.37-.687.752-1.369,1.126-2.055a47.333,47.333,0,0,1,2.58-4.221l-2.833-1.433c-1.6,2.73-2.961,5.551-4.382,8.373a.715.715,0,0,1-1.295-.169,7.375,7.375,0,0,1-.115-1.087.424.424,0,0,1,.587-.378,25.458,25.458,0,0,1,4.871-6.908l-3.649-1.845a.287.287,0,0,1,.118.308,28.649,28.649,0,0,1-1.979,5.052c-.685,1.333-1.448,3.1-2.745,3.944,3.718,2.094,7.483,4.1,11.32,5.984m-19.3-10.651a.548.548,0,0,1,.012-.112,12.576,12.576,0,0,1,2.161-3.448c.788-1.111,1.581-2.184,2.455-3.23.331-.4.908.109.688.53-.65,1.237-1.364,2.406-2.11,3.589a11.879,11.879,0,0,1-2.223,3.124.7.7,0,0,1-.115.066q1.381.835,2.772,1.652c.007-.018.005-.034.012-.051a47.109,47.109,0,0,1,4.533-7.914c.193-.28.68-.119.574.242a28.878,28.878,0,0,1-3.941,8.355c-.014.019-.031.027-.045.043.761.443,1.533.87,2.3,1.306.418-1.469,1.784-2.749,2.59-4.05a37.677,37.677,0,0,0,2.456-4.678.256.256,0,0,1,.316-.138L17.689,46.8a42.8,42.8,0,0,1-3,7.645c-.457.83-1.967,1.235-1.937-.135a.562.562,0,0,1,.278-.485l.12-.066c.024-.014.046-.005.07-.015.643-1.064,1.114-2.271,1.658-3.376.656-1.337,1.375-2.632,2.136-3.908l-2.426-1.227a46.786,46.786,0,0,1-2.759,7.273,3.926,3.926,0,0,1-1.039,1.481c1.787,1.037,3.636,2,5.244,2.979M6.465,51.034a.487.487,0,0,1,.727-.366A72.671,72.671,0,0,0,10.544,43.6c.135-.319.57-.073.522.22A27.014,27.014,0,0,1,7.959,52.2q.58.412,1.195.8a.471.471,0,0,1,.014-.051l.122-.2a.507.507,0,0,1,.791-.1c-.2-.264,1.671-3.6,1.9-4.082a28.056,28.056,0,0,1,1.987-3.644L7.993,41.9c-.483,2.492-1.322,5.57-3.111,7.358a.752.752,0,0,1-.224.158c.427.408.912.822,1.422,1.289.122.112.26.215.385.324M3.8,48.446l0-.014c.5-1.162,1.345-2.2,1.937-3.325A21.441,21.441,0,0,0,7.194,41.5l-1.864-.943a18.444,18.444,0,0,0-2.01,3.878,4.288,4.288,0,0,0,.483,4.01" transform="translate(0 0.001)" fill="#e4e4e4"/>
    <path id="Pfad_145" data-name="Pfad 145" d="M32.79,46.752a.3.3,0,0,1-.493-.287,8.939,8.939,0,0,1,1.246-2.341q.756-1.263,1.51-2.526a.248.248,0,0,1,.427.25l-1.354,2.615a8.9,8.9,0,0,1-1.335,2.288" transform="translate(69.988 14.586)" fill="#e4e4e4"/>
    <path id="Pfad_146" data-name="Pfad 146" d="M38.954,44.094a11.552,11.552,0,0,0,1.152-2.463.2.2,0,0,1,.385.105c-.389,1.595-1.134,3.832-2.557,4.793-.276.188-.562-.169-.428-.428.374-.731,1.01-1.308,1.449-2.007" transform="translate(57.996 14.591)" fill="#e4e4e4"/>
    <path id="Pfad_147" data-name="Pfad 147" d="M50.031,46.329c-.47.883-1.845.958-1.827-.251a.542.542,0,0,1,.393-.518l.105-.019a.49.49,0,0,1,.273.038.372.372,0,0,1,.132-.373q.154-.314.305-.63l.534-1.1a6.9,6.9,0,0,1,1.222-1.964.173.173,0,0,1,.292.122,7.461,7.461,0,0,1-.6,2.417,16.951,16.951,0,0,1-.83,2.282" transform="translate(32.527 14.581)" fill="#e4e4e4"/>
    <path id="Pfad_148" data-name="Pfad 148" d="M81.267,50.337a.6.6,0,0,1,.553-.42l.054,0a.7.7,0,0,1,.273-.431q.3-.509.6-1.019c.4-.677.822-1.345,1.241-2.011a28.951,28.951,0,0,1,2.4-3.435c.1-.116.3.008.254.149a35.244,35.244,0,0,1-2.022,4.678c-.508,1.058-1.058,3.053-2.2,3.57a.772.772,0,0,1-.9-.116c-.042-.046-.084-.092-.127-.137a.684.684,0,0,1-.176-.666c.019-.053.035-.105.054-.158" transform="translate(-47.232 15.112)" fill="#e4e4e4"/>
  </g>
</svg>
