<svg xmlns="http://www.w3.org/2000/svg" xmlns:xlink="http://www.w3.org/1999/xlink" width="235.25" height="64.222" viewBox="0 0 235.25 64.222">
  <defs>
    <clipPath id="clip-path">
      <rect id="Rechteck_76" data-name="Rechteck 76" width="235.251" height="64.222" transform="translate(0 0)" fill="#e5e5e5"/>
    </clipPath>
  </defs>
  <g id="Gruppe_141" data-name="Gruppe 141" transform="translate(-834 -928)">
    <g id="Komponente_9_4" data-name="Komponente 9 – 4" transform="translate(834 928)">
      <g id="Gruppe_138" data-name="Gruppe 138" transform="translate(166.548 -2.001)">
        <g id="Gruppe_136" data-name="Gruppe 136" transform="translate(-166.548 2.001)" clip-path="url(#clip-path)">
          <path id="Pfad_2195" data-name="Pfad 2195" d="M231.021,37.684c-14.817-.782-29.7-.493-44.533-.542s-29.687-.077-44.532-.113l-88.612-.21q-24.992-.059-49.985-.208a1.325,1.325,0,0,0,0,2.649q44.531,0,89.065.1,44.3.091,88.61.182l24.994.029c8.331.008,16.668.034,24.992-.368a.758.758,0,0,0,0-1.516" transform="translate(1.325 23.322)" fill="#e5e5e5"/>
          <path id="Pfad_2196" data-name="Pfad 2196" d="M1.416,1.376A5.653,5.653,0,0,0,.944,2.684,12.861,12.861,0,0,0,.838,4.233C.777,5.189.717,6.141.684,7.1.62,9.042.592,10.984.573,12.928c-.039,3.854,0,7.707.02,11.559C.635,32.16.669,39.833.758,47.505c.049,4.33.118,8.661.177,12.991a1.643,1.643,0,0,0,1.622,1.622A1.65,1.65,0,0,0,4.179,60.5c-.013-7.707-.013-15.413-.087-23.12-.075-7.669-.052-15.349-.249-23.016-.054-2.149-.093-4.3-.2-6.445-.054-1.094-.111-2.182-.2-3.274-.044-.511-.069-1.023-.11-1.534a4.839,4.839,0,0,0-.542-1.732.8.8,0,0,0-1.375,0" transform="translate(0.354 0.627)" fill="#e5e5e5"/>
          <path id="Pfad_2197" data-name="Pfad 2197" d="M141.331,1.517a25.79,25.79,0,0,0-.557,5.71c-.059,1.938-.108,3.876-.159,5.815-.1,3.909-.087,7.82,0,11.729q.248,11.629.548,23.257.083,3.266.165,6.528c.026,1.089.059,2.177.092,3.264.018.545.034,1.089.052,1.632.01.318.011.634.052.948a3.385,3.385,0,0,0,.457,1.13,1.5,1.5,0,0,0,2.57,0A3.628,3.628,0,0,0,145,59.759l-.034-1.531c-.02-.951-.039-1.9-.065-2.855q-.081-2.907-.164-5.815-.162-5.866-.327-11.731c-.108-3.876-.234-7.751-.357-11.628s-.244-7.761-.552-11.629c-.172-2.176-.339-4.353-.521-6.528a29.768,29.768,0,0,0-.923-6.525.377.377,0,0,0-.722,0" transform="translate(89.529 0.795)" fill="#e5e5e5"/>
          <path id="Pfad_2198" data-name="Pfad 2198" d="M229.287,1.346C225.515,1.158,221.776.862,218,.78,214.385.7,210.774.66,207.159.629c-7.375-.061-14.751-.01-22.126.015Q162.907.715,140.78.863c-29.353.162-58.7.275-88.057.529-8.282.07-16.557.321-24.837.471S11.332,2.05,3.05,2.129a1.153,1.153,0,0,0,0,2.3C10.425,4.425,17.8,4.227,25.177,4.4s14.758.264,22.128.249q22.127-.047,44.253-.169c29.352-.151,58.7-.246,88.057-.465,8.277-.061,16.558-.054,24.835-.211,4.065-.077,8.129-.142,12.192-.273,2.1-.067,4.227-.046,6.322-.211s4.209-.391,6.322-.519a.73.73,0,0,0,0-1.459" transform="translate(1.234 0.382)" fill="#e5e5e5"/>
          <path id="Pfad_2199" data-name="Pfad 2199" d="M137.749,3.869c-.1,1.629-.008,3.264.028,4.895.034,1.565.09,3.128.141,4.692.1,3.2.231,6.391.35,9.586q.359,9.586.715,19.171.1,2.652.2,5.3.049,1.326.1,2.65a22.61,22.61,0,0,0,.165,2.767.434.434,0,0,0,.786.1,3.332,3.332,0,0,0,.357-1.08.257.257,0,0,0-.426-.249,3.3,3.3,0,0,0-.674.894c.267.074.535.146.8.218a20.023,20.023,0,0,0-.046-2.447q-.047-1.223-.095-2.447-.091-2.345-.183-4.692l-.377-9.586c-.25-6.389-.476-12.782-.756-19.171-.077-1.768-.142-3.536-.239-5.3-.1-1.789-.136-3.588-.38-5.366-.038-.278-.453-.188-.468.064" transform="translate(87.72 2.314)" fill="#e5e5e5"/>
          <path id="Pfad_2200" data-name="Pfad 2200" d="M135.971,10.489c-.052,9.938.275,19.885.493,29.82q.093,4.223.187,8.447a.419.419,0,0,0,.838,0q-.371-14.91-.778-29.82c-.08-2.817-.187-5.631-.334-8.447a.2.2,0,0,0-.406,0" transform="translate(86.612 6.556)" fill="#e5e5e5"/>
          <path id="Pfad_2201" data-name="Pfad 2201" d="M4.012,3.588c-.054,2.374.116,4.76.216,7.132s.2,4.756.311,7.132l.653,14.267c.124,2.716.214,5.438.386,8.152.036.568.913.58.894,0C6.314,35.514,6,30.759,5.759,26S5.282,16.494,5.02,11.74c-.151-2.713-.21-5.455-.53-8.152a.239.239,0,0,0-.478,0" transform="translate(2.549 2.138)" fill="#e5e5e5"/>
          <path id="Pfad_2202" data-name="Pfad 2202" d="M5.8,5.773c.064,2.514.326,5.032.54,7.538s.421,5.024.637,7.537q.648,7.538,1.3,15.075.184,2.139.377,4.279a36.707,36.707,0,0,0,.424,4.176c.088.435.743.319.753-.1a34.509,34.509,0,0,0-.3-3.872q-.167-1.834-.334-3.667Q8.85,32.97,8.5,29.2q-.7-7.538-1.413-15.075c-.264-2.8-.465-5.623-.894-8.4C6.157,5.5,5.8,5.554,5.8,5.773" transform="translate(3.697 3.554)" fill="#e5e5e5"/>
          <path id="Pfad_2203" data-name="Pfad 2203" d="M70.3,35.828c-7.668-.229-15.336-.483-23-.652q-11.453-.253-22.9-.483l-6.442-.133c-2.179-.044-4.366-.147-6.545-.095a.4.4,0,0,0,0,.805c3.8.229,7.642.162,11.453.223l11.554.185q11.45.184,22.9.291c4.328.047,8.657.059,12.985.088a.115.115,0,0,0,0-.231" transform="translate(7.016 21.945)" fill="#e5e5e5"/>
          <path id="Pfad_2204" data-name="Pfad 2204" d="M68.4,35.472c-2.3-.219-4.631-.257-6.938-.344-2.279-.085-4.557-.159-6.835-.259-4.589-.2-9.182-.336-13.772-.5q-1.888-.069-3.775-.131a12.517,12.517,0,0,0-3.816.072.157.157,0,0,0,0,.3,10.739,10.739,0,0,0,3.305.306q1.734.056,3.469.11,3.418.108,6.835.206,6.888.209,13.774.4c2.575.074,5.176.214,7.753.138a.151.151,0,0,0,0-.3" transform="translate(21.121 21.736)" fill="#e5e5e5"/>
          <path id="Pfad_2205" data-name="Pfad 2205" d="M149.439,3.99c-4.079-.211-8.183-.085-12.268-.157-4.052-.07-8.111-.049-12.165-.059q-12.165-.025-24.329-.031c-4.6,0-9.21-.126-13.8.09a.332.332,0,0,0,0,.663c4.081.185,8.182.075,12.266.069q6.082-.012,12.165-.033,12.167-.032,24.331-.115c2.282-.013,4.566-.049,6.849-.069,2.311-.018,4.641,0,6.951-.123a.118.118,0,0,0,0-.236" transform="translate(55.137 2.36)" fill="#e5e5e5"/>
          <path id="Pfad_2206" data-name="Pfad 2206" d="M106.439,5.741a19.858,19.858,0,0,0-2.459-.095c-.881-.021-1.763-.051-2.644-.065-1.765-.031-3.528-.074-5.291-.1Q90.7,5.4,85.364,5.331c-.982-.013-1.966-.021-2.95-.031a18.935,18.935,0,0,0-2.907.08.224.224,0,0,0,0,.429,33.3,33.3,0,0,0,5.145.136l5.291.013c3.561.01,7.121,0,10.682-.011.984,0,1.966-.016,2.95-.025a22.9,22.9,0,0,0,2.865-.061.063.063,0,0,0,0-.121" transform="translate(50.546 3.365)" fill="#e5e5e5"/>
        </g>
      </g>
      <g id="Gruppe_140" data-name="Gruppe 140" transform="translate(0 0)">
        <text id="spiel_erstellen" data-name="spiel erstellen" transform="translate(40 15)" fill="#e5e5e5" font-size="25" font-family="SegoeUI, Segoe UI"><tspan x="0" y="27">spiel erstellen</tspan></text>
      </g>
    </g>
  </g>
</svg>
