<svg xmlns="http://www.w3.org/2000/svg" width="169.517" height="204.009" viewBox="0 0 169.517 204.009">
  <g id="A" transform="translate(-17.317 -46.11)">
    <path id="Pfad_1" data-name="Pfad 1" d="M88.954,73.408c.911,1.579,23.63-14.767,24.117-13.924.277.481-20.088,12.488-19.285,13.879.095.164,16.86-11.118,17.459-10.08.926,1.6-16,17-15.907,17.152.5.861,18.815-11.249,18.982-10.959.389.672-21.819,15.909-21.819,15.909.846,1.465,22.158-13.474,22.453-12.963.777,1.346-17.005,14.836-16.9,15.021.377.653,19.441-11.451,19.539-11.281,0,0-22.689,20.508-22.275,21.225.455.789,23.016-14.433,23.511-13.574.162.28-18.549,17.414-17.667,18.943,1.039,1.8,22.137-13.48,22.44-12.956.1.171-22.6,17.019-22.555,17.089.226.392,22.572-13.581,22.81-13.169.75,1.3-24.17,13.94-23.075,15.837.628,1.087,22.874-13.93,23.188-13.388.341.592-19.662,14.827-19.649,14.85.408.707,18.515-12.7,19.385-11.192.638,1.106-19.5,17.274-18.993,18.157.813,1.409,18.857-11.3,19.037-10.991.885,1.533-15.888,15-15.535,15.609.75,1.3,17.368-11.21,17.881-10.323.443.768-21.168,13.728-20.3,15.223.027.047,22.3-14.431,22.976-13.265,0,0-20.151,17.759-19.453,18.968.352.608,22.936-14.525,23.492-13.563.877,1.52-22.405,16.873-21.609,18.252l23.589-13.62c.292.506-24.161,14.678-23.184,16.369.81,1.4,22.329-15.156,23.309-13.457.5.859-22.773,17.548-22.554,17.927,0,0,24.241-14.278,24.363-14.066.909,1.573-18.585,16.546-18.317,17.01.665,1.152,17.686-10.7,17.9-10.333.886,1.536-18.953,14.429-17.986,16.1.509.881,20.679-12.883,21.088-12.175.84,1.456-23.3,17.68-22.817,18.514.047.083,23.6-14.833,24.119-13.925.831,1.439-23.447,14.944-23.208,15.358.368.637,22.11-14.838,23.007-13.283.2.348-21.516,15.052-21.468,15.135.188.326,22.231-15.157,23.237-13.415.364.63-20.91,15.533-20.91,15.533.919,1.591,21.672-14.318,22.454-12.963" transform="translate(10.21 -1.1)" fill="none" stroke="#f7f7f7" stroke-linecap="round" stroke-linejoin="round" stroke-width="1.568"/>
    <path id="Pfad_2" data-name="Pfad 2" d="M56.69,186.024c.045.077,32.732-21.537,33.875-19.558.8,1.388-22.237,18.583-21.066,20.611.69,1.2,36.365-21.05,36.389-21.009,1.047,1.815-22.576,19.536-22.162,20.254,1.126,1.95,32.29-22.216,33.838-19.536.133.23-32.442,19.105-31.789,20.235,1.221,2.115,54.658-36.155,56.649-32.706,1.725,2.987-45.049,32.407-44.576,33.226.606,1.049,45.556-27.73,46.174-26.659,1.838,3.183-39.028,25.528-38.311,26.771.783,1.355,39.377-23.962,39.908-23.041.616,1.067-24.393,18.651-23.082,20.92.956,1.657,23.432-15.682,24.365-14.067.327.568-22.2,14.112-21.723,14.936.883,1.529,25.542-14.959,25.634-14.8.518.9-24.084,19.119-22.79,21.361.777,1.345,20.191-13.425,20.957-12.1.487.844-16.619,16.071-16.295,16.632.427.739,17.5-12.627,18.59-10.732.171.3-16.365,16.506-16.159,16.862.346.6,17.271-12.477,18.356-10.6.211.365-20.946,18.707-20.8,18.96.292.507,23.706-13.686,23.706-13.686,1.031,1.785-23.084,18.323-21.843,20.473l28.309-16.345c1.078,1.867-26.687,16.319-25.87,17.735.136.236,23.836-15.656,24.656-14.236,1.038,1.8-22.228,16.823-21.431,18.2.559.969,19.257-13.378,20.235-11.683.2.343-21.293,16.59-20.158,18.555.2.338,24.249-15.1,24.724-14.275.75,1.3-23.042,20.625-22.313,21.889.507.878,21.331-13.883,22.01-12.707.1.173-22.333,16.359-22.1,16.757.629,1.089,24.478-14.179,24.5-14.144.383.662-20.389,19.121-20.354,19.182.942,1.631,24.537-15.511,25.12-14.5.2.352-18.425,15.559-18.242,15.876.314.544,15.673-10.99,16.514-9.535.283.492-8.58,7.65-8.114,8.456.3.526,9.667-6.542,10.083-5.822.139.241-1.958,8.234-1.958,8.234.029.05,4.432-2.808,4.54-2.621" transform="translate(10.21 -1.1)" fill="none" stroke="#f7f7f7" stroke-linecap="round" stroke-linejoin="round" stroke-width="1.568"/>
    <path id="Pfad_3" data-name="Pfad 3" d="M73.493,51.213c.008.015,5.592-3.321,5.632-3.252,0,0-5.565,10.1-5.557,10.117.555.961,15.7-9.922,16.073-9.28.878,1.52-22.3,18.227-21.6,19.424C69.282,70.38,97.5,49.164,98.39,50.7c1.576,2.73-33.922,23.86-32.442,26.425.116.2,41.216-24.288,41.429-23.919,1.416,2.453-43.825,26.322-43.2,27.412.387.67,46.13-28.917,47.119-27.2,2.075,3.594-47.2,33.132-46.207,34.859.543.942,23.373-13.783,23.5-13.567,1.195,2.07-28.081,22.24-27.9,22.554.628,1.087,27.273-15.909,27.343-15.787.9,1.557-33.947,24.2-32.49,26.722.35.607,30.446-20.878,31.875-18.4.277.479-34.308,26.457-34.308,26.457,1.153,2,29.718-17.172,29.724-17.161.982,1.7-29.573,18.567-28.617,20.223.55.952,28.924-16.9,29.013-16.751,1.609,2.787-35.545,28.4-35.545,28.4,1.346,2.332,28.047-18.589,29.085-16.791.808,1.4-33.35,22.813-31.746,25.592,1.295,2.244,29.367-18.651,30.1-17.379.237.409-29.676,21.783-29.533,22.031,1.474,2.552,28.221-17.606,28.789-16.622,1,1.741-35.539,23.027-34.415,24.973,1.446,2.506,30.469-20.795,31.856-18.392,0,0-32.58,22.082-31.45,24.039,0,0,27.282-18.263,28.37-16.379.169.293-33.367,22.556-33.231,22.792.957,1.657,30.744-21.111,32.2-18.59,1.321,2.288-36.014,22.786-34.337,25.69,1.384,2.4,31.115-18.066,31.159-17.99.742,1.284-36.4,29.18-36.123,29.654.729,1.262,30.436-20.666,31.776-18.346,1.361,2.357-32.519,20.017-32.234,20.51.2.346,35.465-22.8,36.47-21.056,1.41,2.441-34.172,25.077-34.172,25.077,1.389,2.407,41.921-25.757,42.594-24.591,1.061,1.839-48.517,30.174-47.037,32.738,1.679,2.907,52.545-33.3,53.83-31.078,1.63,2.822-56.656,30.635-53.929,35.358.907,1.572,58.87-39.771,61.374-35.434.207.358-64.439,39.77-64.413,39.814,1.416,2.453,31.973-19.891,32.593-18.817,1.616,2.8-34.249,23.24-33.51,24.521,1.354,2.344,31.225-19.858,32.017-18.485.887,1.536-37.285,23.795-35.876,26.235.062.108,29.8-18.9,30.533-17.628.61,1.056-36.626,24.155-34.764,27.379.108.188,35.846-20.754,35.871-20.71.216.372-38.139,25-37.977,25.283,1.008,1.744,35.608-21.82,36.154-20.874l-36.177,26.1c.308.534,35.063-20.244,35.063-20.244,1.7,2.949-36.714,24.935-35.614,26.84.629,1.089,27.183-18.132,28.238-16.3,1.329,2.3-27.4,17.508-26.605,18.878,1.087,1.884,29.453-17.648,29.732-17.165.688,1.192-15.479,16.542-15.291,16.868.091.157,7.894-5.012,8.091-4.671.012.021-1.045,5.247-1.034,5.266.042.073.969-.568.973-.561" transform="translate(10.21 -1.1)" fill="none" stroke="#f7f7f7" stroke-linecap="round" stroke-linejoin="round" stroke-width="1.568"/>
    <path id="Pfad_69" data-name="Pfad 69" d="M61.01,166.038l19.581-57.853c3.857-12.163,7.12-24.327,10.087-36.195h.593c2.967,11.571,5.934,23.438,10.384,36.492l19.581,57.556Zm65.566,20.174,21.361,62.9h27.591L107.292,49.146H76.141L8.2,249.108H34.9l20.767-62.9Z" transform="translate(10.21 -1.1)" fill="none" stroke="#f9f9f9" stroke-width="1.568"/>
  </g>
</svg>
