<svg xmlns="http://www.w3.org/2000/svg" width="130.604" height="207.415" viewBox="0 0 130.604 207.415">
  <g id="B" transform="translate(-204.483 -85.732)">
    <path id="Pfad_4" data-name="Pfad 4" d="M294.322,140.048c.51.883,11.642-7.217,11.857-6.845" transform="translate(1.606 40)" fill="none" stroke="#f7f7f7" stroke-linecap="round" stroke-linejoin="round" stroke-width="1.568"/>
    <path id="Pfad_5" data-name="Pfad 5" d="M231.234,70.339c1.639,2.84,39.088-24.59,39.964-23.073.415.719-30.73,17.712-29.529,19.793.159.274,29.927-19.595,30.93-17.857.942,1.631-16.358,17.2-16.267,17.359.708,1.226,27.4-16.372,27.642-15.959.453.785-25.73,18.168-25.73,18.168,1.129,1.955,28.965-17.632,29.359-16.951.789,1.369-17.336,15.023-17.228,15.211.459.8,23.982-14.122,24.1-13.915,0,0-18.992,18.5-18.633,19.123.5.858,24.857-15.6,25.4-14.663.134.233-14.342,15.334-13.61,16.6,1.056,1.829,22.494-13.7,22.8-13.165.092.16-21.03,16.12-20.992,16.187.228.4,22.766-13.7,23.006-13.283.727,1.26-23.383,13.564-22.322,15.4.633,1.1,23.058-14.043,23.374-13.5.328.569-18.829,14.347-18.816,14.369.414.717,18.789-12.884,19.671-11.357.616,1.067-18.658,16.827-18.166,17.679.844,1.462,19.654-11.778,19.841-11.455.925,1.6-16.8,15.486-16.43,16.126.807,1.4,18.968-12.224,19.52-11.269.485.84-23.356,14.8-22.41,16.439.03.051,24.446-15.828,25.188-14.542,0,0-24.5,19.985-23.676,21.406.412.714,26.582-16.854,27.234-15.724,1.111,1.923-29.193,20.305-28.186,22.049L326.443,92.7c.385.666-32.326,18.674-31.038,20.9,1.078,1.867,29.124-19.827,30.428-17.568.77,1.334-36.78,25.356-36.44,25.945,0,0,36.478-21.505,36.67-21.172" transform="translate(1.606 40)" fill="none" stroke="#f7f7f7" stroke-linecap="round" stroke-linejoin="round" stroke-width="1.568"/>
    <path id="Pfad_6" data-name="Pfad 6" d="M233.351,153.08c.046.08,33.847-22.268,35.028-20.223.836,1.448-23.42,19.148-22.2,21.264,1.5,2.592,77.007-44.579,77.059-44.49,2.687,4.654-64.283,42.118-63.22,43.959,1.891,3.275,54.912-37.7,57.51-33.2.231.4-57.013,32.18-55.879,34.144,1.174,2.034,52.59-34.784,54.5-31.468,1.751,3.034-45.8,32.821-45.314,33.653.288.5,22.286-13.546,22.58-13.037.894,1.549-17.721,14.077-17.372,14.681.428.742,22.3-13.548,22.6-13.045.358.621-12.1,12.82-11.34,14.141.719,1.244,16.876-11.359,17.576-10.147.26.45-17.353,11.541-16.976,12.194.757,1.311,22.163-12.977,22.242-12.841.4.691-17.316,15.9-16.32,17.626.691,1.2,17.747-11.82,18.428-10.64.379.656-11.806,13.461-11.555,13.9.388.672,15.509-11.25,16.5-9.527.145.251-13.106,14.7-12.932,15,.328.567,16.092-11.661,17.118-9.884.2.348-19.679,17.993-19.54,18.234.291.5,23.588-13.618,23.588-13.618,1.072,1.857-24.193,18.849-22.9,21.084L332.372,173.6c1.167,2.021-29.006,17.5-28.121,19.034.149.259,25.958-17.061,26.856-15.505,1.218,2.108-26.641,19.051-25.706,20.67.652,1.129,22.9-15.852,24.036-13.877.262.454-29.449,20.455-27.949,23.053.251.435,30.661-19.11,31.271-18.054,1.262,2.186-42.912,29.9-41.685,32.03.874,1.514,37.515-24.365,38.686-22.336" transform="translate(1.606 40)" fill="none" stroke="#f7f7f7" stroke-linecap="round" stroke-linejoin="round" stroke-width="1.568"/>
    <path id="Pfad_7" data-name="Pfad 7" d="M203.943,53.761c.01.018,5.816-3.473,5.866-3.387,0,0-2.877,8.556-2.871,8.566.6,1.042,17.007-10.746,17.408-10.05.823,1.424-20.65,17.375-20,18.5,1.258,2.179,29.757-19.245,30.651-17.7,1.45,2.51-30.848,22.36-29.486,24.719.126.219,44.935-26.479,45.167-26.078,1.5,2.6-46.557,27.811-45.89,28.967.443.768,52.246-32.777,53.378-30.817,2.19,3.793-50.061,34.653-49.008,36.475.5.871,21.294-12.561,21.409-12.36,1.013,1.753-23.24,19.509-23.086,19.774.565.979,24.414-14.242,24.478-14.132.747,1.3-27.472,21.025-26.26,23.124.307.531,26.946-18.444,28.2-16.279.23.4-27.818,22.711-27.818,22.711.991,1.716,25.508-14.739,25.513-14.731.8,1.378-23.617,15.547-22.842,16.889.469.812,24.5-14.32,24.576-14.189,1.3,2.246-27.778,23.915-27.778,23.915,1.141,1.976,23.577-15.644,24.457-14.121.634,1.1-25.308,18.966-24.048,21.149,1.1,1.9,24.828-15.772,25.45-14.694.187.323-22.891,17.934-22.778,18.13,1.248,2.161,23.64-14.759,24.121-13.926.821,1.42-28.506,19.444-27.59,21.032,1.224,2.12,26-17.72,27.172-15.687,0,0-25.175,18.347-24.279,19.9,0,0,22.745-15.256,23.665-13.663.139.241-27.114,19-27,19.2.809,1.4,26.253-18,27.483-15.867,1.067,1.848-28.5,19.189-27.143,21.535,1.267,2.193,28.521-16.559,28.561-16.489.628,1.087-30.037,25.605-29.805,26.006,1.03,1.784,42.487-28.9,44.38-25.622,1.846,3.2-44.422,26.654-44.036,27.323.293.506,49.675-32.075,51.145-29.528,1.884,3.262-46.586,32.244-46.586,32.244,1.807,3.13,54.72-33.614,55.6-32.1,1.289,2.232-59.475,35.771-57.678,38.883.779,1.35,23.609-15.009,24.206-13.975.716,1.24-23.72,15.148-22.521,17.224.362.627,21.648-14.8,22.646-13.074.082.14-24.585,16.8-24.575,16.814,1.125,1.949,25.466-15.841,25.959-14.988,1.223,2.119-25.248,18.459-24.689,19.428,1.074,1.859,24.677-15.7,25.3-14.61.681,1.178-27.91,19.143-26.83,21.013.049.086,23.156-14.714,23.738-13.705.455.787-26.268,19.269-24.88,21.673.085.148,28.946-16.758,28.966-16.724.17.3-29.781,20.255-29.652,20.477.792,1.373,28.767-17.6,29.2-16.857l-27.017,20.814c.242.419,28.029-16.182,28.029-16.182,1.28,2.216-26.753,19.813-25.926,21.245.492.853,20.282-13.618,21.109-12.187,1.142,1.978-23.3,15.4-22.621,16.578.989,1.714,26.927-16.132,27.18-15.693,1.077,1.864-27.033,22.968-26.738,23.478.211.367,22.356-13.97,22.816-13.172.065.112-22.989,17.941-22.929,18.044,1.11,1.924,22.5-13.245,22.609-13.054.35.606-26.306,21.882-26.235,22,.853,1.478,28.537-16.779,28.668-16.552.537.93-26.555,22.061-26.4,22.332.558.966,26.178-15.577,26.379-15.23.568.983-26.109,17.058-25.292,18.473,1.224,2.121,26.493-15.761,26.7-15.412,1.033,1.789-29.462,17.436-28.082,19.827.77,1.333,31.842-20.715,32.852-18.966.591,1.024-24.734,17.4-24.034,18.617.083.143,33.219-19.817,33.5-19.338,0,0-27.1,20.239-26.943,20.5.424.733,32.773-18.921,32.773-18.921.942,1.632-19.1,18.479-19.1,18.479.6,1.044,35.667-21.92,36.242-20.924.55.953-31.961,20.222-30.956,21.963,2.155,3.734,45.044-29.221,46.436-26.81,0,0-43.93,27.372-43.353,28.373.155.268,86.117-52.883,87.487-50.511.314.544-75.773,47.336-74.547,49.459.21.363,71.948-49.018,75.187-43.409,2.812,4.871-61.559,35.761-58.965,40.254,1.9,3.286,53.931-31.679,54.166-31.272,1.364,2.363-34.377,25.718-33.455,27.315.143.248,25.092-15.706,25.62-14.791.044.076-18.933,11.494-18.362,12.483.071.123,9.451-5.91,9.647-5.57" transform="translate(1.606 40)" fill="none" stroke="#f7f7f7" stroke-linecap="round" stroke-linejoin="round" stroke-width="1.568"/>
    <path id="Pfad_70" data-name="Pfad 70" d="M232.193,153.281h21.361c28.184,0,51.622,11.274,51.622,38.568,0,29.074-24.624,38.864-51.325,38.864-9.2,0-16.614-.3-21.658-1.186Zm0-83.96c4.154-.89,10.978-1.781,22.844-1.781,26.108,0,43.909,9.2,43.909,32.635,0,19.284-16.021,33.525-43.315,33.525H232.193ZM206.382,248.514a301.678,301.678,0,0,0,40.052,2.374c32.635,0,55.182-5.934,69.126-18.691a53.9,53.9,0,0,0,16.91-40.051c0-29.668-22.25-45.392-41.238-50.139v-.594C312.3,133.7,325.053,116.789,325.053,97.5c0-15.724-6.23-27.591-16.613-35.3-12.461-10.088-29.075-14.538-54.886-14.538-18.1,0-35.9,1.78-47.172,4.154Z" transform="translate(1.606 40)" fill="none" stroke="#f9f9f9" stroke-width="1.568"/>
  </g>
</svg>
