<svg xmlns="http://www.w3.org/2000/svg" width="155.217" height="210.228" viewBox="0 0 155.217 210.228">
  <g id="C" transform="translate(-355.167 -44.147)">
    <path id="Pfad_8" data-name="Pfad 8" d="M426.763,74.365c.061.108,46-30.24,47.6-27.481.872,1.512-24.677,19.751-23.4,21.96.684,1.182,35.972-20.822,35.994-20.781,1.009,1.745-21.543,18.976-21.143,19.666.975,1.69,27.842-19.171,29.182-16.848.116.2-27.947,16.713-27.382,17.691.642,1.112,29.15-19.249,30.2-17.435.866,1.5-20.49,18.772-20.251,19.183.355.617,27.282-16.592,27.647-15.962,1.1,1.9-22.275,16.525-21.849,17.265.45.778,23.332-14.176,23.638-13.647.355.615-11.931,12.739-11.176,14.047.366.636,7.244-5.009,7.6-4.389.112.194-6.736,5.906-6.572,6.188.263.455,8.925-5.216,8.952-5.169.13.228-4.081,6.4-3.754,6.965.021.034.574-.377.594-.343" fill="none" stroke="#f7f7f7" stroke-linecap="round" stroke-linejoin="round" stroke-width="1.568"/>
    <path id="Pfad_9" data-name="Pfad 9" d="M395.56,66.044c.128.221,18.912-12.329,19.523-11.271,0,0-35.56,27.369-35.53,27.421,2.094,3.628,58.785-37.173,60.185-34.748,2.574,4.458-72.662,44.216-70.633,47.731,3.342,5.788,79.967-51.658,82.344-47.542,3.92,6.791-90.29,51.319-86.607,57.7.284.492,101.148-59.6,101.67-58.7,3.35,5.8-105.209,59.777-103.72,62.355.957,1.657,108.427-68.248,110.872-64.012,4.7,8.141-112.105,67.688-109.846,71.6.757,1.311,34.224-20.161,34.4-19.859,1.575,2.727-38.11,27.9-37.872,28.31.754,1.306,32.994-19.244,33.078-19.1.992,1.718-37.919,26.142-36.311,28.928.374.646,32.3-22.17,33.828-19.531.275.478-34.146,26.364-34.146,26.364,1.146,1.985,29.537-17.067,29.543-17.057.932,1.615-28,17.768-27.089,19.341.529.917,27.831-16.266,27.917-16.118,1.434,2.484-31.213,25.9-31.213,25.9,1.236,2.142,25.662-17.018,26.615-15.366.677,1.172-27.267,19.9-25.923,22.231,1.153,2,26.106-16.583,26.76-15.45.193.335-23.808,18.455-23.691,18.657,1.286,2.229,24.426-15.247,24.922-14.388.826,1.431-28.74,19.563-27.816,21.162,1.239,2.146,26.3-17.926,27.485-15.868,0,0-24.6,18.056-23.72,19.577,0,0,22.547-15.125,23.46-13.545.134.234-26.259,18.516-26.15,18.7.793,1.373,25.779-17.67,26.985-15.58,1.006,1.743-26.686,18.323-25.409,20.535,1.127,1.95,25.442-14.771,25.478-14.709.531.92-24.633,22.567-24.437,22.907.578,1,24.411-16.549,25.474-14.708,1.046,1.812-24.788,15.705-24.569,16.084.152.263,28.074-17.971,28.837-16.649.968,1.676-22.567,18.377-22.567,18.377.765,1.325,22.769-14,23.14-13.359.555.962-24,17.647-23.223,18.989.715,1.239,21.537-13.7,22.085-12.75.607,1.051-19.753,13.28-18.737,15.04.33.571,19.444-13.326,20.353-11.751.071.122-21.2,14.843-21.187,14.858,1.022,1.769,23.131-14.387,23.578-13.613,1.015,1.758-20.465,15.917-20,16.722.968,1.677,22.221-14.139,22.788-13.157s-22.525,16.466-21.632,18.012c.044.076,20.612-13.11,21.135-12.2.354.612-19.45,16.045-18.37,17.914.076.133,26.33-15.243,26.348-15.212.145.252-25.2,17.655-25.093,17.845.713,1.234,26.221-16.032,26.607-15.362l-21.229,17.472c.219.38,25.558-14.756,25.558-14.756.993,1.72-19.943,16.311-19.3,17.422.45.779,18.14-12.217,18.895-10.909.922,1.6-18.465,12.909-17.915,13.861.912,1.58,24.941-14.94,25.175-14.535.8,1.385-18.822,18.4-18.6,18.781.2.348,21.05-13.162,21.487-12.406.052.09-17.667,14.9-17.62,14.979,1.078,1.867,21.739-12.8,21.847-12.613.27.468-19.4,17.931-19.346,18.025.864,1.5,28.855-16.966,28.988-16.736.42.729-19.9,18.295-19.776,18.508.6,1.036,28.039-16.685,28.254-16.313.521.9-23.827,15.894-23.076,17.194,1.3,2.255,28.194-16.774,28.409-16.4.978,1.694-27.793,16.643-26.486,18.906.73,1.264,30.255-19.678,31.212-18.02.584,1.01-24.357,17.21-23.666,18.406.081.141,32.841-19.593,33.115-19.119,0,0-27.9,20.691-27.739,20.965.44.762,34.117-19.7,34.117-19.7,1.048,1.816-21.768,20.02-21.768,20.02.675,1.169,39.994-24.577,40.638-23.463.63,1.091-36.876,22.725-35.726,24.717,2.328,4.032,48.631-31.548,50.134-28.945,0,0-47.731,29.455-47.1,30.54.085.147,47.948-29.419,48.7-28.117.156.27-36,25.8-35.394,26.853.106.184,37.514-25.431,39.148-22.6,1.143,1.98-23.055,17.087-22,18.913.821,1.422,21.648-12.733,21.75-12.557.218.377.692,6.58.839,6.835a24.294,24.294,0,0,1,2.321-1.34" fill="none" stroke="#f7f7f7" stroke-linecap="round" stroke-linejoin="round" stroke-width="1.568"/>
    <path id="Pfad_71" data-name="Pfad 71" d="M503.059,222.109c-10.384,5.044-26.4,8.308-42.129,8.308-48.655,0-76.84-31.449-76.84-80.4,0-52.511,31.152-82.476,78.027-82.476,16.614,0,30.558,3.56,40.348,8.307L508.7,54.783c-6.824-3.561-22.548-8.9-47.469-8.9-62.006,0-104.431,42.425-104.431,105.024,0,65.566,42.425,101.168,98.794,101.168,24.327,0,43.315-4.747,52.809-9.494Z" fill="none" stroke="#f9f9f9" stroke-width="1.568"/>
  </g>
</svg>
