<svg xmlns="http://www.w3.org/2000/svg" width="170.403" height="207.357" viewBox="0 0 170.403 207.357">
  <g id="D" transform="translate(-538.711 -45.761)">
    <path id="Pfad_10" data-name="Pfad 10" d="M569.738,70.281c.05.086,36.636-24.1,37.911-21.888.814,1.409-22.651,18.781-21.462,20.84.661,1.144,34.866-20.183,34.889-20.144.973,1.686-20.646,18.491-20.261,19.157C601.79,69.936,628.661,49.073,630,51.4c.114.2-27.867,16.671-27.3,17.646.646,1.118,29.31-19.354,30.363-17.53.857,1.483-20.227,18.626-19.992,19.033.368.637,28.147-17.119,28.523-16.468,1.122,1.943-22.893,16.857-22.455,17.615.537.931,27.559-16.753,27.924-16.122.439.761-16,14.677-15.068,16.294.874,1.514,21.162-14.185,22.013-12.71.316.547-21.318,13.645-20.86,14.438.911,1.579,26.3-15.4,26.4-15.24.437.756-19.455,16.921-18.366,18.807.8,1.38,20.77-13.8,21.555-12.445.4.694-12.786,13.993-12.52,14.454.427.738,17.474-12.612,18.567-10.72.14.244-12.555,14.392-12.385,14.685.338.587,16.813-12.161,17.876-10.321.183.318-17.647,16.847-17.519,17.067.283.491,23-13.28,23-13.28.909,1.574-19.77,16.749-18.676,18.644l27.566-15.915c1.021,1.768-25.2,15.559-24.423,16.9.132.229,23.151-15.2,23.946-13.825.957,1.658-20.254,15.824-19.519,17.1.545.944,18.7-13,19.651-11.346.186.322-19.671,15.822-18.609,17.661.193.334,23.936-14.9,24.4-14.089.727,1.259-22.146,20.16-21.439,21.384.51.883,21.468-13.972,22.151-12.789.1.174-22.47,16.435-22.239,16.835.64,1.108,24.868-14.4,24.888-14.369.394.683-21.159,19.564-21.123,19.627.979,1.695,25.423-16.076,26.028-15.028.263.456-24.665,19.039-24.429,19.449.418.723,21.43-14.953,22.548-13.018.614,1.064-21.182,13.671-20.174,15.418.585,1.012,21.111-14.033,21.909-12.65.552.956-25.466,21.807-25.466,21.807.288.5,26.245-17.65,27.326-15.777.274.474-27.514,17.834-27.514,17.834,1.1,1.907,26.022-15.124,26.066-15.049.613,1.062-25.607,15.217-24.444,17.233.119.206,27.915-18.546,28.967-16.724.012.021-28.71,17.588-28.256,18.374.955,1.655,25.212-17.483,26.48-15.288,1.087,1.884-27.049,19.7-26.6,20.486,1.127,1.953,28.621-18.711,29.568-17.071,1.371,2.374-28.681,21.715-28.681,21.715.813,1.408,24.791-15.665,25.377-14.652.157.273-30.106,22.635-28.924,24.683.446.772,27.258-17.843,28.17-16.264.882,1.528-29.151,18.508-28.121,20.292.932,1.614,27.152-17.266,27.84-16.073,1.234,2.136-28.524,24.95-28.524,24.95.9,1.561,31.235-19.027,31.665-18.282s-32.953,20.638-31.648,22.9c.455.789,30-20.482,31.371-18.112.83,1.438-37.421,21.066-36.145,23.276.544.942,33.134-22.306,34.509-19.923.025.044-36.25,20.822-35.193,22.654.36.622,32.957-21.056,33.835-19.535.306.531-42.573,30.488-41.926,31.609,1.582,2.74,36.905-22.388,37.373-21.577l-48.272,33.795c2.162,3.745,46.381-27.429,46.663-26.941" fill="none" stroke="#f7f7f7" stroke-linecap="round" stroke-linejoin="round" stroke-width="1.568"/>
    <path id="Pfad_11" data-name="Pfad 11" d="M539.778,53.764c.009.016,5.663-3.37,5.707-3.295,0,0-2.718,8.464-2.712,8.474.572.991,16.182-10.225,16.564-9.563.794,1.375-19.784,16.927-19.158,18.011,1.231,2.133,29.122-18.835,30-17.319,1.422,2.462-30.168,22.029-28.832,24.342.125.217,44.718-26.352,44.949-25.952,1.495,2.59-46.336,27.691-45.672,28.841.443.767,52.2-32.749,53.332-30.791,2.188,3.79-50.014,34.628-48.962,36.449,1.242,2.152,58.895-34.663,59.18-34.168,2.455,4.253-61.229,40.938-60.857,41.582.564.978,24.409-14.239,24.473-14.129.747,1.294-27.466,21.022-26.255,23.121.307.531,26.937-18.437,28.186-16.273.23.4-27.808,22.705-27.808,22.705.99,1.715,25.494-14.731,25.5-14.723.8,1.378-23.6,15.539-22.828,16.881.469.811,24.484-14.31,24.56-14.179,1.3,2.244-27.762,23.9-27.762,23.9,1.14,1.974,23.557-15.631,24.436-14.109.634,1.1-25.286,18.956-24.027,21.137,1.1,1.9,24.8-15.756,25.424-14.679.187.323-22.865,17.92-22.752,18.115,1.246,2.159,23.612-14.742,24.093-13.91.819,1.42-28.478,19.43-27.562,21.016,1.223,2.117,25.968-17.7,27.14-15.669,0,0-25.142,18.33-24.247,19.881,0,0,22.711-15.234,23.63-13.643.139.241-27.079,18.982-26.967,19.176.807,1.4,26.217-17.974,27.446-15.846,1.065,1.846-28.458,19.171-27.1,21.514,1.167,2.022,26.346-15.3,26.382-15.232.589,1.02-27.844,24.373-27.627,24.749.614,1.064,25.836-17.522,26.965-15.567s-26.857,16.858-26.621,17.268c.162.28,29.626-18.986,30.441-17.575,1.093,1.894-25.882,20.291-25.882,20.291.825,1.43,24.632-15.145,25.031-14.452.639,1.105-28,19.7-27.114,21.237.78,1.351,23.633-15.024,24.23-13.99.717,1.242-23.745,15.16-22.545,17.239.362.628,21.67-14.819,22.669-13.088.082.141-24.608,16.81-24.6,16.828,1.126,1.951,25.488-15.855,25.981-15,1.224,2.121-25.271,18.471-24.711,19.441,1.075,1.861,24.7-15.711,25.326-14.621.68,1.178-27.932,19.152-26.851,21.024.049.086,23.174-14.725,23.757-13.716.455.788-26.288,19.278-24.9,21.684.085.148,28.962-16.768,28.982-16.733.17.295-29.8,20.264-29.668,20.486.793,1.374,28.782-17.611,29.212-16.866L542.316,204.9c.243.419,28.042-16.19,28.042-16.19,1.28,2.218-26.766,19.821-25.939,21.253.492.853,20.293-13.625,21.119-12.193,1.143,1.979-23.312,15.4-22.631,16.584.99,1.714,26.937-16.137,27.19-15.7,1.077,1.864-27.043,22.973-26.748,23.483.212.367,22.362-13.974,22.823-13.176.065.112-23,17.945-22.936,18.048,1.111,1.924,22.5-13.249,22.614-13.057.35.606-26.311,21.884-26.24,22.006.853,1.478,28.54-16.781,28.671-16.553.537.93-26.558,22.062-26.4,22.333.558.966,26.179-15.578,26.38-15.23.567.983-26.11,17.058-25.293,18.473,1.279,2.217,27.7-16.482,27.915-16.117,1.075,1.862-30.728,18.039-29.292,20.526.8,1.385,33.029-21.491,34.078-19.674.615,1.064-25.807,17.961-25.08,19.222.085.147,34.178-20.391,34.464-19.9,0,0-27.993,20.746-27.835,21.02.433.75,33.533-19.36,33.533-19.36.973,1.685-19.872,18.925-19.872,18.925.59,1.021,34.878-21.436,35.441-20.462.538.932-31.209,19.84-30.227,21.542,1.779,3.08,37.2-24.127,38.344-22.138,0,0-35.83,22.933-35.355,23.756.075.13,42.531-26.088,43.2-24.939.137.237-31.24,23.219-30.705,24.146.3.527,103.263-70.469,107.962-62.331,4.335,7.509-96.5,52.691-92.5,59.617,2.992,5.183,86.8-50.967,87.167-50.325,2.685,4.651-71.731,45.221-69.916,48.366.349.6,62.806-39.238,64.095-37.005.1.165-39,27.713-37.759,29.858.12.207,17.593-10.929,17.927-10.35" fill="none" stroke="#f7f7f7" stroke-linecap="round" stroke-linejoin="round" stroke-width="1.568"/>
    <path id="Pfad_72" data-name="Pfad 72" d="M568.028,70.8c6.824-1.483,16.911-2.67,30.261-2.67,54.589,0,81.29,29.964,80.993,77.136,0,54-29.964,84.85-85.146,84.85-10.088,0-19.581-.3-26.108-1.483Zm-25.811,177.71a416.676,416.676,0,0,0,46.875,2.374c38.865,0,69.72-10.087,88.41-28.778,18.691-18.394,28.777-45.1,28.777-77.73,0-32.338-10.383-55.479-28.183-71.8C660.591,56.267,634.187,47.663,597.1,47.663a369.618,369.618,0,0,0-54.885,4.154Z" fill="none" stroke="#f9f9f9" stroke-width="1.568"/>
  </g>
</svg>
