<svg xmlns="http://www.w3.org/2000/svg" width="118.087" height="204.275" viewBox="0 0 118.087 204.275">
  <g id="E" transform="translate(-737.742 -47.165)">
    <path id="Pfad_12" data-name="Pfad 12" d="M765.5,156.713c1.7,2.942,40.344-25.388,41.251-23.817.453.784-33.612,19.127-32.3,21.4.175.3,33.342-21.81,34.45-19.89,1.146,1.985-21,19.837-20.888,20.028.9,1.557,35.2-21.02,35.5-20.5.579,1-33.353,22.569-33.353,22.569,1.515,2.623,38.254-23.306,38.782-22.391,1.107,1.917-25.481,19.625-25.329,19.888.667,1.154,35.419-20.849,35.592-20.549,0,0-26.334,22.487-25.866,23.3.621,1.075,30.587-19.222,31.263-18.05.127.22-13.239,14.788-12.547,15.987.671,1.162,14.642-8.9,14.837-8.566.045.078-9.041,9.244-9.022,9.276.071.124,8.047-4.82,8.122-4.689.19.328-5.013,4.769-4.736,5.248.072.126,4.1-2.45,4.135-2.387" fill="none" stroke="#f7f7f7" stroke-linecap="round" stroke-linejoin="round" stroke-width="1.568"/>
    <path id="Pfad_13" data-name="Pfad 13" d="M768.141,70.635c.048.083,35.295-23.218,36.525-21.088.883,1.529-25.011,19.911-23.722,22.144.743,1.287,39.01-22.581,39.035-22.536,1.152,2-25.268,20.994-24.812,21.784,1.211,2.1,34.815-23.945,36.48-21.062.144.249-35.138,20.54-34.433,21.762.821,1.421,37-24.451,38.338-22.134,1.076,1.864-26.564,22.145-26.269,22.656.505.875,38.193-23.242,38.709-22.348,1.5,2.6-31.435,21.448-30.849,22.462.6,1.048,30.813-18.738,31.223-18.027.425.735-15.305,14.346-14.4,15.909.576,1,12.968-8.782,13.529-7.81.173.3-11.139,8.244-10.888,8.68.455.788,14.072-8.234,14.119-8.152.137.236-2.575,7.311-2.234,7.9.026.046.757-.5.783-.453" fill="none" stroke="#f7f7f7" stroke-linecap="round" stroke-linejoin="round" stroke-width="1.568"/>
    <path id="Pfad_14" data-name="Pfad 14" d="M738.815,51.072c.007.012,5.407-3.2,5.44-3.141,0,0-2.451,8.31-2.445,8.32.445.772,12.642-7.986,12.939-7.47.672,1.163-16.062,15-15.533,15.918,1,1.732,23.549-15.238,24.26-14.006,1.177,2.038-24.2,19.114-23.1,21.029.106.184,37.833-22.294,38.028-21.956,1.274,2.207-39.317,23.865-38.751,24.845.379.657,45.281-28.38,46.25-26.7,1.9,3.286-42.792,30.781-41.88,32.36,1.107,1.919,52.059-30.644,52.313-30.2,2.192,3.8-54.322,37.042-53.99,37.617.566.981,24.469-14.273,24.532-14.164.749,1.3-27.528,21.053-26.314,23.156.307.532,27-18.478,28.247-16.308.23.4-27.87,22.74-27.87,22.74.993,1.72,25.557-14.767,25.562-14.758.8,1.381-23.666,15.571-22.89,16.916.47.813,24.546-14.347,24.622-14.215,1.3,2.248-27.824,23.941-27.824,23.941,1.142,1.979,23.618-15.672,24.5-14.145.636,1.1-25.352,18.987-24.09,21.173,1.1,1.9,24.866-15.8,25.489-14.717.187.324-22.93,17.957-22.817,18.153,1.249,2.164,23.677-14.782,24.158-13.948.821,1.423-28.545,19.464-27.627,21.054,1.226,2.123,26.031-17.743,27.206-15.707,0,0-25.21,18.365-24.313,19.919,0,0,22.776-15.277,23.7-13.681.139.24-27.146,19.02-27.034,19.214.809,1.4,26.282-18.019,27.513-15.885,1.069,1.85-28.528,19.205-27.173,21.553,1.171,2.028,26.415-15.336,26.452-15.272.59,1.022-27.914,24.412-27.7,24.789.908,1.572,37.6-25.561,39.268-22.671,1.636,2.833-39.266,23.779-38.924,24.372.26.451,44.727-28.845,46.036-26.579,1.688,2.925-41.477,29.295-41.477,29.295,1.623,2.813,49.107-30.169,49.894-28.806,1.167,2.021-53.6,32.772-51.977,35.591,1.828,3.166,57.366-36.353,58.766-33.929,1.721,2.981-59.962,32.189-57.081,37.178.363.629,21.7-14.84,22.7-13.107.081.141-24.642,16.83-24.632,16.847,1.128,1.954,25.521-15.875,26.015-15.02,1.226,2.123-25.3,18.489-24.744,19.46,1.076,1.863,24.729-15.731,25.359-14.641.681,1.18-27.966,19.17-26.884,21.045.049.085,23.207-14.747,23.791-13.736.455.789-26.324,19.294-24.933,21.7.085.148,29-16.788,29.016-16.753.171.295-29.831,20.283-29.7,20.506.795,1.376,28.817-17.632,29.248-16.886L741.353,202.2c.243.42,28.077-16.21,28.077-16.21,1.282,2.22-26.8,19.839-25.974,21.273.493.855,20.328-13.648,21.155-12.214,1.145,1.982-23.349,15.425-22.668,16.6.992,1.717,26.974-16.159,27.227-15.719,1.078,1.866-27.079,22.994-26.784,23.5.212.367,22.4-14,22.86-13.2.065.113-23.033,17.967-22.974,18.07,1.113,1.927,22.542-13.271,22.653-13.079.35.607-26.349,21.906-26.278,22.028.854,1.48,28.578-16.8,28.71-16.575.537.931-26.6,22.083-26.441,22.355.558.967,26.218-15.6,26.419-15.253.568.985-26.151,17.079-25.333,18.5,1.2,2.069,25.836-15.371,26.033-15.03,1.035,1.792-29.509,17.459-28.126,19.854.794,1.376,32.825-21.358,33.867-19.553.692,1.2-29.4,19.82-28.576,21.24.095.166,38.323-22.867,38.644-22.311,0,0-31.165,22.539-30.991,22.842.477.825,36.95-21.333,36.95-21.333,1.066,1.846-22.2,20.268-22.2,20.268.615,1.066,36.416-22.38,37-21.364.558.967-32.437,20.465-31.418,22.229,1.747,3.025,36.521-23.688,37.648-21.736,0,0-34.937,22.444-34.473,23.247.067.117,38.454-23.581,39.051-22.546.12.208-27,20.92-26.526,21.734.108.187,38.275-25.953,39.944-23.062,1.3,2.244-26.6,18.808-25.4,20.877,1.244,2.155,34.348-20.186,34.5-19.919.92,1.593-21.653,19.065-21.031,20.142.2.347,35.649-22.293,36.39-21.01.065.113-24.94,20.52-24.1,21.973.149.257,22.328-13.847,22.742-13.13.354.613-17.071,12.137-16.588,12.974.363.63,18.893-10.908,18.893-10.908.385.666-11.828,11.554-11.176,12.683.076.133,9.995-6.289,10.22-5.9.053.092-1.23,4.72-1.09,4.962.012.021,2.528-1.546,2.565-1.482" fill="none" stroke="#f7f7f7" stroke-linecap="round" stroke-linejoin="round" stroke-width="1.568"/>
    <path id="Pfad_73" data-name="Pfad 73" d="M844.823,134H767.094V70.8h82.179V49.146H741.283V249.107h112.44V227.45H767.094V155.357h77.729Z" fill="none" stroke="#f9f9f9" stroke-width="1.568"/>
  </g>
</svg>
