<svg xmlns="http://www.w3.org/2000/svg" width="113.41" height="202.805" viewBox="0 0 113.41 202.805">
  <g id="F" transform="translate(-885.188 -47.165)">
    <path id="Pfad_15" data-name="Pfad 15" d="M912.947,159.976c1.7,2.942,40.346-25.389,41.253-23.817.452.783-33.614,19.127-32.3,21.4.175.3,33.343-21.811,34.452-19.891,1.146,1.985-21,19.838-20.89,20.029.9,1.556,35.2-21.021,35.5-20.5.579,1-33.355,22.569-33.355,22.569,1.515,2.624,38.256-23.306,38.784-22.391,1.107,1.917-25.482,19.625-25.33,19.889.666,1.153,35.42-20.85,35.593-20.55,0,0-26.335,22.487-25.867,23.3.577,1,28.559-17.939,29.187-16.851.113.2-11.088,13.719-10.471,14.788.571.988,12.594-7.655,12.761-7.367.037.064-6.962,8.051-6.946,8.077.05.087,5.993-3.581,6.046-3.49.135.235-3.238,3.707-3.04,4.05.023.039,2.427-1.427,2.438-1.408" fill="none" stroke="#f7f7f7" stroke-linecap="round" stroke-linejoin="round" stroke-width="1.568"/>
    <path id="Pfad_16" data-name="Pfad 16" d="M915.588,70.635c.048.083,35.295-23.218,36.525-21.088C953,51.076,927.1,69.458,928.391,71.691c.743,1.287,39.01-22.581,39.035-22.536,1.153,2-25.268,20.994-24.812,21.784,1.211,2.1,34.815-23.945,36.48-21.062.144.249-35.138,20.54-34.433,21.762.821,1.421,37-24.451,38.338-22.134,1.076,1.864-26.564,22.145-26.269,22.656.5.871,38-23.123,38.511-22.234,1.491,2.583-31.233,21.34-30.651,22.348.6,1.037,30.52-18.56,30.927-17.856.418.724-15,14.2-14.107,15.738.566.98,12.682-8.593,13.233-7.639.168.292-10.837,8.084-10.592,8.509.444.768,13.777-8.061,13.823-7.981.133.231-2.569,7.151-2.235,7.729.026.046.757-.5.784-.453" fill="none" stroke="#f7f7f7" stroke-linecap="round" stroke-linejoin="round" stroke-width="1.568"/>
    <path id="Pfad_17" data-name="Pfad 17" d="M886.261,51.072c.007.012,5.407-3.2,5.44-3.141,0,0-2.451,8.31-2.445,8.32.445.772,12.642-7.986,12.939-7.47.672,1.163-16.062,15-15.533,15.918,1,1.732,23.549-15.238,24.26-14.006,1.177,2.038-24.2,19.114-23.095,21.029.106.184,37.833-22.294,38.028-21.956,1.274,2.207-39.317,23.865-38.751,24.845.379.657,45.281-28.38,46.25-26.7,1.9,3.286-42.792,30.781-41.88,32.36,1.107,1.919,52.059-30.644,52.314-30.2,2.191,3.8-54.323,37.042-53.991,37.617.566.981,24.469-14.273,24.532-14.164.749,1.3-27.528,21.053-26.314,23.156.307.532,26.994-18.477,28.247-16.308.23.4-27.87,22.74-27.87,22.74.993,1.72,25.557-14.767,25.562-14.758.8,1.381-23.666,15.571-22.89,16.916.47.813,24.546-14.347,24.622-14.215,1.3,2.248-27.824,23.941-27.824,23.941,1.142,1.979,23.617-15.671,24.5-14.145.635,1.1-25.352,18.987-24.09,21.173,1.1,1.9,24.865-15.795,25.488-14.716.187.324-22.929,17.956-22.816,18.152,1.249,2.164,23.676-14.781,24.157-13.947.821,1.422-28.544,19.463-27.626,21.053,1.226,2.123,26.03-17.742,27.205-15.707,0,0-25.209,18.365-24.312,19.919,0,0,22.775-15.276,23.7-13.681.139.241-27.145,19.02-27.033,19.214.809,1.4,26.28-18.018,27.512-15.884,1.068,1.85-28.527,19.2-27.172,21.552,1.171,2.028,26.414-15.335,26.451-15.271.589,1.022-27.913,24.411-27.7,24.788.773,1.338,32.192-21.866,33.613-19.406,1.4,2.431-33.562,20.6-33.269,21.107.225.389,39.251-25.269,40.38-23.313,1.473,2.55-35.821,26.029-35.821,26.029,1.442,2.5,43.54-26.751,44.238-25.541,1.047,1.813-47.78,29.8-46.321,32.326,1.656,2.869,51.842-32.86,53.111-30.664,1.556,2.7-54.031,29.4-51.426,33.913.872,1.511,56.461-38.154,58.867-33.987.2.339-60.82,37.685-60.8,37.727,1.128,1.953,25.52-15.874,26.014-15.019,1.225,2.123-25.3,18.488-24.743,19.459,1.076,1.863,24.728-15.73,25.357-14.64.681,1.181-27.964,19.169-26.882,21.044.049.085,23.2-14.745,23.788-13.735.455.789-26.321,19.294-24.93,21.7.085.148,28.993-16.786,29.013-16.751.171.295-29.828,20.281-29.7,20.5.8,1.376,28.814-17.63,29.245-16.884L888.8,202.2c.243.42,28.074-16.208,28.074-16.208,1.281,2.22-26.8,19.837-25.971,21.271.493.854,20.323-13.645,21.151-12.211,1.144,1.981-23.345,15.422-22.663,16.6.991,1.717,26.968-16.156,27.222-15.717,1.077,1.866-27.075,22.992-26.78,23.5.212.367,22.394-13.995,22.855-13.2.065.113-23.028,17.964-22.969,18.067,1.113,1.926,22.537-13.267,22.647-13.075.351.606-26.343,21.9-26.272,22.024.854,1.48,28.572-16.8,28.7-16.572.538.931-26.591,22.081-26.434,22.352.558.967,26.211-15.6,26.412-15.249.568.984-26.144,17.076-25.326,18.492,1.169,2.025,25.279-15.039,25.472-14.706,1.015,1.759-28.922,17.18-27.565,19.53.628,1.088,26.218-17.04,27.042-15.613.541.936-22.386,16.189-21.746,17.3.057.1,23.406-13.957,23.6-13.624,0,0-16.028,13.98-15.931,14.147.176.3,13.314-7.686,13.314-7.686.24.415,1.458,6.61,1.458,6.61.015.025.419-.275.434-.251" fill="none" stroke="#f7f7f7" stroke-linecap="round" stroke-linejoin="round" stroke-width="1.568"/>
    <path id="Pfad_74" data-name="Pfad 74" d="M888.729,249.108H914.54V158.621h75.653V137.26H914.54V70.8h81.883V49.147H888.729Z" fill="none" stroke="#f9f9f9" stroke-width="1.568"/>
  </g>
</svg>
