<svg xmlns="http://www.w3.org/2000/svg" width="167.895" height="208.27" viewBox="0 0 167.895 208.27">
  <g id="G" transform="translate(-1021.263 -45.2)">
    <path id="Pfad_18" data-name="Pfad 18" d="M1118.68,145.922c.036.062,5.046-2.957,5.065-2.924.039.068-.983,3.05-.87,3.247.027.045,2.852-2.03,3.018-1.743.411.712-3.294,9.779-3.254,9.847.47.814,17.709-10.59,17.867-10.316.383.663-21.456,15.7-21.456,15.7,1.027,1.78,26.528-16.143,26.886-15.522,1,1.728-22.687,18.046-22.55,18.284.616,1.067,32.654-19.224,32.815-18.946,0,0-25.286,21.917-24.833,22.7.769,1.332,37.344-23.5,38.182-22.044.174.3-20.407,18.33-19.457,19.976,1.737,3.008,36.383-22.176,36.89-21.3.133.23-31.126,21.91-31.071,22.006.324.561,31.78-19.136,32.121-18.545.925,1.6-30.082,16.764-28.732,19.1.772,1.337,27.743-16.907,28.128-16.239.416.719-24.315,17.506-24.3,17.534.477.827,22.017-15.062,23.034-13.3.795,1.376-25.319,20.343-24.684,21.442.951,1.648,22.467-13.457,22.678-13.092,1.134,1.964-21.513,18.014-21.06,18.8.876,1.517,20.913-13.457,21.512-12.42.535.928-25.973,16.085-24.929,17.893.031.055,25.817-16.721,26.6-15.359,0,.005-26.142,20.829-25.276,22.33.41.71,26.459-16.775,27.108-15.651,1.063,1.842-27.829,19.616-26.864,21.286l27.2-15.7c.344.6-28.794,16.945-27.641,18.942.946,1.638,25.77-17.521,26.915-15.539.594,1.03-27.814,20.358-27.552,20.813,0,0,27.819-16.391,27.962-16.144,1.131,1.959-24.076,19.564-23.742,20.142.775,1.344,21.24-12.833,21.487-12.4,1.1,1.912-24.4,17.028-23.2,19.113.593,1.028,24.193-15.068,24.67-14.243,1.007,1.744-28.493,20.458-27.916,21.458.056.1,27.084-17.048,27.695-15.99" fill="none" stroke="#f7f7f7" stroke-linecap="round" stroke-linejoin="round" stroke-width="1.568"/>
    <path id="Pfad_19" data-name="Pfad 19" d="M1092.833,76.041c.063.11,47.137-30.983,48.769-28.157.89,1.542-25.276,20.037-23.975,22.29.7,1.213,36.868-21.34,36.891-21.3,1.029,1.784-22.112,19.285-21.7,19.991,1.005,1.743,28.745-19.79,30.128-17.395.119.2-28.813,17.174-28.231,18.181.663,1.149,30.088-19.87,31.17-18,.882,1.528-20.966,19.037-20.724,19.456.37.641,28.335-17.234,28.714-16.578,1.13,1.955-23.046,16.939-22.6,17.7.531.921,27.286-16.588,27.646-15.963.432.748-15.649,14.51-14.73,16.1.547.946,12.162-8.252,12.694-7.33.182.315-11.779,8.584-11.515,9.042.447.773,13.849-8.1,13.9-8.022.2.348-5.467,10.178-4.964,11.047.019.035.586-.386.606-.351" fill="none" stroke="#f7f7f7" stroke-linecap="round" stroke-linejoin="round" stroke-width="1.568"/>
    <path id="Pfad_20" data-name="Pfad 20" d="M1061.117,68.074c.131.226,19.255-12.562,19.881-11.478,0,0-35.915,27.573-35.885,27.626,2.121,3.673,59.514-37.633,60.931-35.178,2.6,4.5-73.413,44.6-71.364,48.152,3.389,5.87,81.1-52.386,83.506-48.212,3.969,6.874-91.456,51.886-87.727,58.344.288.5,102.671-60.5,103.2-59.582,3.4,5.885-106.722,60.6-105.212,63.216.971,1.683,109.979-69.227,112.461-64.929,4.763,8.25-113.657,68.515-111.369,72.479.754,1.306,34.056-20.062,34.23-19.762,1.566,2.713-37.88,27.768-37.643,28.178.749,1.3,32.752-19.1,32.836-18.957.984,1.705-37.592,25.982-36,28.746.37.641,32.044-21.99,33.554-19.373.274.473-33.8,26.161-33.8,26.161,1.135,1.967,29.255-16.9,29.26-16.893.922,1.6-27.66,17.6-26.762,19.152.524.909,27.556-16.106,27.641-15.959,1.419,2.457-30.817,25.669-30.817,25.669,1.224,2.12,25.392-16.84,26.336-15.205.667,1.156-26.827,19.693-25.5,21.987,1.141,1.976,25.827-16.4,26.473-15.284.191.33-23.409,18.229-23.294,18.428,1.272,2.2,24.139-15.069,24.629-14.219.816,1.412-28.32,19.349-27.409,20.928,1.225,2.121,26.014-17.731,27.188-15.7,0,0-24.156,17.833-23.292,19.33,0,0,22.253-14.93,23.155-13.369.132.231-25.875,18.3-25.768,18.483.783,1.357,25.491-17.47,26.683-15.4.991,1.717-26.243,18.111-24.985,20.29,1.113,1.928,25.152-14.6,25.187-14.542.523.907-24.172,22.309-23.979,22.643.572.991,24.166-16.382,25.218-14.56,1.034,1.791-24.494,15.542-24.278,15.917.151.26,27.84-17.82,28.6-16.51.956,1.654-22.235,18.186-22.235,18.186.758,1.313,22.571-13.88,22.938-13.244.55.952-23.7,17.5-22.935,18.824.71,1.23,21.385-13.6,21.929-12.661.6,1.041-19.527,13.174-18.522,14.916.328.568,19.346-13.261,20.252-11.692.07.121-21.056,14.762-21.047,14.777,1.018,1.763,23.06-14.344,23.506-13.572,1.009,1.747-20.315,15.838-19.853,16.637.967,1.676,22.207-14.13,22.773-13.149s-22.421,16.416-21.532,17.955c.044.076,20.65-13.134,21.175-12.226.352.61-19.347,16-18.273,17.858.077.133,26.433-15.3,26.451-15.271.146.251-25.232,17.671-25.122,17.861.717,1.242,26.354-16.114,26.743-15.44l-21.213,17.463c.221.381,25.687-14.831,25.687-14.831.99,1.715-19.875,16.276-19.235,17.383.452.784,18.263-12.3,19.022-10.982.924,1.6-18.487,12.921-17.937,13.874.917,1.588,25.062-15.012,25.3-14.6.8,1.377-18.7,18.335-18.484,18.712.2.35,21.187-13.247,21.627-12.486.051.089-17.655,14.891-17.608,14.972,1.084,1.879,21.9-12.9,22.011-12.708.269.466-19.324,17.888-19.27,17.982.87,1.506,29.04-17.076,29.173-16.844.419.725-19.785,18.231-19.663,18.443.6,1.044,28.26-16.817,28.477-16.442.523.9-23.875,15.919-23.123,17.221,1.314,2.277,28.462-16.933,28.679-16.557.981,1.7-27.882,16.685-26.572,18.955.738,1.278,30.575-19.887,31.543-18.211.584,1.013-24.42,17.242-23.727,18.441.082.143,33.3-19.864,33.574-19.384,0,0-28.071,20.789-27.912,21.065.446.772,34.573-19.961,34.573-19.961,1.05,1.817-21.788,20.031-21.788,20.031.7,1.217,41.649-25.593,42.319-24.433.655,1.135-38.431,23.516-37.235,25.588,3.046,5.275,63.566-41.241,65.533-37.835,0,0-63.245,37.957-62.422,39.382.108.186,60.255-36.983,61.206-35.337.2.356-48.5,32.566-47.694,33.955.137.238,47.872-32.526,49.988-28.86,1.616,2.8-34.033,22.416-32.542,25,1.124,1.946,30.739-18.069,30.878-17.828.491.85-8.9,12.375-8.572,12.95.06.1,9.847-6.195,10.068-5.813.01.018-3.17,3.909-3.038,4.138.012.021,1.974-1.216,2.007-1.159" fill="none" stroke="#f7f7f7" stroke-linecap="round" stroke-linejoin="round" stroke-width="1.568"/>
    <path id="Pfad_75" data-name="Pfad 75" d="M1186.891,144.083h-65.862v20.768h40.645v59.632c-5.933,2.967-17.505,5.34-34.415,5.34-46.578,0-77.137-29.965-77.137-80.7,0-50.139,31.746-80.4,80.4-80.4,20.174,0,33.524,3.856,44.205,8.6l6.23-21.064c-8.6-4.154-26.7-9.2-49.842-9.2-67.049,0-107.991,43.612-108.287,103.244,0,31.152,10.68,57.853,27.887,74.466,19.581,18.692,44.5,26.406,74.763,26.406,27,0,49.842-6.825,61.412-10.978Z" fill="none" stroke="#f9f9f9" stroke-width="1.568"/>
  </g>
</svg>
