<svg xmlns="http://www.w3.org/2000/svg" width="155.611" height="203.785" viewBox="0 0 155.611 203.785">
  <g id="H" transform="translate(-1224.292 -47.268)">
    <path id="Pfad_21" data-name="Pfad 21" d="M1348.011,50.985c.036.062,5.047-2.958,5.066-2.925.039.068-.987,3.052-.873,3.249.026.046,2.861-2.036,3.027-1.748.412.712-3.312,9.789-3.273,9.858.471.815,17.745-10.611,17.9-10.337.383.664-21.495,15.723-21.495,15.723,1.029,1.783,26.573-16.171,26.932-15.549,1,1.732-22.739,18.076-22.6,18.314.47.813,24.57-14.468,24.692-14.256,0,0-29.984,24.467-29.461,25.374.558.966,27.7-17.4,28.312-16.346.212.366-25.9,21.035-24.746,23.03,1.26,2.183,26.658-16.24,27.025-15.6.122.21-28.309,20.3-28.258,20.382.274.475,27.065-16.291,27.353-15.792.912,1.58-29.656,16.561-28.324,18.867.759,1.316,27.34-16.661,27.72-16,.429.744-25.194,18.013-25.177,18.042.494.855,22.86-15.631,23.913-13.807.819,1.418-26.218,20.818-25.563,21.95.984,1.705,23.338-13.977,23.556-13.6,1.173,2.034-22.409,18.5-21.94,19.307.907,1.571,21.772-14,22.391-12.927.554.959-26.887,16.533-25.808,18.4.032.056,26.669-17.277,27.482-15.867,0,0-27.048,21.293-26.156,22.838.424.736,27.316-17.322,27.988-16.158,1.1,1.9-28.738,20.075-27.745,21.794l28.078-16.211c.355.614-29.709,17.393-28.521,19.45.979,1.7,26.611-18.1,27.8-16.047.588,1.017-28.693,18.4-28.434,18.848,0,0,28.7-16.909,28.844-16.653" fill="none" stroke="#f7f7f7" stroke-linecap="round" stroke-linejoin="round" stroke-width="1.568"/>
    <path id="Pfad_22" data-name="Pfad 22" d="M1254.689,155.188c.05.086,36.778-24.191,38.058-21.973.93,1.61-26.614,20.678-25.256,23.03.773,1.34,40.544-23.469,40.57-23.423,1.213,2.1-26.829,21.84-26.349,22.672,1.261,2.184,36.285-24.952,38.018-21.95.15.26-36.707,21.375-35.971,22.65.854,1.479,38.483-25.434,39.876-23.022,1.13,1.958-28.118,23.008-27.808,23.545.526.911,39.711-24.168,40.248-23.238,1.57,2.719-33,22.291-32.389,23.352.8,1.384,40.177-24.45,40.719-23.51.635,1.1-25.249,19.056-23.9,21.393,2.005,3.472,52.22-34.661,54.174-31.277.755,1.307-52.63,30.248-51.534,32.146,1.967,3.407,54.558-31.97,54.762-31.616.859,1.488-42.987,28.07-40.843,31.784,1.309,2.266,35.38-23.405,36.67-21.172.611,1.058-21.948,18.96-21.542,19.663.486.841,20.531-14.731,21.776-12.573.215.372-21.7,19.465-21.438,19.911.393.682,20.254-14.541,21.487-12.4.254.44-26.082,21.6-25.906,21.909.332.575,26.83-15.49,26.83-15.49,1.24,2.146-28.693,20.981-27.2,23.565l31.425-18.142c1.232,2.135-30.715,18.373-29.78,19.992.155.268,26.837-17.644,27.768-16.032,1.237,2.144-27.15,19.308-26.2,20.955.635,1.1,22.23-15.4,23.341-13.476.24.415-26.6,19.107-25.229,21.483.222.384,27.283-17,27.822-16.063.9,1.564-28.847,23.633-27.969,25.154.575.995,24.326-15.823,25.1-14.489.118.2-26.6,18.726-26.325,19.194.714,1.235,27.558-15.963,27.581-15.924.463.8-25.589,22.108-25.547,22.181,1.067,1.848,27.533-17.42,28.193-16.277.293.508-27.8,20.786-27.536,21.243.447.775,23.087-16.094,24.284-14.021.677,1.172-23.542,14.8-22.431,16.721.618,1.07,22.48-14.93,23.325-13.467.59,1.023-27.533,23-27.533,23,.3.514,26.974-18.146,28.088-16.217.282.489-28.381,18.335-28.381,18.335,1.126,1.949,26.59-15.455,26.634-15.378.629,1.09-26.309,15.554-25.115,17.621.12.208,28.165-18.715,29.227-16.875.013.022-29,17.746-28.54,18.54.956,1.656,25.254-17.513,26.524-15.314,1.087,1.883-27.036,19.7-26.584,20.478,1.107,1.918,28.165-18.408,29.094-16.8,1.339,2.319-27.955,21.3-27.955,21.3.783,1.356,23.807-15.046,24.37-14.07.1.172-17.164,16.172-16.419,17.463.246.426,15.082-9.868,15.584-9,.294.509-8.115,7.95-7.772,8.545.274.474,7.408-4.745,7.611-4.394.124.215,1.675,3.43,1.675,3.43.024.041,2.107-1.242,2.118-1.222" fill="none" stroke="#f7f7f7" stroke-linecap="round" stroke-linejoin="round" stroke-width="1.568"/>
    <path id="Pfad_23" data-name="Pfad 23" d="M1225.363,51.072c.007.012,5.408-3.2,5.441-3.141,0,0-2.452,8.31-2.446,8.32.446.773,12.661-8,12.959-7.481.672,1.164-16.083,15.011-15.553,15.929,1,1.735,23.586-15.262,24.3-14.028,1.178,2.041-24.24,19.134-23.133,21.051.071.124,25.515-15.036,25.646-14.807.88,1.522-26.76,17.02-26.369,17.7.23.4,29-18.1,29.585-17.081,1.217,2.108-25.8,21.725-25.215,22.738.5.874,21.359-12.6,21.475-12.4,1.015,1.758-23.306,19.546-23.152,19.812.566.981,24.476-14.278,24.54-14.168.749,1.3-27.536,21.057-26.322,23.16.307.532,27-18.482,28.254-16.312.23.4-27.877,22.744-27.877,22.744.994,1.72,25.563-14.77,25.568-14.762.8,1.382-23.672,15.575-22.9,16.92.47.814,24.552-14.35,24.628-14.218,1.3,2.248-27.83,23.944-27.83,23.944,1.143,1.979,23.622-15.674,24.5-14.148.635,1.1-25.358,18.99-24.095,21.176,1.1,1.9,24.87-15.8,25.493-14.719.187.324-22.934,17.959-22.821,18.155,1.25,2.164,23.679-14.784,24.161-13.949.821,1.422-28.548,19.465-27.63,21.055,1.226,2.123,26.033-17.744,27.209-15.709,0,0-25.213,18.367-24.316,19.921,0,0,22.778-15.278,23.7-13.682.139.24-27.148,19.021-27.036,19.215.809,1.4,26.283-18.019,27.515-15.886,1.068,1.851-28.531,19.206-27.175,21.554,1.171,2.028,26.416-15.336,26.453-15.272.589,1.022-27.915,24.412-27.7,24.789.957,1.657,39.565-26.9,41.324-23.858,1.72,2.98-41.34,24.935-40.98,25.559.273.473,46.717-30.144,48.091-27.765,1.767,3.06-43.532,30.481-43.532,30.481,1.689,2.927,51.129-31.41,51.947-29.992,1.211,2.1-55.719,33.853-54.03,36.777,1.89,3.274,59.371-37.621,60.818-35.114,1.781,3.085-62.114,33.2-59.133,38.363.363.629,21.7-14.84,22.7-13.106.081.141-24.642,16.829-24.632,16.846,1.128,1.954,25.521-15.875,26.014-15.019,1.226,2.122-25.3,18.488-24.743,19.459,1.076,1.863,24.728-15.731,25.358-14.64.681,1.18-27.965,19.169-26.883,21.044.049.085,23.205-14.746,23.789-13.735.455.788-26.322,19.294-24.931,21.7.085.148,28.994-16.786,29.014-16.752.171.295-29.829,20.282-29.7,20.505.794,1.376,28.814-17.631,29.245-16.884L1227.9,202.2c.243.42,28.074-16.209,28.074-16.209,1.282,2.22-26.8,19.838-25.971,21.272.493.854,20.324-13.646,21.152-12.212,1.144,1.982-23.346,15.423-22.665,16.6.992,1.717,26.97-16.157,27.223-15.717,1.078,1.866-27.075,22.992-26.78,23.5.212.367,22.394-13.995,22.855-13.2.065.113-23.028,17.964-22.969,18.067,1.113,1.926,22.537-13.268,22.648-13.076.35.607-26.344,21.9-26.273,22.025.854,1.48,28.572-16.8,28.7-16.572.537.931-26.592,22.081-26.435,22.352.558.967,26.211-15.6,26.412-15.249.568.984-26.144,17.076-25.326,18.492,1.169,2.025,25.28-15.04,25.472-14.706,1.016,1.759-28.922,17.18-27.565,19.53.627,1.088,26.218-17.041,27.042-15.613.541.936-22.386,16.189-21.746,17.3.057.1,23.406-13.957,23.6-13.624,0,0-16.028,13.98-15.931,14.147.176.3,13.314-7.686,13.314-7.686.24.415,1.458,6.61,1.458,6.61.014.025.419-.275.433-.251" fill="none" stroke="#f7f7f7" stroke-linecap="round" stroke-linejoin="round" stroke-width="1.568"/>
    <path id="Pfad_76" data-name="Pfad 76" d="M1227.831,49.146V249.107h25.811v-93.75h96.717v93.75h26.108V49.146h-26.108V132.81h-96.717V49.146Z" fill="none" stroke="#f9f9f9" stroke-width="1.568"/>
  </g>
</svg>
