<svg xmlns="http://www.w3.org/2000/svg" width="32.524" height="202.578" viewBox="0 0 32.524 202.578">
  <g id="I" transform="translate(-1419.208 -47.39)">
    <path id="Pfad_24" data-name="Pfad 24" d="M1420.279,51.072c.007.012,5.408-3.2,5.441-3.141,0,0-2.452,8.31-2.446,8.32.446.773,12.661-8,12.959-7.481.672,1.164-16.083,15.011-15.553,15.929,1,1.735,23.586-15.262,24.3-14.028,1.178,2.041-24.24,19.134-23.133,21.051.071.124,25.513-15.035,25.645-14.807.879,1.523-26.759,17.02-26.368,17.7.23.4,28.994-18.1,29.583-17.079,1.217,2.108-25.8,21.724-25.213,22.737.5.873,21.355-12.6,21.471-12.4,1.015,1.757-23.3,19.544-23.148,19.81.566.981,24.471-14.275,24.534-14.165.749,1.3-27.53,21.054-26.316,23.157.307.532,26.994-18.477,28.247-16.308.23.4-27.87,22.74-27.87,22.74.993,1.719,25.555-14.766,25.56-14.757.8,1.381-23.664,15.57-22.888,16.915.47.813,24.543-14.345,24.619-14.213,1.3,2.248-27.821,23.939-27.821,23.939,1.142,1.978,23.612-15.668,24.493-14.142.635,1.1-25.346,18.984-24.084,21.17,1.1,1.9,24.858-15.791,25.481-14.712.187.324-22.922,17.952-22.809,18.148,1.249,2.163,23.667-14.776,24.148-13.942.821,1.422-28.534,19.459-27.617,21.048,1.225,2.122,26.02-17.735,27.2-15.7,0,0-25.2,18.359-24.3,19.913,0,0,22.763-15.268,23.684-13.674.139.241-27.133,19.013-27.021,19.207.809,1.4,26.267-18.009,27.5-15.876,1.067,1.849-28.514,19.2-27.159,21.544,1.17,2.026,26.4-15.326,26.435-15.262.59,1.021-27.9,24.4-27.679,24.779.615,1.066,25.884-17.555,27.015-15.6s-26.908,16.887-26.671,17.3c.163.281,29.675-19.017,30.491-17.6,1.1,1.9-25.932,20.32-25.932,20.32.827,1.433,24.68-15.174,25.081-14.48.639,1.107-28.056,19.721-27.164,21.265.781,1.354,23.68-15.054,24.279-14.018.718,1.245-23.8,15.184-22.594,17.267.363.629,21.716-14.85,22.717-13.115.082.141-24.657,16.837-24.647,16.855,1.129,1.955,25.535-15.884,26.029-15.028,1.227,2.124-25.319,18.5-24.758,19.468,1.076,1.864,24.742-15.739,25.372-14.648.682,1.18-27.98,19.176-26.9,21.052.049.085,23.218-14.754,23.8-13.743.456.789-26.335,19.3-24.944,21.71.085.148,29.006-16.793,29.026-16.759.17.3-29.841,20.289-29.713,20.512.8,1.376,28.825-17.638,29.257-16.891L1422.817,202.2c.243.42,28.085-16.215,28.085-16.215,1.282,2.221-26.811,19.844-25.982,21.278.493.855,20.333-13.652,21.161-12.217,1.145,1.982-23.355,15.427-22.674,16.608.992,1.717,26.978-16.162,27.232-15.722,1.078,1.867-27.084,23-26.789,23.508.212.367,22.4-14,22.863-13.2.065.112-23.036,17.968-22.977,18.071,1.113,1.927,22.544-13.271,22.654-13.08.351.607-26.35,21.907-26.279,22.029.854,1.48,28.578-16.8,28.709-16.575.538.931-26.6,22.083-26.44,22.355.558.967,26.215-15.6,26.416-15.251.569.984-26.148,17.078-25.33,18.494,1.169,2.025,25.283-15.042,25.476-14.708,1.015,1.759-28.926,17.182-27.569,19.532.628,1.088,26.221-17.042,27.045-15.615.541.936-22.389,16.19-21.749,17.3.057.1,23.408-13.958,23.6-13.625,0,0-16.03,13.981-15.933,14.148.176.3,13.315-7.687,13.315-7.687.24.416,1.457,6.611,1.457,6.611.015.025.419-.275.434-.251" fill="none" stroke="#f7f7f7" stroke-linecap="round" stroke-linejoin="round" stroke-width="1.568"/>
    <rect id="Rechteck_1" data-name="Rechteck 1" width="25.811" height="199.961" transform="translate(1422.747 49.146)" fill="none" stroke="#f9f9f9" stroke-width="1.568"/>
  </g>
</svg>
