<svg xmlns="http://www.w3.org/2000/svg" width="93.293" height="206.099" viewBox="0 0 93.293 206.099">
  <g id="J" transform="translate(-1471.754 -47.389)">
    <path id="Pfad_25" data-name="Pfad 25" d="M1477.53,227.093a3.9,3.9,0,0,1,.568-.327c.308.532-4.276,9.877-3.826,10.657.243.421,13.8-7.99,13.812-7.975.732,1.266-14.318,15.058-14.029,15.559.807,1.4,22.854-15.756,23.963-13.835.107.186-26.087,15.723-25.559,16.638.629,1.09,28.573-18.866,29.6-17.089.954,1.652-23.044,20.191-22.783,20.644,1.057,1.832,78.593-47.869,79.673-46,3.448,5.973-75.2,44.961-73.856,47.292,1.461,2.531,72.038-43.882,73.031-42.164,1.409,2.441-61.161,35.983-58.164,41.174,2.014,3.488,52.458-34.816,54.42-31.419.759,1.315-52.942,30.414-51.84,32.323,1.929,3.342,53.553-31.381,53.753-31.034.772,1.336-38.13,25.775-36.206,29.107.873,1.512,22.936-15.228,23.8-13.738.322.557-12.427,8.935-12.213,9.305.194.337,5.605-4.388,6.1-3.524" fill="none" stroke="#f7f7f7" stroke-linecap="round" stroke-linejoin="round" stroke-width="1.568"/>
    <path id="Pfad_26" data-name="Pfad 26" d="M1533.609,51.072c.007.012,5.408-3.2,5.441-3.141,0,0-2.452,8.31-2.446,8.32.446.773,12.661-8,12.959-7.481.672,1.164-16.083,15.011-15.553,15.929,1,1.735,23.586-15.262,24.3-14.028,1.178,2.041-24.24,19.134-23.133,21.051.071.124,25.512-15.034,25.644-14.806.879,1.523-26.758,17.019-26.367,17.695.23.4,28.993-18.1,29.581-17.078,1.217,2.108-25.8,21.724-25.211,22.736.5.873,21.353-12.595,21.469-12.395,1.014,1.758-23.3,19.543-23.146,19.809.566.981,24.467-14.273,24.531-14.163.749,1.3-27.527,21.052-26.313,23.155.307.532,26.99-18.474,28.242-16.305.23.4-27.865,22.737-27.865,22.737.993,1.719,25.549-14.762,25.554-14.754.8,1.381-23.658,15.568-22.882,16.912.47.813,24.536-14.341,24.612-14.21,1.3,2.248-27.814,23.936-27.814,23.936,1.142,1.978,23.6-15.663,24.486-14.137.635,1.1-25.339,18.98-24.077,21.165,1.1,1.9,24.849-15.785,25.472-14.707.187.324-22.913,17.947-22.8,18.143,1.248,2.162,23.657-14.77,24.139-13.936.82,1.421-28.525,19.453-27.608,21.042,1.225,2.121,26.01-17.728,27.184-15.7,0,0-25.188,18.354-24.291,19.907,0,0,22.752-15.261,23.673-13.667.138.24-27.122,19.006-27.01,19.2.809,1.4,26.256-18,27.487-15.87,1.067,1.849-28.5,19.192-27.147,21.538,1.17,2.025,26.386-15.319,26.423-15.255.589,1.021-27.885,24.4-27.667,24.772.615,1.065,25.871-17.546,27-15.589s-26.894,16.88-26.657,17.29c.162.281,29.661-19.008,30.477-17.6,1.095,1.9-25.918,20.312-25.918,20.312.826,1.432,24.665-15.165,25.066-14.472.639,1.107-28.04,19.714-27.149,21.257.781,1.353,23.665-15.045,24.263-14.009.718,1.244-23.78,15.177-22.578,17.258.363.628,21.7-14.839,22.7-13.106.081.141-24.641,16.829-24.631,16.846,1.128,1.953,25.519-15.874,26.013-15.018,1.225,2.122-25.3,18.487-24.742,19.458,1.076,1.863,24.725-15.729,25.355-14.638.683,1.184-28.066,19.219-26.98,21.1.049.086,23.3-14.8,23.884-13.789.465.8-26.954,19.592-25.535,22.05.088.152,29.6-17.134,29.616-17.1.176.3-30.873,20.874-30.74,21.1.826,1.431,29.834-18.26,30.283-17.483l-29.145,22.042c.262.453,30.087-17.371,30.087-17.371,1.468,2.543-31.2,22.1-30.25,23.742.569.985,24.135-16.138,25.089-14.485,1.435,2.485-29.728,18.708-28.874,20.188,1.217,2.108,32.779-19.644,33.09-19.1,1.422,2.462-39.244,25.786-38.855,26.46.307.532,33.7-21,34.369-19.843" fill="none" stroke="#f7f7f7" stroke-linecap="round" stroke-linejoin="round" stroke-width="1.568"/>
    <path id="Pfad_77" data-name="Pfad 77" d="M1536.077,180.871c0,39.162-13.647,49.546-36.788,49.546a61.528,61.528,0,0,1-21.657-3.858l-3.858,21.065c6.528,2.67,18.1,4.747,27.591,4.747,34.415,0,60.523-16.317,60.523-69.423V49.146h-25.811Z" fill="none" stroke="#f9f9f9" stroke-width="1.568"/>
  </g>
</svg>
