<svg xmlns="http://www.w3.org/2000/svg" width="146.238" height="203.657" viewBox="0 0 146.238 203.657">
  <g id="K" transform="translate(-1602.849 -47.39)">
    <path id="Pfad_27" data-name="Pfad 27" d="M1649.035,152.57c.985,1.706,25.195-15.762,25.721-14.85.29.5-21.041,12.956-20.2,14.408.1.176,18.287-12.043,18.93-10.929.9,1.56-15.41,16.665-15.324,16.815.522.9,19.832-11.855,20.007-11.551.392.678-22,16.013-22,16.013.88,1.525,22.993-13.984,23.3-13.452.759,1.314-16.529,14.567-16.425,14.747.388.672,20.028-11.795,20.129-11.621,0,0-21.247,19.725-20.855,20.4.461.8,23.278-14.6,23.78-13.728.15.26-16.808,16.553-15.988,17.973,1.042,1.8,22.221-13.531,22.525-13.005.095.166-21.832,16.58-21.792,16.649.226.393,22.628-13.616,22.867-13.2.736,1.276-23.7,13.715-22.623,15.576.629,1.09,22.929-13.964,23.243-13.419.332.574-19.018,14.456-19.005,14.478.409.709,18.576-12.741,19.449-11.229.6,1.041-18.1,16.535-17.624,17.366.817,1.415,18.938-11.351,19.119-11.038.829,1.437-14.624,14.318-14.292,14.892.753,1.3,17.463-11.271,17.978-10.379.431.746-20.544,13.421-19.7,14.876.027.047,22.406-14.5,23.083-13.327,0,0-18.674,17-18.017,18.139.353.612,23.057-14.6,23.616-13.635.842,1.458-21.344,16.338-20.581,17.659l23.728-13.7c.286.495-23.687,14.445-22.729,16.1.816,1.414,22.468-15.252,23.456-13.542.479.831-21.935,17.081-21.723,17.447,0,0,24.4-14.37,24.522-14.157.862,1.494-17.447,15.92-17.193,16.361.671,1.161,17.858-10.8,18.072-10.433.846,1.466-17.942,13.946-17.019,15.545.513.889,20.862-13,21.275-12.283.812,1.406-22.4,17.2-21.94,18.008.048.083,23.791-14.958,24.32-14.041.825,1.428-23.255,14.837-23.018,15.248.372.643,22.307-14.971,23.213-13.4.2.343-21.175,14.856-21.127,14.939.189.329,22.433-15.3,23.448-13.538.365.631-17.986,18.9-17.986,18.9.928,1.608,21.9-14.471,22.691-13.1.051.089-17.28,17.429-16.909,18.071.425.736,17.592-10.412,17.7-10.22.608,1.052-18.358,14.252-17.41,15.895.427.739,24.253-15.153,24.751-14.29.165.285-23.12,14.416-22.3,15.829.649,1.124,18.842-11.818,19.248-11.113.519.9-13.881,13.223-13.125,14.533.488.844,20.221-12.7,20.664-11.931.128.224-11.513,9.513-11.235,10s10.075-6.252,10.263-5.926c.126.217-7.983,5.653-7.64,6.248.461.8,7.439-4.665,7.6-4.388.13.227,2.429,4.548,2.539,4.737.048.083,3.467-2.1,3.51-2.027" fill="none" stroke="#f7f7f7" stroke-linecap="round" stroke-linejoin="round" stroke-width="1.568"/>
    <path id="Pfad_28" data-name="Pfad 28" d="M1709.526,49.862s.466-.381.515-.3c.628,1.088-16.248,15.708-15.33,17.3.577,1,30.616-17.722,30.636-17.688,1.788,3.1-41.5,29.788-40.8,31.013,1.728,2.993,50.084-34.4,52.458-30.286.234.4-57.711,32.551-56.563,34.539,1.3,2.259,58.339-38.6,60.467-34.911,2.734,4.737-73.634,48.271-72.884,49.57.8,1.384,59.692-36.348,60.508-34.935,3.176,5.5-69.093,41.68-67.853,43.827,1.2,2.079,59.494-36.232,60.309-34.82,1.64,2.841-71.8,40.993-68.314,47.035,2.022,3.5,52.7-34.978,54.671-31.564.873,1.511-61.032,34.7-59.765,36.9,2.123,3.677,58.752-34.43,58.972-34.048,1.415,2.452-73.553,42.513-70.021,48.63,1.83,3.169,50.262-33.182,52.065-30.059,1.316,2.279-53.95,32.159-53.076,33.674.977,1.693,45.711-32.179,48.217-27.838" fill="none" stroke="#f7f7f7" stroke-linecap="round" stroke-linejoin="round" stroke-width="1.568"/>
    <path id="Pfad_29" data-name="Pfad 29" d="M1603.92,51.072c.007.012,5.408-3.2,5.441-3.141,0,0-2.452,8.31-2.446,8.32.446.773,12.661-8,12.959-7.481.672,1.164-16.083,15.011-15.553,15.929,1,1.735,23.586-15.262,24.3-14.028,1.178,2.041-24.24,19.134-23.133,21.051.071.124,25.514-15.036,25.646-14.807.879,1.522-26.76,17.02-26.369,17.7.23.4,29-18.1,29.584-17.08,1.217,2.108-25.8,21.725-25.214,22.738.5.873,21.358-12.6,21.474-12.4,1.015,1.758-23.305,19.546-23.151,19.812.566.981,24.475-14.277,24.538-14.167.749,1.3-27.534,21.056-26.32,23.159.307.532,27-18.481,28.252-16.311.23.4-27.875,22.743-27.875,22.743.994,1.72,25.561-14.769,25.566-14.761.8,1.382-23.67,15.574-22.894,16.919.47.814,24.55-14.349,24.626-14.217,1.3,2.248-27.828,23.943-27.828,23.943,1.142,1.979,23.62-15.673,24.5-14.146.636,1.1-25.354,18.988-24.092,21.174,1.1,1.9,24.867-15.8,25.49-14.717.187.324-22.931,17.957-22.818,18.153,1.249,2.164,23.677-14.782,24.158-13.948.821,1.423-28.545,19.464-27.627,21.054,1.226,2.123,26.03-17.742,27.2-15.707,0,0-25.209,18.365-24.312,19.919,0,0,22.774-15.276,23.695-13.68.139.24-27.144,19.019-27.032,19.213.809,1.4,26.279-18.017,27.511-15.884,1.068,1.851-28.526,19.2-27.171,21.552,1.171,2.027,26.412-15.334,26.449-15.27.589,1.022-27.911,24.41-27.693,24.787.616,1.066,25.9-17.565,27.03-15.6s-26.923,16.9-26.686,17.306c.163.281,29.69-19.027,30.506-17.613,1.1,1.9-25.947,20.329-25.947,20.329,2.417,4.188,73.456-45.114,74.627-43.086,1.7,2.936-79.074,45.777-76.71,49.871,2,3.465,62.914-39.861,64.446-37.208,1.886,3.268-65.919,34.988-62.761,40.457.907,1.571,58.831-39.744,61.333-35.41.2.351-63.288,39.107-63.263,39.15,2.876,4.981,64.665-40.242,65.924-38.061,3.012,5.217-66.031,40.115-64.653,42.5,1.573,2.725,36.351-23.113,37.272-21.518.954,1.652-40.312,25.3-38.8,27.922.053.093,25.533-16.215,26.171-15.11.492.853-28.817,20.472-27.313,23.077.085.148,28.989-16.783,29.009-16.749.17.295-29.824,20.279-29.7,20.5.794,1.376,28.81-17.628,29.24-16.881L1606.458,202.2c.243.42,28.07-16.206,28.07-16.206,1.281,2.22-26.795,19.835-25.967,21.269.493.854,20.32-13.643,21.148-12.21,1.144,1.982-23.342,15.421-22.661,16.6.991,1.716,26.966-16.154,27.22-15.715,1.077,1.866-27.072,22.99-26.777,23.5.212.367,22.391-13.993,22.852-13.194.065.112-23.025,17.962-22.966,18.065,1.113,1.926,22.534-13.266,22.645-13.074.35.606-26.341,21.9-26.27,22.023.854,1.48,28.57-16.8,28.7-16.571.538.931-26.589,22.08-26.432,22.351.558.967,26.209-15.6,26.41-15.248.568.984-26.142,17.075-25.324,18.491,1.169,2.025,25.278-15.039,25.471-14.705,1.015,1.758-28.921,17.179-27.565,19.529.628,1.088,26.218-17.04,27.042-15.613.541.937-22.385,16.189-21.745,17.3.057.1,23.4-13.956,23.6-13.624,0,0-16.027,13.98-15.93,14.147.176.3,13.313-7.686,13.313-7.686.24.416,1.459,6.61,1.459,6.61.015.025.419-.275.433-.251" fill="none" stroke="#f7f7f7" stroke-linecap="round" stroke-linejoin="round" stroke-width="1.568"/>
    <path id="Pfad_78" data-name="Pfad 78" d="M1606.389,249.108H1632.2V172.862l18.987-21.955,65.863,98.2h30.558L1669.581,134l72.39-84.85h-32.042l-61.115,75.059c-5.044,6.527-10.384,13.648-15.724,21.361h-.89V49.147h-25.811Z" fill="none" stroke="#f9f9f9" stroke-width="1.568"/>
  </g>
</svg>
