<svg xmlns="http://www.w3.org/2000/svg" width="116.899" height="204.05" viewBox="0 0 116.899 204.05">
  <g id="L" transform="translate(-1765.13 -47.39)">
    <path id="Pfad_30" data-name="Pfad 30" d="M1766.2,51.072c.007.012,5.408-3.2,5.441-3.141,0,0-2.452,8.31-2.446,8.32.446.773,12.661-8,12.959-7.481.672,1.164-16.083,15.011-15.553,15.929,1,1.735,23.586-15.262,24.3-14.028,1.179,2.041-24.24,19.134-23.133,21.051.072.124,25.513-15.035,25.645-14.807.879,1.523-26.758,17.02-26.368,17.7.23.4,28.995-18.1,29.583-17.079,1.217,2.108-25.8,21.724-25.213,22.737.5.873,21.356-12.6,21.472-12.4,1.014,1.757-23.3,19.544-23.149,19.81.566.981,24.472-14.275,24.535-14.165.749,1.3-27.531,21.054-26.317,23.157.307.532,26.995-18.478,28.248-16.308.23.4-27.87,22.74-27.87,22.74.992,1.719,25.554-14.766,25.56-14.757.8,1.38-23.665,15.57-22.889,16.915.47.813,24.544-14.345,24.62-14.214,1.3,2.248-27.822,23.94-27.822,23.94,1.142,1.978,23.613-15.668,24.494-14.142.636,1.1-25.347,18.984-24.085,21.17,1.1,1.9,24.859-15.791,25.482-14.713.187.324-22.923,17.953-22.81,18.149,1.249,2.163,23.668-14.776,24.149-13.943.821,1.422-28.535,19.46-27.618,21.049,1.225,2.122,26.021-17.736,27.2-15.7,0,0-25.2,18.359-24.3,19.913,0,0,22.764-15.269,23.685-13.674.139.24-27.134,19.013-27.022,19.207.809,1.4,26.269-18.01,27.5-15.877,1.068,1.849-28.515,19.2-27.16,21.545,1.17,2.026,26.4-15.327,26.437-15.263.589,1.021-27.9,24.4-27.681,24.78.615,1.066,25.886-17.556,27.017-15.6s-26.91,16.888-26.673,17.3c.163.281,29.677-19.018,30.493-17.6,1.1,1.9-25.934,20.321-25.934,20.321.827,1.433,24.682-15.176,25.083-14.482.639,1.108-28.057,19.723-27.166,21.267.782,1.354,23.682-15.055,24.281-14.019.718,1.245-23.8,15.185-22.6,17.268.363.629,21.718-14.851,22.719-13.117.082.142-24.658,16.839-24.648,16.857,1.128,1.955,25.537-15.885,26.031-15.029,1.226,2.124-25.322,18.5-24.761,19.469,1.076,1.864,24.744-15.741,25.374-14.649.682,1.18-27.982,19.177-26.9,21.053.049.085,23.221-14.756,23.8-13.744.456.789-26.337,19.3-24.946,21.711.085.148,29.009-16.795,29.029-16.76.17.295-29.844,20.29-29.715,20.513.794,1.377,28.827-17.639,29.258-16.892L1768.739,202.2c.243.42,28.087-16.216,28.087-16.216,1.283,2.221-26.813,19.845-25.984,21.279.493.855,20.336-13.653,21.164-12.219,1.145,1.983-23.358,15.429-22.676,16.61.991,1.717,26.98-16.163,27.234-15.724,1.078,1.867-27.087,23-26.792,23.51.212.367,22.4-14,22.866-13.2.065.113-23.039,17.97-22.979,18.073,1.112,1.927,22.546-13.273,22.657-13.081.35.606-26.354,21.908-26.283,22.03.854,1.481,28.581-16.805,28.712-16.577.538.931-26.6,22.085-26.443,22.357.559.968,26.219-15.6,26.42-15.253.568.984-26.152,17.079-25.334,18.5,1.2,2.069,25.837-15.371,26.033-15.03,1.035,1.792-29.509,17.459-28.126,19.854.794,1.376,32.825-21.358,33.867-19.553.693,1.2-29.4,19.82-28.576,21.24.095.166,38.324-22.867,38.645-22.311,0,0-31.166,22.539-30.992,22.842.477.825,36.951-21.333,36.951-21.333,1.066,1.846-22.2,20.268-22.2,20.268.616,1.066,36.416-22.38,37-21.364.558.967-32.436,20.465-31.418,22.229,1.747,3.025,36.521-23.689,37.649-21.736,0,0-34.938,22.444-34.474,23.247.067.117,38.454-23.581,39.052-22.546.12.208-27,20.919-26.526,21.733.108.188,38.275-25.952,39.944-23.061,1.3,2.243-26.6,18.807-25.4,20.877,1.244,2.155,34.348-20.187,34.5-19.92.92,1.593-21.652,19.066-21.03,20.143.2.347,35.649-22.294,36.39-21.01.064.112-24.94,20.52-24.1,21.973.142.245,21.161-13.128,21.555-12.445.332.574-15.853,11.506-15.4,12.289.341.59,17.707-10.223,17.707-10.223.355.615-10.592,10.955-9.989,12,.065.113,8.84-5.548,9.033-5.215.046.08-1.213,4.066-1.092,4.277.013.021,2.529-1.546,2.566-1.482" fill="none" stroke="#f7f7f7" stroke-linecap="round" stroke-linejoin="round" stroke-width="1.568"/>
    <path id="Pfad_79" data-name="Pfad 79" d="M1768.67,249.108h111.254V227.451h-85.443V49.147H1768.67Z" fill="none" stroke="#f9f9f9" stroke-width="1.568"/>
  </g>
</svg>
