<svg xmlns="http://www.w3.org/2000/svg" width="210.062" height="203.462" viewBox="0 0 210.062 203.462">
  <g id="M" transform="translate(-15.337 -403.284)">
    <g id="Gruppe_28" data-name="Gruppe 28">
      <path id="Pfad_31" data-name="Pfad 31" d="M189.219,430.689c.837,1.45,19.977-12.348,20.329-11.737,1.091,1.889-21.608,15.054-20.869,16.333.908,1.573,20.508-12.21,20.668-11.932,0,0-23.624,19.336-22.421,21.421.364.629,25.259-15.815,25.793-14.891.831,1.44-27.128,18.412-26.266,19.906.183.316,24.275-16.347,25.285-14.6.98,1.7-21.112,15.172-21.088,15.215.511.884,17.579-12.637,18.656-10.771.036.062-22.784,17.223-22.452,17.8.509.882,24.859-16.076,25.6-14.784,1.015,1.758-22.769,14.173-22.067,15.389.219.379,21.183-14.658,22.234-12.837,1.181,2.046-23.912,17.487-23.02,19.032.825,1.43,23.338-14.447,23.759-13.718,1.163,2.014-26.423,16.652-25.266,18.656.567.981,21.938-15.22,23.044-13.3.188.326-21.187,17.21-20.3,18.75.45.78,22.619-14.847,23.393-13.506,1.434,2.484-27.746,20.457-26.7,22.264.2.345,27.98-17.314,28.483-16.444.937,1.622-26.889,19.763-25.984,21.33.115.2,26.344-15.21,26.344-15.21.016.029-28.005,20.408-27.077,22.016.085.147,26.314-15.821,26.586-15.35.349.605-26.136,18.633-25.318,20.05.631,1.094,25.51-15.6,25.887-14.946.856,1.483-27.637,19.484-26.687,21.13.576,1,25.022-14.681,25.124-14.505.414.718-24.653,18.557-23.8,20.035.35.606,25.131-15.518,25.567-14.762.366.634-27.568,20.98-26.276,23.218.651,1.127,24.214-15.843,25.021-14.445.7,1.205-20.677,19.934-20.3,20.593.821,1.421,20.048-12.611,20.5-11.834.379.658-21.17,14.224-20.3,15.729.149.259,20.536-12.552,20.837-12.03.109.188-22.985,16.934-22.26,18.189.941,1.63,25.328-14.771,25.392-14.66,1.224,2.121-26.9,21.132-26.124,22.473.25.432,24.157-13.947,24.157-13.947s-23.673,19-23.548,19.218c.145.25,25.3-14.61,25.3-14.61.708,1.225-28.807,21.041-27.321,23.613,1.008,1.746,24.77-15.343,25.221-14.561.86,1.488-23.947,17.579-22.864,19.455.826,1.43,22.97-14.451,23.485-13.559.177.306-24.3,14.96-23.675,16.051.056.1,22.784-15.871,23.96-13.834.728,1.262-21.451,20.32-21.415,20.381.406.7,21.23-12.34,21.265-12.278.448.775-22.437,19.371-21.425,21.124.688,1.191,22.215-14.579,22.974-13.264.41.71-24.311,19.881-24.125,20.2.7,1.212,25.412-14.671,25.412-14.671s-28.316,19.988-26.922,22.4c.179.309,25.435-15.127,25.627-14.8.461.8-24.022,15.1-22.856,17.12.295.511,24.8-15.6,25.355-14.639.568.984-26.844,17.647-25.593,19.813.649,1.124,22.886-15.57,23.907-13.8.209.362-19.956,14.1-18.969,15.808.32.554,21.367-13.016,21.661-12.507.432.749-9.987,12.537-9.55,13.294.128.221,7.78-4.765,7.9-4.56.107.184.907,3.064,1,3.228.021.037,2.2-1.307,2.214-1.279" fill="none" stroke="#f7f7f7" stroke-linecap="round" stroke-linejoin="round" stroke-width="1.568"/>
      <path id="Pfad_32" data-name="Pfad 32" d="M174.154,407.123c.046.079,5.253-3.089,5.277-3.047.056.1-2.528,3.834-2.368,4.112.034.058,4.309-2.975,4.52-2.609.611,1.057-8.548,12.767-8.489,12.869.6,1.035,22.911-13.692,23.112-13.344.5.857-28.253,19.624-28.253,19.624,1.306,2.262,33.231-20.238,33.687-19.449,1.362,2.36-32.005,23.31-31.818,23.635.76,1.316,40.593-23.893,40.791-23.551,0,0-50.3,35.487-49.47,36.926,1,1.727,47.738-30.069,48.824-28.188.386.669-51.451,33.584-49.345,37.232,1.3,2.246,27.406-16.7,27.785-16.041.132.228-30.974,21.823-30.919,21.918.286.5,28.229-16.994,28.53-16.472.985,1.706-32.115,17.735-30.677,20.226.8,1.387,28.741-17.518,29.141-16.825.478.829-28.255,19.776-28.236,19.808.527.913,24.524-16.754,25.648-14.808.959,1.662-31.426,23.565-30.66,24.892,1.071,1.856,25.618-15.337,25.855-14.927,1.421,2.461-27.91,21.443-27.342,22.427,1,1.734,24.434-15.689,25.119-14.5.641,1.111-31.422,18.757-30.173,20.921.036.062,29.5-19.121,30.4-17.554,0,.006-33.777,24.737-32.694,26.613.477.828,30.5-19.356,31.257-18.046,1.3,2.26-34.856,23.167-33.672,25.216l31.5-18.187c.411.712-34.629,19.8-33.254,22.183,1.108,1.918,29.87-20.339,31.209-18.018.722,1.249-34.292,23.968-33.973,24.52,0,0,32.022-18.873,32.188-18.584,1.42,2.458-31.112,23.431-30.693,24.156.9,1.557,25.211-15.217,25.5-14.721,1.371,2.374-31.053,20.2-29.558,22.785.681,1.179,27.847-17.342,28.394-16.394,1.2,2.076-34.451,23.645-33.764,24.835.063.109,30.39-19.148,31.084-17.947,1.116,1.934-31.812,19.584-31.491,20.14.485.839,28.648-19.267,29.829-17.221.278.48-30.18,20.011-30.114,20.127.246.425,28.526-19.5,29.839-17.227.578,1-31.592,26.755-31.592,26.755,1.164,2.015,27.236-18.015,28.228-16.3.08.138-29.831,24.194-29.252,25.2.512.886,22.038-13.032,22.172-12.8.874,1.513-27.864,18.78-26.5,21.143.5.859,27.726-17.344,28.3-16.342" fill="none" stroke="#f7f7f7" stroke-linecap="round" stroke-linejoin="round" stroke-width="1.568"/>
      <path id="Pfad_33" data-name="Pfad 33" d="M52.725,430.88c.023.041,16.339-10.788,16.926-9.771.676,1.171-17.912,16.508-16.924,18.219.367.636,20.06-11.611,20.073-11.589.849,1.471-17.433,16.748-17.1,17.33.615,1.065,17.18-11.87,18.025-10.408.08.14-19.194,12.057-18.8,12.737.419.727,19.313-12.727,20-11.543.827,1.431-19.366,18.147-19.139,18.54.264.457,20.525-12.473,20.8-12.006,1,1.741-20.258,15.44-19.866,16.12.406.7,21.223-12.889,21.5-12.413.459.795-16.928,15.118-15.953,16.806.708,1.227,16.6-11.181,17.294-9.985.277.48-18.6,12.2-18.194,12.9.752,1.3,22.045-12.909,22.124-12.773.472.819-21.494,17.89-20.315,19.932.695,1.2,17.86-11.893,18.545-10.706.435.753-14.329,14.828-14.04,15.33.386.668,15.4-11.176,16.39-9.463.155.268-14.272,15.344-14.086,15.667.316.547,15.352-11.149,16.342-9.435.195.337-19.011,17.616-18.876,17.849.269.466,21.836-12.607,21.836-12.607.962,1.667-21.205,17.433-20.048,19.437L95.805,483.7c1.01,1.749-24.92,15.417-24.154,16.743.126.219,22.2-14.572,22.961-13.256.968,1.676-20.51,15.952-19.767,17.241.52.9,17.707-12.323,18.616-10.748.185.321-19.616,15.8-18.557,17.63.183.316,22.733-14.147,23.176-13.38.709,1.227-21.458,19.8-20.768,21,.472.82,19.846-12.922,20.48-11.824.094.161-20.792,15.5-20.576,15.875.586,1.015,22.93-13.281,22.948-13.249.359.621-18.84,18.233-18.807,18.289.875,1.517,22.971-14.512,23.512-13.574.233.4-21.55,17.3-21.34,17.665.366.633,18.57-12.984,19.55-11.287.516.894-17.475,11.9-16.628,13.369.505.875,17.851-11.9,18.541-10.7.464.8-20.734,19.073-20.734,19.073.242.418,22.284-14.954,23.189-13.388.23.4-22.929,15.188-22.929,15.188.912,1.58,21.659-12.589,21.695-12.526.492.851-20.225,12.641-19.292,14.257.1.168,23.365-15.471,24.224-13.984.01.017-23.324,14.669-22.953,15.311.772,1.336,20.447-14.168,21.47-12.4.847,1.468-20.426,16.114-20.075,16.722.887,1.536,23.16-15.091,23.9-13.8,1.05,1.816-21.3,17.454-21.3,17.454.622,1.078,18.57-11.755,19.018-10.98.113.2-20.269,17.725-19.419,19.2.324.563,19.882-13.013,20.546-11.862C112.939,552.8,93,565.34,93.71,566.565c.659,1.139,18.946-12.064,19.433-11.22.754,1.307-15.371,17.356-15.371,17.356.588,1.019,20.848-12.685,21.129-12.2.256.444-18.662,13.6-17.883,14.949.281.487,18.409-12.578,19.253-11.116.518.9-22.892,13.788-22.1,15.165.325.563,20.583-13.777,21.4-12.356.015.026-20.614,12.816-20,13.881.215.371,19.835-12.661,20.359-11.754.158.275-19.935,18.141-19.6,18.719,1.648,2.854,38.469-23.336,38.957-22.491l-33.175,28.057c1.43,2.477,29.444-17.428,29.63-17.1.368.635-28.022,21.021-27.757,21.479,0,0,26.183-17.953,27.411-15.827.471.817-25.87,20.163-24.48,22.57.537.931,18.718-12.342,19.383-11.191,0,0-16.813,10.965-16.386,11.706,0,.006,14.481-9.057,14.782-8.535.347.6-6.613,8.553-6.544,8.672.04.07,3.45-1.991,3.45-1.991" fill="none" stroke="#f7f7f7" stroke-linecap="round" stroke-linejoin="round" stroke-width="1.568"/>
      <path id="Pfad_34" data-name="Pfad 34" d="M29.432,407.106c.007.012,5.439-3.218,5.473-3.16,0,0-2.986,8.618-2.98,8.629.464.8,13.171-8.321,13.481-7.783.707,1.224-17.137,15.558-16.58,16.523,1.043,1.8,24.573-15.9,25.314-14.615,1.245,2.157-25.878,19.934-24.708,21.96.1.171,35.079-20.671,35.26-20.358,1.191,2.064-36.692,22.434-36.163,23.351.325.562,39.273-24.587,40.1-23.152,1.669,2.892-37.129,27.764-36.326,29.153.768,1.331,34.8-20.5,34.981-20.2,1.546,2.679-37.361,27.475-37.127,27.881.5.861,21.339-12.449,21.394-12.352.688,1.19-24.868,19.748-23.754,21.678.274.474,24.342-16.633,25.459-14.7.213.369-25.565,21.409-25.565,21.409.9,1.551,23.033-13.308,23.038-13.3.725,1.256-21.341,14.392-20.635,15.615.426.738,22.166-12.957,22.235-12.837,1.225,2.122-26.01,22.893-26.01,22.893,1.049,1.816,21.573-14.323,22.382-12.922.6,1.039-23.692,18.191-22.5,20.254,1.018,1.764,23.02-14.623,23.6-13.623.176.3-21.393,17.085-21.287,17.269,1.165,2.017,21.96-13.715,22.409-12.938.784,1.358-27.125,18.74-26.249,20.258,1.149,1.99,24.492-16.684,25.593-14.776,0,0-23.986,17.747-23.127,19.235,0,0,21.361-14.339,22.23-12.835C49.5,483.9,23.433,502,23.54,502.186c.766,1.326,24.963-17.1,26.128-15.085,1.035,1.791-27.527,18.725-26.214,21,1.113,1.928,25.157-14.605,25.192-14.544.579,1-27.289,24.06-27.075,24.43.589,1.021,24.855-16.852,25.938-14.975C48.6,504.9,21.548,519.37,21.777,519.767c.155.269,28.665-18.359,29.448-17,1.07,1.854-25.279,19.942-25.279,19.942.8,1.38,23.737-14.595,24.123-13.927.627,1.087-27.486,19.431-26.611,20.946.755,1.308,22.818-14.509,23.4-13.508.7,1.216-23.192,14.9-22.017,16.935.351.608,20.913-14.313,21.882-12.635.08.138-24.013,16.467-24,16.484,1.093,1.893,24.738-15.387,25.217-14.559,1.207,2.091-24.874,18.261-24.322,19.217,1.044,1.808,23.991-15.263,24.6-14.2.673,1.166-27.6,18.987-26.529,20.839.048.083,22.511-14.307,23.079-13.325.452.784-26.134,19.205-24.752,21.6.084.144,28.343-16.409,28.363-16.376.168.291-29.42,20.05-29.293,20.27.775,1.342,28.2-17.252,28.62-16.524l-26.818,20.7c.237.411,27.491-15.872,27.491-15.872,1.277,2.21-26.669,19.771-25.845,21.2.483.836,19.81-13.309,20.621-11.905,1.131,1.959-23.062,15.276-22.389,16.443.972,1.683,26.471-15.857,26.72-15.426,1.08,1.871-27.157,23.037-26.862,23.549.209.361,21.964-13.728,22.418-12.943C43.1,569.8,20.1,587.6,20.157,587.7c1.1,1.9,22.139-13.034,22.248-12.845.351.608-26.443,21.96-26.372,22.082.843,1.46,28.231-16.6,28.36-16.374.541.937-26.763,22.178-26.606,22.451.552.957,25.927-15.427,26.126-15.083.507.878-23.112,15.528-22.382,16.792,1.024,1.774,22.109-13.154,22.278-12.862.689,1.193-19.018,12.469-18.1,14.063.391.678,16.827-10.9,17.341-10.012.222.385-7.431,8.426-7.169,8.881.02.033,8.65-5.142,8.714-5.031,0,0-3.185,5.505-3.156,5.556a1.865,1.865,0,0,0,.3-.172" fill="none" stroke="#f7f7f7" stroke-linecap="round" stroke-linejoin="round" stroke-width="1.568"/>
    </g>
    <path id="Pfad_80" data-name="Pfad 80" d="M196.889,605.122h25.218L209.646,405.161H176.715l-35.6,96.717c-8.9,25.218-16.021,47.172-21.065,67.346h-.89c-5.043-20.768-11.867-42.722-20.174-67.346L64.867,405.161H31.936L17.992,605.122H42.616l5.34-85.74c1.781-29.965,3.264-63.489,3.857-88.41h.594c5.636,23.734,13.647,49.546,23.141,77.729l32.338,95.234h19.58l35.3-97.013c10.087-27.592,18.394-52.513,25.218-75.95h.89c-.3,24.921,1.483,58.445,2.967,86.334Z" fill="none" stroke="#f9f9f9" stroke-width="1.568"/>
  </g>
</svg>
