<svg xmlns="http://www.w3.org/2000/svg" width="156.915" height="204.062" viewBox="0 0 156.915 204.062">
  <g id="N" transform="translate(-259.8 -403.194)">
    <path id="Pfad_37" data-name="Pfad 37" d="M260.872,407.087c.007.012,5.408-3.2,5.44-3.141,0,0-2.451,8.31-2.445,8.32.446.772,12.646-7.988,12.944-7.473.672,1.164-16.067,15-15.538,15.921,1,1.733,23.558-15.244,24.269-14.012,1.177,2.039-24.21,19.12-23.1,21.035.086.149,30.546-18,30.7-17.727,1.041,1.8-31.888,19.816-31.426,20.616.286.495,35.057-21.926,35.787-20.661,1.47,2.544-32.123,25.1-31.417,26.319s31.308-18.447,31.469-18.168c1.4,2.415-33.358,25.216-33.146,25.582.851,1.475,37.425-21.828,37.521-21.663,1.065,1.845-41.029,27.665-39.3,30.655.266.461,23.721-16.2,24.806-14.322.2.355-24.428,20.754-24.428,20.754.873,1.513,22.463-12.98,22.467-12.972.7,1.209-20.475,13.953-19.8,15.13.417.721,21.638-12.647,21.705-12.531,1.181,2.046-24.907,22.257-24.907,22.257,1.028,1.781,21.125-14.028,21.918-12.655.578,1-22.657,17.7-21.509,19.683,1,1.731,22.605-14.361,23.172-13.379.17.3-20.6,16.637-20.5,16.815,1.145,1.983,21.555-13.464,22-12.7.762,1.321-26.318,18.33-25.466,19.806,1.13,1.956,24.1-16.415,25.184-14.54,0,0-23.122,17.312-22.291,18.752,0,0,20.958-14.071,21.811-12.593.13.225-25.253,17.944-25.148,18.126.752,1.3,24.553-16.82,25.7-14.837,1,1.74-26.632,18.3-25.358,20.505,1.093,1.892,24.7-14.339,24.733-14.279.559.968-26.183,23.439-25.977,23.8.577,1,24.359-16.513,25.42-14.675s-25.3,15.989-25.076,16.376c.153.264,28.147-18.02,28.913-16.693,1.036,1.794-24.354,19.409-24.354,19.409.777,1.347,23.164-14.244,23.541-13.591.607,1.05-26.47,18.911-25.624,20.376.736,1.274,22.2-14.119,22.764-13.143.675,1.168-22.208,14.436-21.079,16.392.342.592,20.27-13.88,21.213-12.247.077.133-23.152,15.971-23.142,15.987,1.062,1.841,24.062-14.967,24.528-14.161,1.159,2.008-23.788,17.683-23.258,18.6,1.014,1.756,23.279-14.81,23.873-13.783.647,1.122-26.427,18.406-25.4,20.187.046.08,21.754-13.83,22.3-12.878.432.749-24.766,18.559-23.446,20.845.08.139,27.511-15.927,27.529-15.894.163.281-28.338,19.435-28.216,19.647.749,1.3,27.354-16.73,27.761-16.027l-25.58,19.984c.229.4,26.59-15.352,26.59-15.352,1.217,2.109-25.274,19.054-24.487,20.415.464.8,18.887-12.706,19.667-11.355,1.075,1.862-21.82,14.637-21.179,15.746.934,1.618,25.5-15.274,25.738-14.86,1.027,1.778-25.577,22.159-25.3,22.646.2.346,20.937-13.092,21.371-12.339.062.106-21.541,17.113-21.485,17.21,1.049,1.815,21.06-12.4,21.164-12.219.333.577-24.856,21.052-24.789,21.168.8,1.395,27.1-15.93,27.22-15.715.512.885-25.1,21.237-24.951,21.495.526.912,24.739-14.72,24.929-14.392.537.93-24.616,16.3-23.843,17.635,1.1,1.908,23.807-14.164,23.989-13.849.964,1.669-27.371,16.442-26.082,18.673.591,1.025,24.783-16.1,25.559-14.757.508.879-20.863,15.4-20.262,16.441.054.092,21.935-13.078,22.114-12.768,0,0-14.535,13.136-14.446,13.29.157.272,11.829-6.829,11.829-6.829.211.366,1.573,5.753,1.573,5.753.013.023.306-.205.319-.184" fill="none" stroke="#f7f7f7" stroke-linecap="round" stroke-linejoin="round" stroke-width="1.568"/>
    <g id="Gruppe_18" data-name="Gruppe 18">
      <path id="Pfad_35" data-name="Pfad 35" d="M386.784,407c.035.063,5.047-2.957,5.065-2.924.04.067-.987,3.052-.874,3.249.028.046,2.864-2.037,3.029-1.748.413.712-3.313,9.789-3.274,9.858.472.815,17.748-10.613,17.907-10.339.383.664-21.5,15.724-21.5,15.724.995,1.724,25.757-15.672,26.1-15.07.969,1.676-21.906,17.6-21.772,17.836.437.758,22.8-13.426,22.913-13.229,0,0-28.179,23.487-27.683,24.346.52.9,25.966-16.3,26.533-15.318.2.344-24.051,20.125-22.966,22,1.173,2.034,24.9-15.169,25.246-14.576.113.2-26.528,19.273-26.479,19.355.255.442,25.3-15.23,25.572-14.766.859,1.487-27.8,15.674-26.544,17.841.707,1.226,25.586-15.589,25.94-14.976.4.694-23.412,16.987-23.4,17.014.46.8,21.153-14.479,22.133-12.78.771,1.333-24.4,19.858-23.784,20.923.918,1.589,21.574-12.924,21.777-12.572,1.094,1.894-20.6,17.523-20.16,18.279.845,1.463,20.034-12.9,20.612-11.9.517.9-25.037,15.628-24.028,17.375.03.052,24.944-16.153,25.7-14.839,0,0-25.218,20.355-24.378,21.81.4.685,25.584-16.216,26.209-15.131,1.031,1.787-26.9,19.147-25.965,20.767l26.3-15.185c.333.578-27.858,16.489-26.742,18.424.912,1.58,24.912-16.932,26.017-15.02.576,1-26.909,19.853-26.654,20.294,0,0,26.926-15.863,27.064-15.625,1.092,1.895-23.155,19.057-22.832,19.617.747,1.294,20.337-12.292,20.575-11.88,1.065,1.844-23.419,16.56-22.258,18.57.571.99,23.27-14.495,23.73-13.7.975,1.688-27.487,19.92-26.93,20.888.055.093,26.121-16.437,26.708-15.421.939,1.627-26.6,16.693-26.329,17.162.41.713,24.565-16.5,25.57-14.763.231.4-24.829,16.948-24.773,17.044.209.362,24.636-16.82,25.759-14.873.462.8-24.262,22.524-24.262,22.524,1.02,1.763,23.952-15.834,24.82-14.33.065.111-23.31,20.679-22.838,21.494.461.8,19.465-11.516,19.584-11.307.74,1.281-23.076,16.5-21.923,18.5.459.8,25.883-16.179,26.42-15.252.184.322-26.2,15.959-25.284,17.55.694,1.2,20.354-12.758,20.789-12,.81,1.4-24.13,18.16-22.949,20.206.675,1.169,26.488-16.709,27.1-15.647.25.432-24.11,16.182-23.57,17.115.514.891,20.54-12.669,20.89-12.061.326.563-22.239,12.62-21.35,14.163,1.051,1.818,20.051-12.418,20.415-11.785.67,1.159-21.211,17.159-20.653,18.125.47.815,23.265-14.392,23.682-13.672,1.25,2.167-25.56,22.148-25.1,22.944.45.779,23.912-14.647,24.276-14.016.978,1.692-20.155,17.52-19.825,18.093.9,1.564,17.088-11.271,17.7-10.218" fill="none" stroke="#f7f7f7" stroke-linecap="round" stroke-linejoin="round" stroke-width="1.568"/>
      <path id="Pfad_36" data-name="Pfad 36" d="M286.86,436.908c.024.041,16.838-11.116,17.442-10.07.651,1.128-17.041,16.089-16.089,17.738.379.656,20.667-11.963,20.68-11.941.826,1.431-16.814,16.413-16.488,16.979.637,1.1,17.815-12.306,18.69-10.791.082.142-19.563,12.252-19.162,12.946.434.751,19.971-13.164,20.678-11.939.808,1.4-18.8,17.834-18.58,18.218.273.474,21.235-12.906,21.515-12.422,1,1.738-20.2,15.411-19.812,16.089.421.729,21.953-13.334,22.238-12.839.447.773-16.365,14.85-15.415,16.494.735,1.273,17.337-11.663,18.053-10.423.282.489-18.957,12.393-18.548,13.1.781,1.352,22.8-13.354,22.886-13.214.461.8-20.823,17.572-19.674,19.563.721,1.248,18.6-12.376,19.305-11.146.424.735-13.839,14.564-13.557,15.052.4.692,16.116-11.671,17.141-9.9.15.259-13.708,15.031-13.527,15.344.326.566,16.045-11.629,17.069-9.855.19.33-18.516,17.337-18.384,17.566.278.48,22.531-13.009,22.531-13.009.935,1.62-20.476,17.085-19.351,19.034l27.22-15.715c1.016,1.76-25.074,15.5-24.3,16.83.13.226,22.808-14.973,23.589-13.619.951,1.647-20.084,15.739-19.354,17,.534.925,18.264-12.7,19.2-11.084.18.312-18.941,15.474-17.911,17.258.187.323,23.257-14.475,23.711-13.69.681,1.18-20.383,19.246-19.721,20.393.485.84,20.375-13.264,21.025-12.139.093.161-20.632,15.414-20.418,15.784.6,1.043,23.507-13.616,23.526-13.583.348.6-18.111,17.814-18.079,17.87.9,1.562,23.6-14.915,24.159-13.949.231.4-21.255,17.138-21.048,17.5.378.654,19.228-13.437,20.239-11.685.517.9-17.5,11.915-16.654,13.385.522.9,18.541-12.351,19.254-11.116.454.786-20.2,18.765-20.2,18.765.25.433,23-15.443,23.938-13.821.234.4-23.336,15.422-23.336,15.422.945,1.636,22.413-13.027,22.451-12.962.5.86-20.442,12.745-19.5,14.378.1.174,24.1-15.969,24.99-14.428.01.018-23.734,14.891-23.356,15.546.8,1.385,21.179-14.678,22.24-12.84.842,1.457-20.293,16.039-19.944,16.644.92,1.593,23.911-15.589,24.684-14.251,1.043,1.808-21.176,17.382-21.176,17.382.646,1.118,19.338-12.238,19.8-11.433.11.19-19.627,17.4-18.8,18.837.338.585,20.643-13.51,21.332-12.316.608,1.052-19.4,13.623-18.7,14.852.684,1.184,19.713-12.55,20.219-11.674.729,1.263-14.666,16.949-14.666,16.949.611,1.059,21.617-13.154,21.909-12.649.256.444-18.628,13.585-17.851,14.931.292.506,19.158-13.088,20.036-11.567.526.91-23.264,13.974-22.456,15.373.338.584,21.33-14.286,22.184-12.808.015.026-21,13.011-20.369,14.1.214.371,19.856-12.676,20.381-11.767.149.259-18.639,17.432-18.322,17.98.8,1.392,18.294-11.111,18.531-10.7l-11.184,15.362c.8,1.392,14.981-8.891,15.086-8.71.183.318-12.387,12.3-12.255,12.53,0,0,35.23-24.1,36.856-21.279.656,1.137-37.987,25.894-36.05,29.249.969,1.677,33.639-22.189,34.837-20.113,0,0-35.577,20.765-34.7,22.28.009.017,33.424-20.934,34.132-19.707,1.269,2.2-32.389,23.011-32.136,23.448.348.6,31.3-18.069,31.3-18.069.893,1.546-25.217,17.383-24.19,19.162.467.809,28.044-17.139,28.454-16.428,1.05,1.818-28.312,22.335-27.4,23.921.587,1.018,28.072-16.733,28.3-16.339.42.728-14.88,15.249-14.847,15.307.109.188,13.313-8.438,13.638-7.874.363.628-3.555,8.07-3.451,8.249,0,0,2.075-1.264,2.1-1.214" fill="none" stroke="#f7f7f7" stroke-linecap="round" stroke-linejoin="round" stroke-width="1.568"/>
      <path id="Pfad_81" data-name="Pfad 81" d="M287.668,605.122V519.679c0-33.229-.593-57.259-2.077-82.477l.89-.3c10.087,21.657,23.438,44.5,37.382,66.753l63.489,101.464H413.46V405.161H389.132v83.663c0,31.152.594,55.479,2.967,82.18l-.593.3a566.106,566.106,0,0,0-35.9-64.973L291.525,405.161H263.34V605.122Z" fill="none" stroke="#f9f9f9" stroke-width="1.568"/>
    </g>
  </g>
</svg>
