<svg xmlns="http://www.w3.org/2000/svg" width="187.59" height="209.509" viewBox="0 0 187.59 209.509">
  <g id="O" transform="translate(-446.552 -401.037)">
    <g id="Gruppe_30" data-name="Gruppe 30">
      <path id="Pfad_39" data-name="Pfad 39" d="M486.119,419.6c.12.209,18.117-11.791,18.693-10.793,0,0-33.8,26.358-33.773,26.408,1.966,3.406,55.206-34.908,56.52-32.632,2.438,4.222-68.638,42.14-66.716,45.469,3.134,5.428,74.956-48.422,77.184-44.562,3.692,6.394-84.814,48.652-81.346,54.66.266.46,94.609-55.749,95.1-54.9,3.139,5.438-98.523,56.134-97.128,58.55.894,1.548,101.527-63.891,103.81-59.935,4.409,7.637-104.918,63.862-102.8,67.532.75,1.3,33.867-19.952,34.04-19.653,1.563,2.707-37.8,27.72-37.559,28.13.761,1.318,33.314-19.431,33.4-19.283,1,1.736-38.354,26.356-36.73,29.17.381.659,32.88-22.571,34.433-19.88.281.486-34.851,26.77-34.851,26.77,1.172,2.03,30.2-17.448,30.2-17.438.956,1.655-28.746,18.148-27.815,19.76.542.938,28.495-16.654,28.583-16.5,1.467,2.541-32.029,26.368-32.029,26.368,1.264,2.19,26.265-17.416,27.24-15.727.694,1.2-28.061,20.284-26.683,22.67,1.177,2.039,26.665-16.937,27.333-15.781.2.344-24.482,18.837-24.362,19.045,1.313,2.273,24.957-15.577,25.462-14.7.844,1.461-29.4,19.9-28.454,21.532,1.263,2.187,26.781-18.259,27.992-16.161,0,0-25.243,18.381-24.345,19.937,0,0,23.008-15.431,23.938-13.82.137.238-26.811,18.829-26.7,19.021.807,1.4,26.21-17.969,27.439-15.842,1.026,1.778-27.3,18.614-25.992,20.872,1.146,1.985,25.878-15.025,25.914-14.962.544.94-25.288,22.935-25.087,23.283.588,1.018,24.786-16.806,25.867-14.934,1.064,1.843-25.237,15.954-25.014,16.34.154.267,28.437-18.209,29.212-16.865.988,1.711-23.1,18.683-23.1,18.683.776,1.343,23.1-14.2,23.471-13.551.567.981-24.514,17.912-23.724,19.279.723,1.252,21.783-13.854,22.336-12.9.619,1.072-20.177,13.48-19.141,15.274.332.576,19.635-13.455,20.552-11.866.072.124-21.488,15.011-21.479,15.027,1.028,1.78,23.277-14.478,23.726-13.7,1.031,1.784-20.813,16.1-20.342,16.919.97,1.679,22.246-14.154,22.813-13.171s-22.786,16.6-21.885,18.158c.044.076,20.486-13.03,21.006-12.128.357.617-19.661,16.144-18.572,18.03.076.131,25.956-15.026,25.973-14.995.144.249-24.995,17.537-24.886,17.725.7,1.209,25.738-15.734,26.116-15.078l-21,17.34c.213.367,24.843-14.343,24.843-14.343.976,1.691-19.556,16.111-18.926,17.2.431.746,17.164-11.579,17.887-10.327.885,1.533-17.636,12.483-17.109,13.4.866,1.5,23.757-14.229,23.979-13.845.775,1.343-18.1,18-17.887,18.368.187.325,19.458-12.175,19.866-11.469.048.083-16.343,14.139-16.3,14.216,1,1.727,19.888-11.712,19.987-11.54.254.439-17.968,17.113-17.917,17.2.791,1.371,26.7-15.7,26.818-15.484.391.676-18.156,17.309-18.042,17.507.549.95,25.756-15.326,25.953-14.984.479.829-21.705,14.811-21.016,16,1.2,2.084,26.021-15.481,26.219-15.138.91,1.576-25.719,15.657-24.5,17.762.684,1.185,28.45-18.5,29.348-16.944.547.948-22.686,16.344-22.038,17.466.079.137,32.056-19.124,32.323-18.662,0,0-27.3,20.352-27.143,20.62.483.836,37.436-21.613,37.436-21.613,1.185,2.052-25.17,21.984-25.17,21.984,1.486,2.573,88.623-54.44,90.04-51.985,1.453,2.517-87.639,48.56-84.985,53.157,3.783,6.552,78.916-51.2,81.359-46.973,0,0-79.057,46.623-78.034,48.4.131.226,72.87-44.739,74.025-42.738.25.433-59.8,38.685-58.82,40.378.147.255,51.088-34.729,53.354-30.8,1.418,2.456-29.785,19.745-28.477,22.01.466.809,11.027-6.5,11.085-6.4" fill="none" stroke="#f7f7f7" stroke-linecap="round" stroke-linejoin="round" stroke-width="1.568"/>
    </g>
    <g id="Gruppe_19" data-name="Gruppe 19">
      <path id="Pfad_38" data-name="Pfad 38" d="M517.223,427.121c.053.092,39-25.648,40.356-23.3.769,1.331-21.1,18.04-19.981,19.985.584,1.011,30.977-17.931,31-17.9.9,1.555-18.7,17.433-18.342,18.049.842,1.458,23.892-16.467,25.05-14.463.1.174-24.323,14.785-23.829,15.64.557.966,25.429-16.782,26.338-15.207.814,1.41-19,17.942-18.772,18.329.322.558,24.819-15.09,25.148-14.52,1.049,1.818-21.243,15.971-20.834,16.68.478.828,24.712-15.017,25.037-14.455.436.755-15.856,14.608-14.929,16.213.8,1.388,19.159-12.864,19.94-11.512.3.515-20.044,12.969-19.612,13.717.843,1.461,24.483-14.338,24.571-14.186.451.782-20.321,17.332-19.194,19.284.763,1.321,19.795-13.164,20.546-11.862.426.737-13.889,14.591-13.606,15.081.42.727,17.141-12.382,18.217-10.518.154.266-14.174,15.291-13.989,15.611.343.594,17.076-12.343,18.152-10.48.2.345-19.531,17.909-19.393,18.149.293.506,23.731-13.7,23.731-13.7,1,1.729-22.191,17.9-20.989,19.98l28.654-16.544c1.084,1.877-26.839,16.4-26.017,17.82.139.241,24.29-15.956,25.127-14.507,1.047,1.815-22.48,16.949-21.676,18.343.578,1,19.976-13.866,20.986-12.116.205.355-22.13,16.988-20.959,19.017.205.355,25.342-15.78,25.84-14.918.8,1.378-24.774,21.523-24,22.863.542.94,22.914-14.909,23.641-13.649.109.187-24.414,17.514-24.165,17.947.681,1.178,26.356-15.267,26.378-15.229.428.742-23.392,20.845-23.352,20.913,1.038,1.8,26.855-16.988,27.5-15.875.282.488-26.631,20.134-26.378,20.573.443.767,22.813-15.9,24-13.854.664,1.149-23.041,14.558-21.952,16.445.618,1.071,22.5-14.945,23.348-13.48.59,1.022-27.505,22.983-27.505,22.983.3.528,27.617-18.583,28.759-16.6.289.5-29.117,18.759-29.117,18.759,1.164,2.015,27.466-15.964,27.513-15.884.653,1.132-27.391,16.071-26.151,18.218.126.218,29.318-19.493,30.429-17.568.013.022-30.377,18.492-29.9,19.323,1.009,1.747,26.612-18.457,27.951-16.138,1.161,2.011-29.048,20.789-28.566,21.623,1.194,2.069,30.144-19.72,31.146-17.983,1.466,2.538-30.848,22.967-30.848,22.967.867,1.5,26.538-16.763,27.162-15.682.171.295-33.111,24.132-31.826,26.358.483.836,29.487-19.3,30.474-17.594.97,1.679-32.258,20.064-31.125,22.027,1.019,1.765,29.765-18.925,30.519-17.62,1.4,2.43-33.133,27.611-33.133,27.611,1.014,1.756,34.993-21.322,35.477-20.483.5.863-38.567,23.4-37.055,26.019.526.91,34.688-23.676,36.268-20.94.965,1.671-43.658,24.19-42.175,26.758.64,1.109,38.628-26.04,40.246-23.236.031.053-43.7,24.637-42.433,26.834.433.752,39.709-25.374,40.769-23.538.376.651-54.447,34.3-53.653,35.673,2.071,3.586,48.568-29.455,49.181-28.394" fill="none" stroke="#f7f7f7" stroke-linecap="round" stroke-linejoin="round" stroke-width="1.568"/>
      <path id="Pfad_82" data-name="Pfad 82" d="M539.841,422.962c43.018,0,63.786,41.535,63.786,81.29,0,45.392-23.141,83.07-64.082,83.07-40.646,0-63.787-38.272-63.787-80.993C475.758,462.42,497.12,422.962,539.841,422.962Zm1.187-21.064c-53.4,0-92.86,41.535-92.86,105.024,0,60.523,37.084,101.464,89.893,101.464,51.029,0,92.861-36.491,92.861-105.321C630.922,443.729,595.617,401.9,541.028,401.9Z" fill="none" stroke="#f9f9f9" stroke-width="1.568"/>
    </g>
  </g>
</svg>
