<svg xmlns="http://www.w3.org/2000/svg" width="128.296" height="204.58" viewBox="0 0 128.296 204.58">
  <g id="P" transform="translate(-662.422 -401.733)">
    <path id="Pfad_40" data-name="Pfad 40" d="M690.927,427.158c1.7,2.94,40.318-25.371,41.224-23.8.43.745-31.866,18.27-30.622,20.425.163.282,30.909-20.232,31.942-18.442.978,1.694-17.182,17.671-17.088,17.834.723,1.252,28.031-16.747,28.275-16.325.462.8-26.3,18.495-26.3,18.495,1.15,1.992,29.479-17.945,29.88-17.25.81,1.4-17.857,15.317-17.746,15.51.468.811,24.486-14.419,24.608-14.208,0,0-19.523,18.789-19.156,19.425.508.881,25.445-15.97,26-15.011.137.238-14.786,15.554-14.038,16.848,1.082,1.875,23.031-14.026,23.347-13.479.094.162-21.4,16.33-21.358,16.4.232.4,23.055-13.873,23.3-13.452.731,1.268-23.541,13.64-22.473,15.49.637,1.1,23.212-14.137,23.53-13.586.327.566-18.739,14.3-18.726,14.317.413.715,18.737-12.849,19.617-11.325.6,1.033-17.935,16.444-17.458,17.27.824,1.427,19.133-11.468,19.316-11.152.866,1.5-15.455,14.764-15.109,15.364.771,1.336,17.98-11.6,18.508-10.686.455.789-21.8,14.037-20.912,15.574.028.048,23.2-15.017,23.9-13.8,0,0-21.886,18.649-21.139,19.942.381.661,24.749-15.684,25.353-14.638.989,1.712-25.65,18.515-24.754,20.067l26.365-15.221c.335.58-27.977,16.545-26.855,18.488.935,1.62,25.5-17.338,26.634-15.377.6,1.036-28,20.464-27.741,20.922,0,0,28.575-16.837,28.722-16.583,1.233,2.136-26.561,20.93-26.2,21.56.859,1.489,23.943-14.456,24.217-13.982,1.365,2.364-30.906,20.127-29.418,22.7.735,1.273,30.093-18.738,30.684-17.715,1.48,2.563-43.444,27.91-42.6,29.379.087.151,40.906-25.823,41.861-24.169" fill="none" stroke="#f7f7f7" stroke-linecap="round" stroke-linejoin="round" stroke-width="1.568"/>
    <path id="Pfad_41" data-name="Pfad 41" d="M692.568,524.959c.045.078,32.935-21.671,34.085-19.679.885,1.533-25.093,19.95-23.8,22.189,1.643,2.845,84.365-48.837,84.421-48.74,2.972,5.148-71.505,46.027-70.329,48.063,2.175,3.768,63.324-43.464,66.314-38.286.264.457-65.246,36.561-63.951,38.8,1.372,2.376,61.3-40.556,63.534-36.681,1.813,3.139-47.528,33.783-47.031,34.644.511.884,38.606-23.495,39.128-22.591,1.174,2.035-24.585,16.832-24.126,17.626.255.442,13.978-8.47,14.151-8.17" fill="none" stroke="#f7f7f7" stroke-linecap="round" stroke-linejoin="round" stroke-width="1.568"/>
    <g id="Gruppe_36" data-name="Gruppe 36">
      <path id="Pfad_42" data-name="Pfad 42" d="M663.49,409.481c.009.016,5.7-3.4,5.747-3.318,0,0-2.758,8.487-2.752,8.5.58,1,16.4-10.364,16.789-9.693.8,1.388-20.015,17.047-19.383,18.141,1.232,2.134,29.135-18.844,30.011-17.326,1.422,2.463-30.182,22.036-28.846,24.349.124.216,44.384-26.154,44.613-25.758,1.485,2.571-46,27.505-45.336,28.647.439.76,51.769-32.477,52.89-30.536,2.17,3.759-49.563,34.388-48.52,36.194,1.219,2.112,57.727-33.976,58.008-33.49,2.41,4.174-60.05,40.272-59.685,40.9.564.978,24.411-14.24,24.474-14.13.748,1.295-27.467,21.023-26.256,23.122.307.531,26.94-18.44,28.19-16.275.23.4-27.813,22.707-27.813,22.707.991,1.716,25.5-14.735,25.506-14.726.795,1.378-23.608,15.542-22.834,16.884.469.812,24.491-14.314,24.566-14.183,1.3,2.244-27.768,23.909-27.768,23.909,1.14,1.975,23.565-15.637,24.444-14.114.635,1.1-25.295,18.96-24.035,21.142,1.1,1.9,24.813-15.761,25.435-14.686.187.324-22.876,17.927-22.763,18.123,1.247,2.159,23.624-14.75,24.1-13.918.819,1.42-28.49,19.436-27.574,21.023,1.223,2.119,25.981-17.708,27.153-15.677,0,0-25.155,18.338-24.26,19.889,0,0,22.726-15.243,23.645-13.651.139.24-27.094,18.99-26.982,19.184.808,1.4,26.232-17.984,27.462-15.855,1.066,1.847-28.475,19.179-27.122,21.523,1.169,2.024,26.364-15.306,26.4-15.242.589,1.02-27.862,24.383-27.645,24.759.615,1.064,25.855-17.535,26.985-15.579S663.463,517.191,663.7,517.6c.162.28,29.646-19,30.461-17.588,1.1,1.9-25.9,20.3-25.9,20.3.937,1.623,28.052-17.244,28.506-16.458.712,1.233-31.582,21.524-30.589,23.243,1.127,1.952,34.8-22.083,35.659-20.588,1.049,1.816-35.729,20.8-33.974,23.837.619,1.072,39.188-26.569,40.9-23.611.139.24-42.843,27.321-42.825,27.351,2.122,3.677,47.8-29.743,48.728-28.133,2.241,3.881-48.483,30.8-47.458,32.573,2.454,4.251,56.927-36.184,58.364-33.7s-62.174,36.143-59.889,40.1c.049.086,23.145-14.707,23.728-13.7.454.787-26.258,19.264-24.87,21.667.085.148,28.936-16.753,28.956-16.718.17.294-29.771,20.249-29.643,20.471.793,1.373,28.758-17.6,29.188-16.851l-27.007,20.808c.242.419,28.02-16.177,28.02-16.177,1.279,2.216-26.744,19.809-25.917,21.24.492.853,20.274-13.613,21.1-12.182,1.142,1.978-23.292,15.4-22.612,16.573.989,1.713,26.919-16.127,27.172-15.688,1.076,1.863-27.025,22.963-26.73,23.473.211.367,22.348-13.965,22.808-13.168.065.112-22.981,17.937-22.921,18.04,1.11,1.923,22.491-13.241,22.6-13.05.35.606-26.3,21.878-26.228,22,.853,1.478,28.53-16.775,28.662-16.548.537.93-26.549,22.057-26.393,22.328.558.966,26.172-15.574,26.373-15.226.568.982-26.1,17.055-25.287,18.469,1.168,2.022,25.243-15.018,25.435-14.684,1.014,1.756-28.883,17.161-27.528,19.508.627,1.086,26.184-17.018,27.007-15.593.447.775-18.07,13.952-17.54,14.869.047.08,19.237-11.467,19.393-11.2,0,0-11.784,11.58-11.708,11.71.122.212,9.093-5.25,9.093-5.25.158.273,1.574,4.168,1.574,4.168.012.022.307-.206.319-.185" fill="none" stroke="#f7f7f7" stroke-linecap="round" stroke-linejoin="round" stroke-width="1.568"/>
    </g>
    <g id="Gruppe_34" data-name="Gruppe 34">
      <path id="Pfad_83" data-name="Pfad 83" d="M691.74,426.225c4.45-1.187,13.053-2.077,24.328-2.077,28.48,0,47.172,12.757,47.172,39.162,0,27.59-18.988,42.721-50.139,42.721-8.6,0-15.725-.593-21.361-2.076Zm-25.811,178.9H691.74v-80.1c5.933,1.484,13.053,1.781,20.767,1.781,25.218,0,47.469-7.417,61.116-21.954,10.087-10.384,15.427-24.624,15.427-42.722,0-17.8-6.526-32.338-17.5-41.832-11.867-10.68-30.557-16.613-56.072-16.613a299.128,299.128,0,0,0-49.545,3.856Z" fill="none" stroke="#f9f9f9" stroke-width="1.568"/>
    </g>
  </g>
</svg>
