<svg xmlns="http://www.w3.org/2000/svg" width="187.583" height="234.438" viewBox="0 0 187.583 234.438">
  <g id="Q" transform="translate(-811.765 -400.999)">
    <g id="Gruppe_21" data-name="Gruppe 21">
      <g id="Gruppe_37" data-name="Gruppe 37">
        <path id="Pfad_43" data-name="Pfad 43" d="M939.117,599.34c.966,1.673,24.789-15.5,25.3-14.61" fill="none" stroke="#f7f7f7" stroke-linecap="round" stroke-linejoin="round" stroke-width="1.568"/>
        <path id="Pfad_44" data-name="Pfad 44" d="M882.567,427.222c.053.092,39.134-25.735,40.494-23.379.767,1.329-21.072,18.024-19.951,19.967.583,1.008,30.907-17.89,30.927-17.856.893,1.548-18.577,17.368-18.223,17.981.836,1.449,23.743-16.365,24.893-14.373.1.173-24.163,14.7-23.673,15.55.554.96,25.27-16.677,26.174-15.111.808,1.4-18.841,17.855-18.619,18.239.32.554,24.636-14.978,24.963-14.412,1.041,1.8-21.07,15.877-20.663,16.581.474.821,24.525-14.9,24.847-14.346.433.749-15.688,14.528-14.768,16.121.794,1.376,18.979-12.746,19.753-11.4.295.511-19.862,12.873-19.434,13.615.836,1.449,24.3-14.23,24.385-14.079.449.777-20.162,17.257-19.042,19.2.757,1.311,19.626-13.054,20.372-11.762.422.731-13.742,14.512-13.462,15,.417.722,16.987-12.274,18.055-10.424.153.265-14.043,15.218-13.86,15.536.341.59,16.941-12.249,18.01-10.4.2.344-19.411,17.842-19.274,18.08.291.5,23.6-13.626,23.6-13.626.995,1.722-22.085,17.849-20.888,19.922l28.546-16.481c1.079,1.87-26.737,16.344-25.918,17.762.138.24,24.192-15.891,25.025-14.448,1.044,1.809-22.395,16.906-21.593,18.295.575,1,19.892-13.809,20.9-12.066.2.354-22.067,16.958-20.9,18.982.205.354,25.279-15.741,25.775-14.881.795,1.377-24.734,21.5-23.961,22.841.541.938,22.874-14.883,23.6-13.626.108.188-24.387,17.5-24.138,17.932.679,1.177,26.328-15.251,26.35-15.213.428.742-23.38,20.839-23.34,20.906,1.038,1.8,26.841-16.979,27.483-15.867.282.488-26.629,20.134-26.376,20.573.442.766,22.81-15.9,23.994-13.853.664,1.149-23.05,14.562-21.961,16.449.619,1.071,22.508-14.948,23.354-13.483.59,1.022-27.523,22.994-27.523,22.994.3.528,27.631-18.594,28.774-16.613.29.5-29.131,18.768-29.131,18.768,1.164,2.016,27.481-15.973,27.527-15.893.654,1.132-27.409,16.079-26.168,18.228.126.218,29.332-19.5,30.444-17.577.013.022-30.4,18.5-29.915,19.333,1.009,1.748,26.626-18.467,27.966-16.146,1.161,2.011-29.067,20.8-28.585,21.633,1.2,2.069,30.155-19.727,31.158-17.989,1.466,2.539-30.862,22.974-30.862,22.974.867,1.5,26.547-16.768,27.171-15.687.17.3-33.128,24.141-31.842,26.367.482.836,29.479-19.3,30.465-17.589.97,1.679-32.255,20.063-31.122,22.025,1.018,1.764,29.744-18.911,30.5-17.607,1.4,2.431-33.137,27.613-33.137,27.613,1.013,1.754,34.94-21.289,35.424-20.451.5.863-38.546,23.389-37.035,26.007.525.909,34.621-23.631,36.2-20.9.964,1.669-43.62,24.171-42.139,26.737.639,1.106,38.563-26,40.179-23.2.031.053-43.7,24.637-42.432,26.834.434.751,39.673-25.351,40.732-23.517.373.647-54.118,33.922-53.33,35.287,2.057,3.562,48.248-29.261,48.857-28.207" fill="none" stroke="#f7f7f7" stroke-linecap="round" stroke-linejoin="round" stroke-width="1.568"/>
      </g>
      <path id="Pfad_45" data-name="Pfad 45" d="M851.073,419.673c.121.209,18.149-11.814,18.728-10.812,0,0-33.717,26.308-33.688,26.358,1.964,3.4,55.149-34.873,56.462-32.6,2.433,4.215-68.519,42.078-66.6,45.4,3.132,5.425,74.9-48.388,77.131-44.531,3.688,6.387-84.714,48.6-81.249,54.6.265.46,94.573-55.728,95.061-54.883,3.137,5.435-98.475,56.107-97.081,58.522.894,1.547,101.494-63.87,103.777-59.916,4.406,7.633-104.856,63.83-102.738,67.5.754,1.307,34.107-20.093,34.28-19.792,1.572,2.722-38.024,27.849-37.786,28.262.763,1.321,33.41-19.487,33.495-19.339,1.005,1.74-38.452,26.4-36.823,29.224.38.659,32.883-22.573,34.437-19.882.281.486-34.855,26.772-34.855,26.772,1.171,2.028,30.17-17.433,30.176-17.422.955,1.654-28.721,18.135-27.791,19.746.541.937,28.454-16.63,28.541-16.478,1.466,2.539-32,26.352-32,26.352,1.262,2.187,26.233-17.395,27.207-15.708.694,1.2-28.054,20.28-26.676,22.665,1.177,2.039,26.662-16.935,27.33-15.779.2.344-24.491,18.842-24.371,19.05,1.314,2.275,24.976-15.589,25.483-14.712.844,1.463-29.436,19.918-28.492,21.553,1.264,2.19,26.819-18.285,28.031-16.184,0,0-25.3,18.412-24.4,19.971,0,0,23.018-15.437,23.948-13.826.138.238-26.835,18.843-26.725,19.036.807,1.4,26.211-17.97,27.44-15.842,1.027,1.779-27.311,18.621-26.008,20.88,1.146,1.983,25.862-15.015,25.9-14.952.543.94-25.287,22.935-25.087,23.282.587,1.017,24.758-16.786,25.837-14.916,1.063,1.84-25.2,15.936-24.98,16.321.154.267,28.4-18.186,29.176-16.845.986,1.708-23.054,18.658-23.054,18.658.773,1.341,23.043-14.169,23.418-13.52.565.979-24.454,17.881-23.666,19.245.721,1.249,21.72-13.814,22.272-12.858.616,1.068-20.093,13.441-19.062,15.228.332.573,19.556-13.4,20.47-11.818.071.123-21.4,14.957-21.387,14.973,1.024,1.773,23.185-14.421,23.633-13.645,1.025,1.775-20.7,16.04-20.227,16.852.965,1.671,22.133-14.082,22.7-13.1s-22.634,16.521-21.738,18.073c.044.075,20.344-12.94,20.861-12.045.353.613-19.446,16.043-18.367,17.913.075.129,25.756-14.911,25.773-14.88.143.247-24.768,17.407-24.66,17.594.691,1.2,25.517-15.6,25.892-14.949l-20.732,17.186c.209.363,24.578-14.19,24.578-14.19.962,1.666-19.211,15.933-18.589,17.01.424.734,16.842-11.369,17.555-10.136.868,1.5-17.264,12.291-16.747,13.186.853,1.477,23.4-14.013,23.618-13.635.76,1.317-17.654,17.752-17.446,18.113.184.318,19.027-11.909,19.427-11.216.047.081-15.855,13.861-15.813,13.935.977,1.691,19.4-11.427,19.5-11.259.248.429-17.433,16.806-17.383,16.892.774,1.341,26.164-15.381,26.284-15.174.38.659-17.593,16.991-17.482,17.183.536.929,25.2-14.994,25.392-14.66.467.809-21.133,14.518-20.46,15.683,1.177,2.04,25.473-15.155,25.667-14.819.89,1.542-25.141,15.382-23.951,17.443.671,1.162,27.927-18.157,28.807-16.632.536.929-22.184,16.084-21.549,17.184.078.135,31.6-18.853,31.865-18.4,0,0-26.909,20.132-26.756,20.4.478.827,37.021-21.374,37.021-21.374,1.178,2.04-24.984,21.876-24.984,21.876,1.479,2.562,88.189-54.172,89.6-51.729,1.45,2.51-87.41,48.443-84.763,53.028,3.765,6.521,78.537-50.957,80.968-46.747,0,0-79.95,47.112-78.915,48.9.131.228,73.466-45.1,74.63-43.088.28.484-67.149,42.666-66.057,44.557.164.285,56.8-38.639,59.329-34.253,2.351,4.072-50.959,30.623-48.79,34.38.728,1.26,18.853-11.093,18.944-10.937.555.962-10.91,13.431-10.534,14.082.122.212,21.312-13.348,21.764-12.566.043.076-15.032,15.437-14.469,16.412.142.245,21.219-13.164,21.615-12.479.372.645-18.045,12.641-17.537,13.522.463.8,24.073-13.9,24.073-13.9.611,1.058-21.151,16.045-20.113,17.842.23.4,26.3-16.755,26.983-15.578.265.459-19.8,15.321-19.109,16.524.4.7,26.343-18.03,27.564-15.914,0,0-23.583,15.753-23.2,16.421,1.266,2.193,26.355-17.676,27.42-15.831.333.575-20.407,15.827-20.341,15.943,1.078,1.866,25.484-17.248,26.582-15.347.54.936-28.422,18.1-27.881,19.037.724,1.253,30.29-20.383,31.543-18.212.216.374-26.342,16.96-26.165,17.266.987,1.71,27.472-18.457,28.6-16.51.913,1.581-22.967,18.273-22.675,18.779.362.627,16.935-11.388,17.632-10.18,0,0-11.175,8.992-10.688,9.836.181.314,8.48-5.592,8.781-5.07.253.438-4.524,8.286-4.308,8.66.112.2,1.542-1.278,1.71-.987" fill="none" stroke="#f7f7f7" stroke-linecap="round" stroke-linejoin="round" stroke-width="1.568"/>
    </g>
    <path id="Pfad_84" data-name="Pfad 84" d="M904.457,587.321c-40.349,0-63.786-38.271-63.489-80.7-.3-43.315,21.064-83.663,64.675-83.663,42.425,0,63.193,41.238,63.193,81.289C968.836,549.94,945.7,587.321,904.457,587.321Zm93.157,25.515c-16.911-2.967-38.568-7.714-58.446-12.758v-1.186c33.228-11.571,56.963-44.5,56.963-95.827,0-59.04-35.3-101.167-89.6-101.167-54,0-93.157,41.238-93.157,105.32,0,64.38,40.644,99.388,88.113,101.168,3.856,0,8.011,1.483,12.164,2.967,23.141,8.009,49.545,16.02,76.543,23.14Z" fill="none" stroke="#f9f9f9" stroke-width="1.568"/>
  </g>
</svg>
