<svg xmlns="http://www.w3.org/2000/svg" width="135.353" height="205.729" viewBox="0 0 135.353 205.729">
  <g id="R" transform="translate(-1027.633 -401.732)">
    <path id="Pfad_49" data-name="Pfad 49" d="M1028.7,409.777c.01.018,5.8-3.46,5.846-3.375,0,0-2.857,8.544-2.851,8.554.6,1.035,16.9-10.68,17.3-9.989.819,1.419-20.542,17.319-19.9,18.437,1.253,2.17,29.634-19.166,30.525-17.623,1.444,2.5-30.717,22.3-29.36,24.646.126.218,44.9-26.458,45.131-26.057,1.5,2.6-46.521,27.791-45.854,28.946.443.768,52.271-32.794,53.4-30.832,2.191,3.795-50.087,34.667-49.034,36.49,1.232,2.134,58.376-34.358,58.66-33.867,2.435,4.218-60.706,40.642-60.337,41.281.564.979,24.413-14.241,24.476-14.131.748,1.3-27.47,21.024-26.258,23.123.307.531,26.944-18.442,28.194-16.277.229.4-27.817,22.709-27.817,22.709.991,1.716,25.506-14.738,25.511-14.729.8,1.378-23.614,15.545-22.839,16.887.469.812,24.5-14.318,24.572-14.187,1.3,2.245-27.774,23.913-27.774,23.913,1.14,1.975,23.573-15.642,24.452-14.118.635,1.1-25.3,18.964-24.043,21.146,1.1,1.9,24.823-15.768,25.445-14.691.186.323-22.886,17.932-22.773,18.127,1.247,2.161,23.635-14.756,24.115-13.923.82,1.42-28.5,19.442-27.584,21.029,1.224,2.119,25.992-17.716,27.165-15.684,0,0-25.168,18.344-24.272,19.9,0,0,22.739-15.252,23.658-13.659.139.24-27.107,19-26.995,19.192.808,1.4,26.246-17.994,27.476-15.863,1.067,1.848-28.49,19.186-27.136,21.531,1.169,2.025,26.38-15.315,26.416-15.251.59,1.021-27.877,24.392-27.66,24.768.65,1.125,27.256-18.493,28.45-16.425s-28.355,17.694-28.106,18.126c.192.333,34.25-22,35.216-20.331,1.275,2.208-30.657,23.047-30.657,23.047,1.276,2.211,38.449-23.626,39.067-22.555.936,1.621-42.456,27.079-41.15,29.34,1.5,2.6,46.785-29.663,47.933-27.674,1.405,2.434-48.6,26.848-46.248,30.923.8,1.391,51.762-35,53.979-31.164.179.311-55.931,34.866-55.908,34.9,1.125,1.949,25.46-15.837,25.953-14.984,1.222,2.118-25.242,18.455-24.683,19.424,1.073,1.859,24.671-15.694,25.3-14.606.68,1.178-27.9,19.139-26.824,21.01.049.085,23.15-14.711,23.732-13.7.454.787-26.262,19.265-24.874,21.669.085.148,28.94-16.755,28.96-16.72.17.294-29.775,20.251-29.647,20.473.793,1.373,28.762-17.6,29.192-16.854l-27.011,20.811c.242.419,28.023-16.179,28.023-16.179,1.28,2.216-26.747,19.811-25.92,21.242.492.853,20.277-13.615,21.1-12.184,1.142,1.978-23.3,15.4-22.615,16.575.989,1.714,26.922-16.128,27.175-15.69,1.076,1.864-27.028,22.965-26.733,23.476.211.366,22.351-13.968,22.811-13.17.065.112-22.984,17.938-22.925,18.041,1.111,1.923,22.495-13.243,22.6-13.051.35.606-26.3,21.879-26.23,22,.852,1.478,28.532-16.776,28.664-16.549.536.93-26.552,22.058-26.395,22.329.558.966,26.174-15.575,26.375-15.227.567.983-26.105,17.056-25.289,18.47,1.168,2.022,25.244-15.018,25.436-14.685,1.014,1.756-28.884,17.162-27.529,19.509.627,1.086,26.185-17.019,27.008-15.593.436.755-17.544,13.678-17.028,14.573.046.078,18.729-11.164,18.881-10.9,0,0-11.269,11.288-11.2,11.414.116.2,8.581-4.955,8.581-4.955.148.257,1.573,3.874,1.573,3.874.013.022.307-.206.319-.185" fill="none" stroke="#f7f7f7" stroke-linecap="round" stroke-linejoin="round" stroke-width="1.568"/>
    <g id="Gruppe_22" data-name="Gruppe 22">
      <path id="Pfad_46" data-name="Pfad 46" d="M1119.248,507.878c.655,1.137,15.365-9.509,15.641-9.031" fill="none" stroke="#f7f7f7" stroke-linecap="round" stroke-linejoin="round" stroke-width="1.568"/>
      <path id="Pfad_47" data-name="Pfad 47" d="M1056.21,426.82c1.686,2.92,40.068-25.212,40.968-23.653.424.734-31.4,18.039-30.171,20.164.162.28,30.615-20.041,31.64-18.267.954,1.653-16.639,17.362-16.547,17.521.72,1.247,27.912-16.675,28.154-16.255.461.8-26.187,18.431-26.187,18.431,1.152,2,29.524-17.972,29.925-17.277.811,1.4-17.879,15.33-17.768,15.523.472.818,24.7-14.547,24.828-14.334,0,0-19.638,18.851-19.269,19.49.515.892,25.751-16.163,26.312-15.191.139.24-15.032,15.675-14.276,16.985,1.1,1.9,23.365-14.23,23.686-13.675.095.165-21.718,16.515-21.679,16.583.235.407,23.412-14.088,23.66-13.66.743,1.287-23.923,13.822-22.838,15.7.648,1.123,23.582-14.363,23.906-13.8.333.577-19.125,14.518-19.112,14.54.42.728,19.112-13.1,20.008-11.552.609,1.055-18.4,16.693-17.918,17.536.84,1.454,19.537-11.708,19.723-11.387.889,1.542-16,15.058-15.646,15.674.787,1.363,18.412-11.873,18.95-10.941.465.807-22.347,14.306-21.439,15.878.029.05,23.657-15.313,24.373-14.071,0,0-22.61,19.019-21.843,20.348.39.675,25.251-16,25.868-14.935,1.014,1.757-26.4,18.892-25.477,20.484l26.921-15.542c.344.6-28.738,16.917-27.587,18.911.958,1.661,26.1-17.746,27.256-15.737.621,1.076-29.168,21.113-28.894,21.588,0,0,29.519-17.394,29.671-17.131,1.342,2.325-29.23,22.4-28.834,23.083.93,1.611,26.2-15.813,26.5-15.3,1.66,2.876-38.624,23.1-36.813,26.238.9,1.558,36.957-23.007,37.68-21.755" fill="none" stroke="#f7f7f7" stroke-linecap="round" stroke-linejoin="round" stroke-width="1.568"/>
      <path id="Pfad_48" data-name="Pfad 48" d="M1057.969,518.321c.045.077,32.746-21.547,33.889-19.566.8,1.386-22.2,18.566-21.032,20.592,1.586,2.748,81.547-47.207,81.6-47.113,2.869,4.968-68.878,44.6-67.743,46.571,2.067,3.581,60.139-41.284,62.98-36.362.254.439-62.7,35.209-61.46,37.366,1.309,2.267,58.54-38.728,60.675-35.03,2,3.466-52.9,36.761-52.346,37.712.264.458,20.6-12.516,20.867-12.048.856,1.483-16.856,13.611-16.522,14.19.4.7,21.007-12.757,21.28-12.286.367.636-12.522,13.021-11.741,14.373.7,1.215,16.417-11.057,17.1-9.873.261.452-17.453,11.6-17.074,12.251.748,1.295,21.907-12.827,21.984-12.692.429.743-19.036,16.721-17.965,18.576.7,1.216,18.065-12.028,18.757-10.83.417.723-13.537,14.4-13.259,14.88.4.689,15.993-11.586,17.012-9.821.156.271-14.55,15.5-14.362,15.825.332.575,16.368-11.852,17.408-10.05.205.355-20.235,18.306-20.092,18.552.287.5,23.282-13.442,23.282-13.442,1.038,1.8-23.284,18.418-22.034,20.583l28.34-16.362c1.088,1.885-26.957,16.457-26.132,17.886.137.237,23.925-15.715,24.748-14.289,1.062,1.838-22.808,17.115-21.993,18.527.562.974,19.362-13.449,20.345-11.746.2.352-21.96,16.907-20.8,18.923.2.34,24.347-15.158,24.824-14.332.77,1.333-23.784,21.009-23.035,22.306.508.879,21.375-13.913,22.056-12.734.1.175-22.625,16.521-22.392,16.924.629,1.089,24.481-14.181,24.5-14.146.388.672-20.765,19.337-20.729,19.4.936,1.622,24.416-15.434,24.995-14.431.25.432-23.217,18.231-22.993,18.619.39.676,19.9-13.9,20.943-12.091.556.962-18.974,12.618-18.062,14.2.535.927,19.1-12.715,19.829-11.448.482.836-21.737,19.654-21.737,19.654.25.434,23.082-15.5,24.022-13.87.226.391-22.528,14.956-22.528,14.956.9,1.549,21.246-12.349,21.281-12.287.376.651-15.062,10.169-14.349,11.4.074.129,18.637-12.278,19.294-11.139.007.011-15.279,10.308-15.03,10.739.482.835,12.951-8.955,13.591-7.847.3.516-4.874,7.658-4.75,7.872.247.428,8.621-5.456,8.828-5.1.195.337-1.751,4.8-1.751,4.8.018.032.593-.372.606-.35" fill="none" stroke="#f7f7f7" stroke-linecap="round" stroke-linejoin="round" stroke-width="1.568"/>
      <path id="Pfad_85" data-name="Pfad 85" d="M1056.949,425.929c4.153-1.188,13.053-2.374,25.514-2.374,27.294.3,45.986,11.57,45.986,37.381,0,22.844-17.5,37.975-45.1,37.975h-26.4Zm-25.811,179.193h25.811v-86.63h24.328c23.437.89,34.118,11.274,40.051,38.864,5.637,24.921,10.087,42.129,13.35,47.766h26.7c-4.153-7.714-8.9-27-15.427-54.886-4.747-20.767-13.944-35.008-29.371-40.347V509c21.064-7.12,37.678-24.624,37.678-51.028,0-15.428-5.637-29.075-15.724-37.975-12.46-11.274-30.261-16.317-57.852-16.317-17.8,0-36.491,1.483-49.545,4.153Z" fill="none" stroke="#f9f9f9" stroke-width="1.568"/>
    </g>
  </g>
</svg>
