<svg xmlns="http://www.w3.org/2000/svg" width="123.656" height="208.663" viewBox="0 0 123.656 208.663">
  <g id="S" transform="translate(-1180.629 -401.113)">
    <path id="Pfad_52" data-name="Pfad 52" d="M1204.46,416.53c.1.178,16.147-10.459,16.639-9.607,0,0-27.088,22.493-27.064,22.534,1.647,2.854,46.278-29.261,47.379-27.354,2.011,3.482-56,35.624-54.418,38.369,2.6,4.512,62.216-40.2,64.068-36.99,2.987,5.173-67.884,40.409-65.079,45.268.22.38,78.161-46.057,78.564-45.359,2.58,4.468-80.76,46.453-79.614,48.438.737,1.277,84.4-53.077,86.282-49.815,3.554,6.155-83.8,52.619-82.092,55.577.546.946,23.508-13.863,23.634-13.645,1.071,1.855-24.805,20.392-24.643,20.673.559.968,24.151-14.088,24.213-13.98.7,1.211-25.389,20-24.255,21.967.285.494,25.236-17.254,26.4-15.241.2.348-23.821,20.4-23.821,20.4.891,1.544,22.925-13.247,22.929-13.239.665,1.152-19.408,13.411-18.76,14.533.417.723,21.706-12.689,21.774-12.572,1.031,1.786-21.14,20.082-21.14,20.082,1.017,1.761,20.874-13.862,21.657-12.5.478.827-17.934,15.43-16.987,17.072,1,1.729,22.569-14.338,23.135-13.357.145.252-17.242,14.73-17.154,14.883,1.16,2.009,21.864-13.656,22.311-12.881.672,1.163-22.839,16.556-22.089,17.856,1.167,2.02,24.847-16.928,25.965-14.991,0,0-19.16,15.31-18.452,16.536,0,0,22.274-14.945,23.177-13.381.122.211-23.6,17.005-23.505,17.176.807,1.4,26.2-17.961,27.427-15.835.883,1.53-23.016,16.565-21.895,18.506,1.195,2.069,26.945-15.644,26.983-15.578.45.779-20.011,19.968-19.845,20.256.643,1.114,27.008-18.324,28.191-16.276,1.1,1.909-26.174,16.477-25.943,16.877.17.294,30.825-19.768,31.679-18.29.931,1.614-21.611,17.825-21.611,17.825.857,1.485,25.594-15.735,26.009-15.016.536.927-23.007,17.141-22.26,18.434.792,1.372,24.011-15.263,24.618-14.213s-19.715,13.262-18.7,15.019c.362.626,21.607-14.777,22.6-13.05.073.127-21.988,15.3-21.979,15.315,1.111,1.925,25.145-15.641,25.631-14.8.995,1.721-19.983,15.661-19.528,16.449,1.036,1.794,23.8-15.141,24.406-14.091.55.953-21.991,16.2-21.117,17.714.046.081,21.709-13.8,22.258-12.851.343.594-18.738,15.708-17.691,17.522.079.136,26.821-15.527,26.839-15.5.146.252-25.307,17.714-25.2,17.9.72,1.248,26.451-16.173,26.842-15.5l-21.462,17.607c.218.378,25.455-14.7,25.455-14.7,1.033,1.79-20.918,16.812-20.25,17.968.443.768,17.788-11.987,18.531-10.7.958,1.66-19.252,13.316-18.682,14.3.9,1.551,24.505-14.677,24.734-14.28.923,1.6-22.517,20.457-22.264,20.9.2.342,20.674-12.929,21.1-12.184.06.1-20.757,16.665-20.7,16.759,1.067,1.848,21.49-12.653,21.6-12.469.34.589-25.465,21.4-25.4,21.519.864,1.5,28.861-16.97,28.994-16.739.58,1-28.967,23.424-28.8,23.716.62,1.076,29.066-17.3,29.289-16.91.689,1.194-32.126,20.128-31.134,21.846,1.432,2.479,31.028-18.459,31.264-18.05,1.429,2.476-41.64,22.848-39.73,26.156.92,1.593,37.793-24.6,39-22.515" fill="none" stroke="#f7f7f7" stroke-linecap="round" stroke-linejoin="round" stroke-width="1.568"/>
    <g id="Gruppe_23" data-name="Gruppe 23">
      <path id="Pfad_50" data-name="Pfad 50" d="M1186.145,575.6c.024.044,4.815-2.812,4.829-2.788.047.081-1.769,3.451-1.633,3.687.019.032,1.271-1.005,1.388-.8.456.789-4.566,10.5-4.521,10.579.345.6,12.636-7.564,12.751-7.362.318.551-17.546,13.442-17.546,13.442.769,1.332,20.3-12.341,20.571-11.877.74,1.281-16.03,14.286-15.927,14.462.433.752,22.6-13.309,22.711-13.113,0,0-20.044,19.071-19.669,19.72.562.973,27.876-17.506,28.487-16.447.148.254-16.252,16.28-15.451,17.665,1.406,2.437,29.656-18.07,30.065-17.359.114.2-26.518,19.268-26.47,19.35.327.566,32.057-19.3,32.4-18.707.973,1.684-31.675,17.525-30.256,19.983.959,1.66,34.076-20.78,34.555-19.95.466.807-27.484,19.331-27.466,19.362.7,1.221,33.52-22.822,35.023-20.22.846,1.464-27.209,21.34-26.534,22.51,2.958,5.123,75.158-44.9,75.813-43.77,3.084,5.343-64.659,41.124-63.426,43.259,2.271,3.933,60.062-38.262,61.614-35.573,1.213,2.1-60.917,33.215-58.553,37.307.07.122,56.479-36.707,58.253-33.633,0,.007-39.493,27.661-38.248,29.819.479.829,30.531-19.373,31.287-18.063.786,1.362-21.609,13.109-20.9,14.344l13.944-8.051" fill="none" stroke="#f7f7f7" stroke-linecap="round" stroke-linejoin="round" stroke-width="1.568"/>
      <path id="Pfad_51" data-name="Pfad 51" d="M1231.922,426.227c.051.087,37.208-24.472,38.5-22.23.777,1.346-21.4,18.181-20.263,20.148.59,1.023,31.322-18.131,31.342-18.1.918,1.589-19.206,17.71-18.843,18.338.858,1.486,24.366-16.791,25.545-14.748.1.177-24.766,15.021-24.264,15.891.567.981,25.823-17.043,26.747-15.442.809,1.4-18.852,17.861-18.63,18.246.26.451,20.287-12.327,20.553-11.866.821,1.423-16.069,13.187-15.748,13.743.253.439,13.9-8.426,14.076-8.127.214.369-4.579,9.189-4.125,9.975.065.112,1.777-1.171,1.84-1.062" fill="none" stroke="#f7f7f7" stroke-linecap="round" stroke-linejoin="round" stroke-width="1.568"/>
      <path id="Pfad_86" data-name="Pfad 86" d="M1182.146,595.332c10.679,7.12,31.743,12.757,51.027,12.757,47.172,0,70.016-26.7,70.016-57.556,0-29.371-17.207-45.688-51.028-58.742-27.591-10.681-39.755-19.878-39.755-38.568,0-13.648,10.384-29.965,37.677-29.965a79.632,79.632,0,0,1,37.976,9.494l7.12-21.065c-8.9-5.042-23.734-9.79-44.2-9.79-38.865,0-64.676,23.141-64.676,54.292,0,28.185,20.174,45.1,52.809,56.666,27,10.384,37.678,21.064,37.678,39.755,0,20.174-15.427,34.118-41.831,34.118a91.474,91.474,0,0,1-46.283-13.054Z" fill="none" stroke="#f9f9f9" stroke-width="1.568"/>
    </g>
  </g>
</svg>
