<svg xmlns="http://www.w3.org/2000/svg" width="152.657" height="202.736" viewBox="0 0 152.657 202.736">
  <g id="T" transform="translate(-1313.59 -403.17)">
    <path id="Pfad_53" data-name="Pfad 53" d="M1405.107,426.947c.049.084,35.8-23.553,37.053-21.392.9,1.556-25.559,20.172-24.246,22.447.753,1.3,39.531-22.883,39.557-22.839,1.172,2.031-25.8,21.281-25.332,22.085,1.059,1.833,30.3-20.853,31.753-18.333.124.215-30.316,17.974-29.7,19.032.646,1.118,29.3-19.346,30.351-17.523.8,1.38-18.5,17.665-18.279,18.044s17.522-10.642,17.75-10.248c.563.975-10.109,9.98-9.889,10.36.173.3,10.047-6.072,10.165-5.868.086.15-.079,4.056.1,4.375.027.048.757-.5.784-.453" fill="none" stroke="#f7f7f7" stroke-linecap="round" stroke-linejoin="round" stroke-width="1.568"/>
    <path id="Pfad_54" data-name="Pfad 54" d="M1314.664,407.087c.007.012,5.407-3.2,5.439-3.14,0,0-2.45,8.309-2.444,8.319.445.771,12.64-7.984,12.937-7.469.672,1.163-16.06,15-15.531,15.917,1,1.732,23.546-15.236,24.257-14,1.17,2.027-24.049,19.04-22.95,20.944.106.184,37.686-22.207,37.881-21.87,1.133,1.962-34.82,21.414-34.317,22.286.339.588,40.947-25.645,41.815-24.143,1.138,1.972-23.811,20.665-23.264,21.613.743,1.287,33.525-19.751,33.7-19.455,1.055,1.827-24.359,20.141-24.2,20.417.834,1.446,36.659-21.381,36.752-21.219.711,1.231-25.881,20.246-24.729,22.241.453.784,38.61-26.555,40.457-23.357.234.407-28.553,23.134-28.553,23.134,1.464,2.534,37.755-21.815,37.762-21.8,1.008,1.744-30.4,18.985-29.416,20.684.705,1.222,37.445-21.882,37.559-21.685,1.82,3.152-40.761,31.41-40.761,31.41,2.322,4.021,49.289-32.592,51.08-29.491,1.237,2.144-53.127,32.262-50.669,36.518,1.111,1.926,25.166-15.985,25.8-14.893.19.328-23.238,18.131-23.123,18.329,1.264,2.19,23.976-14.967,24.463-14.123.829,1.436-28.858,19.623-27.931,21.229,1.24,2.147,26.32-17.941,27.508-15.882,0,0-25.521,18.522-24.614,20.093,0,0,23.065-15.468,24-13.854.141.243-27.446,19.19-27.333,19.387.819,1.418,26.566-18.215,27.812-16.057,1.078,1.868-28.84,19.353-27.47,21.725,1.183,2.05,26.709-15.507,26.746-15.443.595,1.031-28.209,24.578-27.989,24.959.622,1.078,26.181-17.759,27.325-15.777s-27.22,17.062-26.981,17.477c.165.285,29.975-19.213,30.8-17.783,1.108,1.918-26.241,20.5-26.241,20.5.837,1.45,24.985-15.362,25.39-14.659.646,1.118-28.373,19.884-27.473,21.443.792,1.37,23.982-15.245,24.588-14.2.728,1.26-24.119,15.336-22.9,17.445.367.636,22.011-15.049,23.025-13.293.082.142-24.965,17.015-24.955,17.032,1.143,1.979,25.837-16.071,26.337-15.2,1.24,2.147-25.632,18.663-25.065,19.645,1.089,1.886,25.041-15.93,25.679-14.825.688,1.192-28.3,19.334-27.2,21.228.049.086,23.517-14.942,24.108-13.919.46.8-26.655,19.451-25.249,21.886.086.15,29.311-16.97,29.331-16.935.172.3-30.147,20.463-30.017,20.688.8,1.392,29.124-17.823,29.561-17.067l-27.379,21.023c.245.425,28.388-16.39,28.388-16.39,1.3,2.243-27.122,20-26.285,21.453.5.864,20.627-13.844,21.464-12.393,1.159,2.007-23.665,15.588-22.975,16.783,1,1.737,27.277-16.341,27.534-15.9,1.088,1.885-27.389,23.166-27.091,23.682.215.371,22.7-14.182,23.164-13.374.066.114-23.336,18.14-23.276,18.245,1.125,1.949,22.842-13.447,22.954-13.253.354.612-26.65,22.078-26.579,22.2.864,1.5,28.876-16.978,29.009-16.748.543.941-26.9,22.253-26.738,22.527.565.979,26.511-15.775,26.714-15.423.575.995-26.454,17.234-25.627,18.666,1.182,2.049,25.578-15.217,25.773-14.88,1.025,1.777-29.237,17.33-27.867,19.7.636,1.1,26.51-17.231,27.343-15.787.622,1.077-26.138,18.133-25.4,19.408.066.115,27.029-16.121,27.252-15.734,0,0-28.335,20.939-28.175,21.216.332.574,25.557-14.755,25.557-14.755,1.127,1.951-23.717,21.145-23.717,21.145.428.741,25.2-15.492,25.608-14.785.486.842-28,18.2-27.11,19.742,1.216,2.1,25.468-16.516,26.253-15.157,0,0-29.263,19.334-28.871,20.012.047.082,27.239-16.686,27.654-15.966.12.206-26.716,20.768-26.251,21.575.076.13,27.384-18.492,28.546-16.481,1.266,2.194-25.935,18.486-24.766,20.51.865,1.5,23-13.524,23.1-13.338.566.981-11.232,13.6-10.85,14.264.072.125,12.079-7.587,12.345-7.127.017.03-2.035,7.956-1.816,8.336.005.008.773-.476.786-.454" fill="none" stroke="#f7f7f7" stroke-linecap="round" stroke-linejoin="round" stroke-width="1.568"/>
    <path id="Pfad_87" data-name="Pfad 87" d="M1377.952,605.122h26.107V427.115h61.117V405.161H1317.133v21.954h60.819Z" fill="none" stroke="#f9f9f9" stroke-width="1.568"/>
  </g>
</svg>
