<svg xmlns="http://www.w3.org/2000/svg" width="169.771" height="202.712" viewBox="0 0 169.771 202.712">
  <g id="V" transform="translate(-191.993 -47.179)">
    <path id="Pfad_96" data-name="Pfad 96" d="M333.16,49.571s-.018-.064.015-.008c.348.6-5.965,10.716-5.456,11.6.382.661,20.785-12.031,20.8-12.008,1.068,1.85-23.107,19.823-22.684,20.555,1.109,1.921,31.788-21.873,33.313-19.233.147.255-36.053,21.027-35.33,22.28.75,1.3,33.9-22.4,35.125-20.28,1.535,2.659-39.652,29.412-39.231,30.141.459.8,34.849-21.2,35.318-20.391,1.8,3.119-38.206,25.086-37.5,26.3s35.2-21.417,35.678-20.6c.889,1.541-37.149,24.671-35.256,27.949C319.136,97.937,347.74,76,348.9,78.009c.5.859-34.2,20.476-33.479,21.723,1.255,2.174,35.5-20.8,35.629-20.57.832,1.441-41.5,27.367-39.424,30.965,1.135,1.966,30.436-20.157,31.555-18.218.86,1.489-32.6,24.726-32.028,25.716.62,1.074,27.417-19.5,29.007-16.747.3.522-32.293,25.341-31.931,25.969.5.866,27.017-19.22,28.585-16.5.341.59-36.206,27.311-35.97,27.72.421.728,33.762-19.492,33.762-19.492,1.643,2.845-39.464,26.079-37.486,29.5l38.167-22.036c1.547,2.679-38.884,22.54-37.712,24.571.2.337,33.27-21.908,34.439-19.883,1.623,2.812-36.574,24.065-35.327,26.225.793,1.374,28.455-19.632,29.842-17.229.317.549-36.418,23.752-34.6,26.895.275.476,33.413-20.833,34.08-19.676,1.174,2.032-39.011,28.9-37.87,30.871.7,1.218,30-19.5,30.94-17.863.148.256-34.082,22.886-33.742,23.476.867,1.5,33.17-19.214,33.2-19.167.594,1.03-34.054,26.967-34,27.061,1.276,2.21,32.508-20.591,33.3-19.224.361.626-34.913,24.752-34.589,25.314.528.914,27.519-19.144,28.929-16.7.843,1.46-29.788,17.774-28.4,20.17.719,1.246,26.617-17.637,27.6-15.934.716,1.239-34.191,26.843-34.191,26.843.337.583,30.285-20.4,31.546-18.213.321.557-32.463,20.692-32.463,20.692,1.263,2.188,29.788-17.315,29.838-17.228.728,1.26-30.667,17.639-29.287,20.029.133.231,30.818-20.506,31.993-18.471.014.024-32.439,19.61-31.928,20.5,1.047,1.813,27.594-19.14,28.983-16.734,1.16,2.009-30.286,18.987-29.8,19.82,1.194,2.069,30.136-19.714,31.138-17.977" fill="none" stroke="#f7f7f7" stroke-linecap="round" stroke-linejoin="round" stroke-width="1.568"/>
    <path id="Pfad_97" data-name="Pfad 97" d="M193.069,51c.006.01,5.289-3.116,5.316-3.069,0,0-.428,7.144-.423,7.153.375.649,10.677-6.743,10.927-6.309.542.937-12.039,12.916-11.613,13.655.843,1.459,19.751-12.787,20.35-11.749.922,1.6-17.938,16.05-17.072,17.551.066.113,23.144-13.638,23.264-13.431.781,1.354-23.654,15.327-23.307,15.929.209.361,26.649-16.618,27.182-15.694,1.03,1.784-21.06,19.2-20.566,20.054.456.79,18.906-11.157,19.011-10.976.856,1.482-19.047,17.144-18.917,17.368.511.885,21.969-12.816,22.026-12.717.636,1.1-22.651,18.661-21.621,20.446.277.479,24.553-16.779,25.68-14.826.2.343-23.476,20.2-23.476,20.2.892,1.545,22.939-13.255,22.943-13.247.681,1.179-19.918,13.67-19.255,14.818.422.73,21.907-12.805,21.976-12.687,1.1,1.915-23.015,21.164-23.015,21.164,1.022,1.771,21-13.948,21.792-12.582.531.919-20.441,16.633-19.388,18.458.981,1.7,22.17-14.085,22.726-13.121.157.271-18.781,15.6-18.686,15.768,1.113,1.928,20.927-13.074,21.357-12.331.707,1.226-24.215,17.258-23.424,18.627,1.09,1.889,23.32-15.878,24.365-14.067,0,0-20.61,16.043-19.857,17.347,0,0,19.994-13.433,20.811-12.016.121.209-23.254,16.808-23.157,16.977.717,1.243,23.507-16.1,24.6-14.2.91,1.575-23.8,16.942-22.648,18.941,1.036,1.795,23.46-13.62,23.493-13.564.493.856-22.5,21.37-22.321,21.686.543.941,23.009-15.591,24.008-13.861.988,1.71-23.349,14.9-23.142,15.26.143.248,26.75-17.107,27.47-15.86.925,1.6-21.443,17.728-21.443,17.728.729,1.263,21.668-13.325,22.021-12.713.542.938-23.327,17.3-22.571,18.613.688,1.191,20.651-13.139,21.178-12.227.6,1.031-19.329,13.081-18.333,14.807.319.552,18.705-12.831,19.585-11.307.069.12-20.8,14.615-20.793,14.63.99,1.716,22.443-13.959,22.877-13.208,1.023,1.772-20.654,16.017-20.186,16.828.943,1.633,21.631-13.763,22.183-12.807.574.995-23.1,16.754-22.191,18.335.043.074,20.066-12.765,20.577-11.881.374.648-20.855,16.71-19.712,18.689.075.129,25.729-14.895,25.747-14.865.147.256-25.623,17.893-25.511,18.086.692,1.2,25.568-15.63,25.944-14.979l-22.331,18.109c.211.365,24.717-14.271,24.717-14.271C263.3,165.5,240.659,180.814,241.344,182c.428.74,16.995-11.469,17.713-10.226.938,1.625-18.817,13.091-18.259,14.059.857,1.484,23.51-14.08,23.729-13.7.883,1.529-21.32,19.791-21.078,20.21.182.315,18.814-11.777,19.21-11.091.053.091-18.051,15.117-18,15.2.95,1.646,18.8-11.071,18.892-10.907.285.493-20.692,18.671-20.635,18.77.724,1.253,24.653-14.491,24.764-14.3.434.752-20.674,18.734-20.547,18.953.467.811,22.07-13.131,22.239-12.839.459.795-20.751,14.323-20.09,15.469.973,1.685,20.992-12.49,21.152-12.212.832,1.44-23.365,14.537-22.253,16.462.519.9,21.888-14.21,22.569-13.03.487.843-19.9,14.9-19.326,15.9.053.093,22.079-13.164,22.26-12.852,0,0-21.951,17.329-21.824,17.55.265.458,20.307-11.724,20.307-11.724.836,1.448-16.422,16.933-16.422,16.933.335.579,19.6-12.05,19.914-11.5.373.645-20.974,14.626-20.293,15.806.938,1.623,19.687-12.764,20.292-11.716,0,0-22.3,15.515-21.993,16.041.086.148,48.194-29.569,48.949-28.261.2.343-46.556,31.515-45.783,32.852.123.214,43.282-29.382,45.185-26.087,1.94,3.36-41.491,26.033-39.7,29.132,1.268,2.2,35.081-20.617,35.238-20.345,1.116,1.933-27.279,22.009-26.525,23.315.137.236,23.911-14.97,24.416-14.1.038.066-12.613,14.192-12.116,15.053.047.081,5.554-3.51,5.685-3.283.053.091-.005,3,.067,3.125a7.845,7.845,0,0,0,.81-.468" fill="none" stroke="#f7f7f7" stroke-linecap="round" stroke-linejoin="round" stroke-width="1.568"/>
    <path id="Pfad_99" data-name="Pfad 99" d="M289.152,249.107l71.5-199.961H333.061L299.239,147.94c-8.9,26.107-17.207,51.325-22.844,74.466H275.8c-5.339-23.438-12.756-47.766-21.36-74.763l-31.151-98.5H195.4l65.269,199.961Z" fill="none" stroke="#f9f9f9" stroke-width="1.568"/>
  </g>
</svg>
