<svg xmlns="http://www.w3.org/2000/svg" width="248.639" height="202.901" viewBox="0 0 248.639 202.901">
  <g id="W" transform="translate(-1.799 -759.209)">
    <path id="Pfad_59" data-name="Pfad 59" d="M222.856,761.739c.036.062.91-.56.926-.534.255.442-2.618,5.4-2.445,5.7.4.7,8.458-5.047,8.529-4.924,0,0-13.728,14.563-12.931,15.943.44.762,29.865-18.735,30.511-17.616,1.013,1.754-33.563,21.7-32.513,23.514.251.434,32.351-21.886,33.74-19.48s-30.572,20.611-30.538,20.67c.7,1.207,25.424-18.071,26.893-15.526.05.086-32.756,22.679-32.293,23.48.685,1.187,32.513-21.093,33.518-19.352,1.4,2.42-31.834,18.8-30.868,20.47.293.507,28.572-19.745,29.978-17.308,1.619,2.8-33.93,22.507-32.708,24.624,1.091,1.889,30.6-18.952,31.157-17.988,1.537,2.661-35.585,21.082-34.056,23.731.741,1.284,28.763-19.951,30.211-17.443.262.454-31.139,22.146-29.9,24.293.582,1.008,29.191-19.161,30.19-17.43,1.867,3.234-37.252,25.218-35.894,27.571.254.44,34.3-21.283,34.943-20.174,1.213,2.1-35.847,24.318-34.675,26.348.145.251,32.51-18.769,32.51-18.769.021.037-36.693,24.831-35.509,26.883.107.185,32.132-19.336,32.472-18.747.446.772-34.186,22.756-33.141,24.566.782,1.355,31.076-19.018,31.542-18.211,1.078,1.867-35.588,23.505-34.391,25.578.708,1.226,30.42-17.852,30.545-17.635.531.92-32.574,22.575-31.481,24.469.426.737,30.206-18.666,30.738-17.746.46.8-35.9,25.016-34.271,27.834.781,1.353,28.837-18.885,29.8-17.208.909,1.574-28.658,24.274-28.161,25.134.968,1.677,24.29-15.248,24.82-14.33.476.825-27.1,17.134-26,19.022.174.3,24.59-15.011,24.942-14.4.134.233-29.083,20.061-28.187,21.612,1.09,1.888,29.115-16.981,29.19-16.853,1.478,2.56-33.333,24.476-32.4,26.1.284.492,27.482-15.866,27.482-15.866s-28.856,21.936-28.707,22.2c.163.281,28.221-16.293,28.221-16.293.827,1.433-34.441,23.712-32.7,26.721,1.1,1.909,26.983-16.719,27.476-15.863.995,1.722-28.257,19.674-27,21.845.881,1.527,24.579-15.461,25.129-14.508.193.335-26.693,16.2-26,17.395.059.1,24.1-16.783,25.338-14.629.805,1.394-24.835,21.208-24.8,21.276.416.719,21.77-12.654,21.806-12.59" fill="none" stroke="#f7f7f7" stroke-linecap="round" stroke-linejoin="round" stroke-width="1.568"/>
    <path id="Pfad_60" data-name="Pfad 60" d="M125.133,793.168c.869,1.506,22.737-14.2,23.2-13.4.269.466-19.422,12.161-18.644,13.509.091.157,16.039-10.585,16.612-9.591.921,1.593-15.856,16.918-15.768,17.071.48.83,18.087-10.815,18.248-10.535.381.659-21.352,15.64-21.352,15.64.817,1.414,21.453-13.044,21.738-12.551.765,1.326-16.7,14.662-16.591,14.844.365.631,18.743-11.041,18.838-10.876,0,0-22.628,20.474-22.215,21.19.441.763,22.347-14.01,22.827-13.178.162.28-18.581,17.429-17.7,18.96,1.008,1.746,21.522-13.1,21.816-12.6.1.169-22.329,16.865-22.288,16.935.22.382,22.007-13.24,22.238-12.839.74,1.281-23.807,13.767-22.728,15.636.612,1.06,22.348-13.608,22.653-13.078.338.585-19.442,14.7-19.429,14.723.4.691,18.052-12.388,18.9-10.914.642,1.112-19.635,17.343-19.122,18.231.8,1.383,18.452-11.061,18.629-10.755.89,1.542-16.009,15.061-15.653,15.677.737,1.276,17-10.976,17.5-10.1.441.763-21.05,13.67-20.191,15.158.026.045,21.94-14.2,22.6-13.049,0,0-20.345,17.858-19.642,19.076.345.6,22.556-14.282,23.1-13.337.879,1.521-22.429,16.886-21.632,18.265L164.27,847.9c.29.5-23.96,14.58-22.991,16.258.795,1.377,21.931-14.883,22.893-13.217.5.857-22.709,17.512-22.491,17.89,0,0,23.814-14.025,23.934-13.818.909,1.576-18.619,16.565-18.35,17.03.651,1.128,17.241-10.434,17.449-10.074.885,1.533-18.913,14.41-17.948,16.082.5.861,20.211-12.593,20.611-11.9.837,1.45-23.205,17.63-22.725,18.461.047.081,23.1-14.516,23.607-13.629.818,1.417-23.072,14.735-22.836,15.143.359.622,21.6-14.495,22.479-12.979.2.344-21.185,14.862-21.137,14.945.183.317,21.7-14.794,22.684-13.1.389.673-19.532,19.793-19.532,19.793.891,1.543,21.046-13.9,21.8-12.589.054.094-18.67,18.178-18.276,18.86.4.7,16.55-9.8,16.656-9.616.623,1.08-18.922,14.52-17.949,16.206.4.7,23.09-14.419,23.561-13.6.162.28-22.718,14.215-21.916,15.6.612,1.06,17.6-11.044,17.981-10.381.691,1.2-19.981,16.164-18.973,17.909.6,1.034,23.852-15.02,24.393-14.083.218.377-20.769,14.414-20.3,15.228.454.787,17.93-11.069,18.24-10.532.282.489-19.183,11.128-18.41,12.466.929,1.61,17.473-10.834,17.8-10.274.572.989-17.568,15.245-17.092,16.07.418.724,20.794-12.859,21.164-12.219,1.1,1.9-21.78,20.1-21.377,20.795s21.56-13.2,21.884-12.635c.853,1.478-16.708,16.232-16.419,16.733.8,1.392,14.8-9.792,15.338-8.855.715,1.238-14.657,13.36-14.588,13.48,1.724,2.985,38.61-26.975,40.638-23.463,2.008,3.478-39.505,28.256-38.523,29.957.348.6,35.44-21.944,36.082-20.832,1.033,1.789-35.478,25.313-34.67,26.713,1.417,2.454,33.237-19.491,33.367-19.265,1.416,2.453-31.362,23.584-30.576,24.947.654,1.131,27.521-15.906,27.528-15.893.191.331-16.6,13.7-16.271,14.279.021.037,15.629-9.35,15.77-9.105.5.868-6.754,9.619-6.293,10.417.107.185,2.568-1.751,2.684-1.55" fill="none" stroke="#f7f7f7" stroke-linecap="round" stroke-linejoin="round" stroke-width="1.568"/>
    <path id="Pfad_61" data-name="Pfad 61" d="M114.567,761.74a6.462,6.462,0,0,1,.927-.535c.339.588-5.606,10.539-5.11,11.4.361.625,19.753-11.434,19.766-11.412.994,1.721-21.193,18.786-20.8,19.467,1.042,1.8,29.808-20.517,31.24-18.037.138.239-33.72,19.786-33.042,20.96.727,1.259,32.9-21.732,34.082-19.678,1.468,2.542-37.736,28.348-37.333,29.045.5.867,37.86-23.04,38.371-22.154,1.915,3.317-40.772,26.465-40.025,27.759.811,1.4,40.724-24.782,41.274-23.829,1,1.726-42.1,27.008-39.985,30.679.84,1.456,20.231-13.571,21.05-12.153.35.607-23.813,14.968-23.305,15.849.9,1.556,25.954-15.2,26.047-15.038.633,1.1-30.485,22.154-28.9,24.892.844,1.462,22.122-14.694,22.954-13.253.636,1.1-23.025,19.543-22.6,20.274.474.821,19.91-14.3,21.125-12.2.229.4-23.464,20.445-23.188,20.921.39.677,20.071-14.415,21.295-12.295.272.47-28.074,22.727-27.886,23.053.332.576,26.879-15.519,26.879-15.519,1.337,2.317-31.316,22.224-29.706,25.013l31.585-18.236c1.273,2.206-31.781,18.917-30.815,20.59.155.27,26.994-17.748,27.93-16.126,1.322,2.289-29.2,20.342-28.182,22.1.637,1.1,22.327-15.465,23.442-13.534.258.447-28.961,20.224-27.483,22.784.221.383,27.209-16.95,27.746-16.02.976,1.691-31.608,25.064-30.658,26.708.569.986,24.1-15.674,24.859-14.352.121.21-27.571,19.268-27.291,19.751.7,1.22,27.227-15.771,27.249-15.732.492.851-27.438,23.169-27.393,23.247,1.044,1.808,26.981-17.069,27.627-15.951.3.523-28.748,21.315-28.477,21.786.434.751,22.329-15.572,23.49-13.562.683,1.183-23.782,14.911-22.661,16.853.6,1.03,21.518-14.3,22.331-12.892.606,1.05-28.361,23.477-28.361,23.477.28.486,25.56-17.183,26.61-15.363.273.472-27.376,17.755-27.376,17.755,1.054,1.826,24.955-14.505,25-14.433.607,1.053-25.36,15.1-24.207,17.1.111.193,26.322-17.469,27.306-15.765.012.02-27.518,16.942-27.082,17.7.879,1.522,23.23-16.105,24.4-14.085,1.048,1.815-25.959,19.113-25.524,19.866.992,1.718,25.537-16.666,26.369-15.224,1.179,2.04-25.683,17.22-25.683,17.22.691,1.2,20.824-13.172,21.321-12.31" fill="none" stroke="#f7f7f7" stroke-linecap="round" stroke-linejoin="round" stroke-width="1.568"/>
    <path id="Pfad_62" data-name="Pfad 62" d="M2.875,763.043c.006.01,5.312-3.132,5.34-3.083,0,0-.821,7.371-.816,7.38.389.673,11.063-6.988,11.323-6.537.566.981-12.826,13.323-12.379,14.1.873,1.512,20.5-13.268,21.117-12.192.972,1.683-19.163,16.65-18.25,18.231.066.114,23.433-13.809,23.555-13.6.8,1.377-24.083,15.561-23.73,16.173.211.366,26.915-16.786,27.455-15.851,1.058,1.833-21.784,19.583-21.275,20.464.46.8,19.117-11.282,19.222-11.1.877,1.518-19.606,17.459-19.473,17.689.515.891,22.133-12.912,22.19-12.812.65,1.126-23.262,18.961-22.209,20.786.278.481,24.651-16.848,25.784-14.886.2.349-23.935,20.468-23.935,20.468.894,1.549,22.993-13.285,23-13.278.688,1.193-20.178,13.8-19.507,14.964.421.731,21.934-12.821,22-12.7,1.123,1.946-23.462,21.422-23.462,21.422,1.021,1.769,20.973-13.927,21.76-12.563.539.932-20.813,16.811-19.744,18.663.978,1.693,22.087-14.031,22.641-13.071.158.274-18.962,15.706-18.866,15.871,1.107,1.919,20.806-13,21.233-12.259.712,1.233-24.368,17.336-23.573,18.713,1.083,1.876,23.166-15.772,24.2-13.974,0,0-20.767,16.122-20.009,17.435,0,0,19.795-13.3,20.606-11.9.12.208-23.242,16.8-23.145,16.969.71,1.23,23.286-15.942,24.368-14.069.912,1.58-23.888,16.982-22.73,18.988,1.024,1.773,23.185-13.461,23.217-13.4.5.862-22.7,21.48-22.514,21.8.535.927,22.683-15.368,23.667-13.664s-23.107,14.767-22.9,15.122c.141.244,26.406-16.883,27.115-15.655.922,1.6-21.373,17.688-21.373,17.688.716,1.24,21.279-13.087,21.626-12.486.54.935-23.226,17.253-22.474,18.557.675,1.168,20.225-12.869,20.741-11.974.589,1.02-19.107,12.976-18.121,14.684.312.541,18.255-12.529,19.116-11.036.069.118-20.473,14.426-20.464,14.44.969,1.679,21.964-13.661,22.389-12.926,1.013,1.756-20.437,15.9-19.974,16.706.921,1.6,21.118-13.438,21.657-12.5.57.986-22.864,16.636-21.96,18.2.042.073,19.513-12.416,20.011-11.553.372.643-20.67,16.622-19.536,18.587.073.126,25.1-14.529,25.114-14.5.145.252-25.167,17.635-25.057,17.824.672,1.164,24.916-15.227,25.281-14.6L39.182,894.678c.2.353,24-13.858,24-13.858,1.045,1.81-21.185,16.95-20.51,18.119.413.714,16.241-10.975,16.933-9.776.911,1.578-18.209,12.778-17.666,13.717.825,1.43,22.7-13.6,22.914-13.229.87,1.507-20.931,19.575-20.693,19.988.175.3,17.94-11.235,18.32-10.577.05.088-17.416,14.753-17.37,14.834.91,1.576,17.871-10.527,17.962-10.37.278.482-20.126,18.346-20.07,18.443.691,1.2,23.675-13.914,23.782-13.73.423.733-20.067,18.39-19.944,18.6.446.772,21.058-12.528,21.218-12.25.443.767-19.912,13.9-19.275,15,.926,1.6,19.965-11.879,20.117-11.615.8,1.391-22.484,14.119-21.411,15.977.494.855,20.881-13.552,21.529-12.43.469.813-19.095,14.483-18.539,15.446.051.088,21.044-12.546,21.215-12.249,0,0-21.166,16.886-21.043,17.1.252.436,19.278-11.13,19.278-11.13.811,1.4-15.79,16.568-15.79,16.568.659,1.143,39.071-24.01,39.7-22.921.706,1.223-41.587,25.123-40.3,27.356,1.768,3.062,36.972-23.981,38.113-22,0,0-40.527,25.507-39.992,26.433.065.113,37.115-22.758,37.691-21.761.154.266-35.469,25.51-34.868,26.55.094.163,33.626-22.768,35.078-20.252,1.151,1.993-23.235,17.174-22.173,19.013.712,1.234,18.4-10.83,18.493-10.677.378.656-5.264,10.448-5.008,10.891.026.047,3.807-2.426,3.9-2.255a33.394,33.394,0,0,0-2.6,3.475c.006.01.917-.565.933-.538" fill="none" stroke="#f7f7f7" stroke-linecap="round" stroke-linejoin="round" stroke-width="1.568"/>
    <path id="Pfad_90" data-name="Pfad 90" d="M82.964,961.136,111.445,857a624.675,624.675,0,0,0,15.427-65.269h.593c2.671,20.174,6.824,39.755,13.054,65.269l25.218,104.134h27L249.4,761.175H223l-26.4,100.87c-6.23,24.921-11.867,47.172-16.02,69.126h-.593c-2.967-21.063-8.307-44.8-13.944-68.532L141.706,761.175h-27l-26.7,100.87c-6.823,25.812-13.054,49.546-16.317,69.423H71.1c-3.561-19.284-8.9-44.205-14.834-69.126L32.528,761.175H5.234L55.966,961.136Z" fill="none" stroke="#f9f9f9" stroke-width="1.568"/>
  </g>
</svg>
