<svg xmlns="http://www.w3.org/2000/svg" width="161.041" height="202.711" viewBox="0 0 161.041 202.711">
  <g id="Y" transform="translate(-426.153 -759.208)">
    <path id="Pfad_66" data-name="Pfad 66" d="M556.412,761.684s.12-.154.157-.091c.425.736-8.915,12.162-8.294,13.237.437.757,23.585-13.651,23.6-13.625,1.273,2.2-28.369,22.675-27.866,23.547,1.31,2.269,37.727-25.939,39.527-22.821.175.3-43,24.726-42.144,26.215.913,1.582,41.122-27.184,42.612-24.6,1.886,3.267-49.627,34.948-49.109,35.844.549.951,41.41-25.2,41.971-24.232,2.169,3.757-46.487,29.535-45.64,31,.822,1.424,41.254-25.106,41.812-24.14,1.083,1.877-46.119,28.9-43.814,32.89,1.374,2.38,34.9-23.243,36.239-20.923.582,1.008-40.338,23.731-39.492,25.2,1.44,2.495,40.462-23.707,40.612-23.447.973,1.685-49.271,31.041-46.843,35.247,1.267,2.195,34.193-22.624,35.442-20.462,1,1.734-38.583,27.965-37.918,29.117s30.063-21.336,31.786-18.352c.34.588-36.86,27.873-36.452,28.58.52.9,28.234-20.063,29.863-17.242.337.585-37.148,25.277-36.915,25.682.424.733,33.989-19.623,33.989-19.623" fill="none" stroke="#f7f7f7" stroke-linecap="round" stroke-linejoin="round" stroke-width="1.568"/>
    <path id="Pfad_67" data-name="Pfad 67" d="M427.22,762.992c.005.009,5.227-3.074,5.251-3.032,0,0,.62,6.541.624,6.549.338.586,9.651-6.094,9.877-5.7.475.823-9.948,11.83-9.574,12.478.76,1.316,17.766-11.505,18.306-10.569.792,1.371-14.678,14.451-13.934,15.739.062.107,21.917-12.915,22.03-12.718.731,1.266-22.046,14.451-21.722,15.013.2.342,25.407-15.833,25.912-14.96.932,1.615-18.58,17.873-18.132,18.649.429.742,17.517-10.341,17.616-10.17.769,1.332-16.722,15.831-16.606,16.033.478.828,20.48-11.948,20.533-11.855.573.992-19.924,17.321-18.995,18.93.257.446,23.017-15.711,24.066-13.894.179.311-20.917,18.725-20.917,18.725.826,1.431,21.224-12.263,21.228-12.256.609,1.055-17.606,12.5-17.013,13.524.389.674,20.141-11.773,20.2-11.664.99,1.716-20.124,19.494-20.124,19.494.939,1.626,19.178-12.744,19.9-11.49.465.807-17.389,15.168-16.464,16.77.9,1.551,20.216-12.845,20.724-11.966.137.238-16.059,14.06-15.976,14.2,1.012,1.754,18.889-11.807,19.279-11.131.632,1.094-21.327,15.785-20.621,17.009.988,1.711,21.263-14.464,22.211-12.824,0,0-17.522,14.483-16.866,15.62,0,0,17.829-12,18.567-10.72.107.186-20.487,15.235-20.4,15.385.646,1.118,21.313-14.574,22.3-12.872.8,1.385-20.526,15.371-19.511,17.129.927,1.6,21.051-12.221,21.08-12.171.429.743-18.815,19.3-18.656,19.57.481.833,20.513-13.885,21.4-12.353.869,1.5-20.443,13.282-20.261,13.6.126.219,24.173-15.426,24.809-14.324.8,1.379-18.022,15.753-18.022,15.753.639,1.106,18.9-11.625,19.208-11.089.466.807-19.613,15.405-18.964,16.53.6,1.034,17.725-11.288,18.181-10.5.492.852-15.559,11.3-14.735,12.73.274.476,15.674-10.8,16.431-9.486.059.1-17.273,12.582-17.266,12.594.848,1.468,19.245-11.969,19.617-11.326.846,1.467-16.577,13.85-16.19,14.521.8,1.381,18.23-11.6,18.7-10.794.477.827-18.679,14.554-17.92,15.868.036.063,16.394-10.448,16.82-9.711.3.521-15.833,14.33-14.916,15.92.16.277,51.433-29.782,51.471-29.717.285.493-50.973,32.29-50.758,32.662,1.353,2.342,46.61-28.6,47.343-27.333l-43.618,30.4c.355.615,40.032-23.113,40.032-23.113,1.8,3.124-39.1,26.158-37.93,28.176.616,1.067,26.544-17.714,27.579-15.922,1.444,2.5-29.951,18.822-29.091,20.313,1.12,1.938,30.263-18.134,30.549-17.638,1.192,2.064-30.432,24.858-30.106,25.423.214.371,22.675-14.168,23.141-13.361.066.114-23.314,18.128-23.254,18.232,1.125,1.948,22.821-13.434,22.933-13.24.353.612-26.63,22.066-26.559,22.189.864,1.5,28.857-16.967,28.99-16.737.542.94-26.878,22.243-26.72,22.517.565.978,26.494-15.765,26.7-15.414.574.995-26.437,17.226-25.61,18.657,1.181,2.047,25.562-15.208,25.757-14.871,1.025,1.776-29.221,17.322-27.851,19.7.635,1.1,26.495-17.221,27.328-15.778.621,1.076-26.124,18.125-25.388,19.4.067.115,27.016-16.113,27.24-15.726,0,0-28.323,20.931-28.162,21.209.331.574,25.544-14.748,25.544-14.748,1.127,1.95-23.706,21.138-23.706,21.138.428.741,25.19-15.486,25.6-14.779.486.842-27.987,18.2-27.1,19.736,1.215,2.1,25.46-16.51,26.244-15.151,0,0-29.255,19.329-28.863,20.007.047.082,27.232-16.682,27.647-15.962.12.206-26.71,20.765-26.244,21.571.075.131,27.379-18.488,28.54-16.477,1.266,2.193-25.93,18.483-24.762,20.507.866,1.5,22.992-13.522,23.1-13.336.646,1.119-13.64,14.867-13.2,15.623.084.146,14.387-9.027,14.7-8.487.02.035-3.093,9.244-2.834,9.694.011.018,1.776-1.094,1.806-1.042" fill="none" stroke="#f7f7f7" stroke-linecap="round" stroke-linejoin="round" stroke-width="1.568"/>
    <path id="Pfad_92" data-name="Pfad 92" d="M518.779,961.136V875.99l67.05-114.815H556.458l-28.779,55.182c-7.713,15.131-14.537,28.184-20.173,41.238h-.594c-6.23-13.943-12.163-26.107-19.877-41.238L458.85,761.175H429.479l63.193,115.111v84.85Z" fill="none" stroke="#f9f9f9" stroke-width="1.568"/>
  </g>
</svg>
