<svg xmlns="http://www.w3.org/2000/svg" width="152.164" height="204.283" viewBox="0 0 152.164 204.283">
  <g id="Z" transform="translate(-593.172 -759.185)">
    <path id="Pfad_68" data-name="Pfad 68" d="M603.53,763.1c.007.012,5.407-3.2,5.439-3.14,0,0-2.45,8.309-2.444,8.319.445.771,12.64-7.985,12.938-7.469.671,1.163-16.061,15-15.532,15.917,1,1.732,23.547-15.236,24.258-14.005,1.148,1.99-23.515,18.779-22.436,20.648.1.182,37.175-21.906,37.367-21.574,1.117,1.934-34.3,21.131-33.8,21.99.335.581,40.448-25.329,41.3-23.846,1.118,1.936-23.3,20.389-22.758,21.319.734,1.271,33.021-19.454,33.19-19.162,1.036,1.794-23.854,19.856-23.7,20.127.824,1.427,36.158-21.089,36.251-20.929.7,1.21-25.365,19.992-24.232,21.954.446.773,38.137-26.227,39.959-23.071.232.4-28.059,22.85-28.059,22.85,1.444,2.5,37.262-21.531,37.27-21.518.967,1.676-29.127,18.341-28.185,19.973.683,1.183,36.218-21.165,36.328-20.974,1.22,2.114-25.881,22.819-25.881,22.819,1.662,2.878,34.918-23.119,36.2-20.9.615,1.066-24.425,18.543-23.2,20.66,1.6,2.767,36.279-23.037,37.185-21.468.209.363-26.01,19.7-25.884,19.923,1.817,3.146,35.15-21.911,35.85-20.7,1.062,1.839-37.678,24.116-36.491,26.172,1.674,2.9,35.039-23.938,36.645-21.157,0,0-41.82,26.74-40.4,29.2,0,0,38.284-25.558,39.78-22.967.236.409-47.381,30.521-47.19,30.851,1.442,2.5,45.474-31.323,47.669-27.521,2.015,3.49-56.511,32.584-53.953,37.014,2.16,3.743,48.188-27.979,48.256-27.86,1.165,2.018-59.87,42.37-59.439,43.116,1.136,1.968,46.773-31.831,48.863-28.211,2.118,3.669-51.108,30.382-50.665,31.15.3.519,50.837-32.834,52.345-30.221,2.161,3.743-53.827,36.425-53.827,36.425,1.529,2.649,46.21-28.391,46.951-27.108,1.239,2.146-57.067,34.541-55.339,37.533,1.445,2.5,45.058-28.571,46.165-26.654,1.493,2.586-51.749,28.329-49.25,32.657.672,1.163,42.765-28.968,44.617-25.759.16.276-49.531,31.177-49.512,31.211,2.088,3.617,47.022-29.26,47.937-27.676,2.467,4.274-53.639,33.535-52.51,35.49,1.991,3.45,46.129-29.325,47.3-27.3,1.327,2.3-57.167,33.659-55.059,37.31.091.158,44.661-28.281,45.742-26.409.932,1.613-57.983,34.216-55.139,39.142.159.275,50.951-29.5,50.988-29.438.311.538-55.7,34.975-55.466,35.381,1.472,2.55,50.429-30.96,51.228-29.576l-54.939,36.934c.45.779,50.072-28.909,50.072-28.909,2.556,4.426-56.711,35.207-55.06,38.066.914,1.584,41.633-27.582,43.168-24.923,2.363,4.093-50.061,29.171-48.653,31.608,1.838,3.184,48.778-29.249,49.248-28.434,2.154,3.73-58.479,40.442-57.889,41.464.393.681,44.049-27.408,44.905-25.926.135.234-50.57,33.717-50.447,33.931,2.065,3.576,44.505-26.169,44.71-25.813.657,1.136-52.58,36.908-52.448,37.137,1.466,2.539,46.929-27.616,47.154-27.225.865,1.5-45.134,32.566-44.882,33,.785,1.36,36.589-21.777,36.871-21.288.786,1.362-36.915,22.571-35.783,24.53,1.625,2.815,35.26-20.975,35.527-20.511,1.2,2.083-34.6,19.877-32.989,22.661.912,1.581,37.531-24.435,38.729-22.36.693,1.2-29.393,19.818-28.572,21.238.095.165,38.319-22.864,38.64-22.309,0,0-31.162,22.537-30.988,22.84.477.825,36.946-21.33,36.946-21.33,1.065,1.846-22.2,20.266-22.2,20.266.615,1.066,36.41-22.377,37-21.36.558.966-32.432,20.461-31.413,22.226,1.746,3.024,36.516-23.685,37.643-21.733,0,0-34.933,22.441-34.469,23.244.067.117,38.448-23.578,39.046-22.543.12.208-26.991,20.917-26.522,21.731.108.187,38.269-25.948,39.938-23.058,1.295,2.243-26.592,18.805-25.4,20.874,1.244,2.155,34.341-20.182,34.495-19.916.92,1.593-21.647,19.063-21.025,20.14.2.347,35.642-22.289,36.383-21.006.064.113-24.935,20.517-24.1,21.97.223.386,34.636-21.433,35.258-20.356.6,1.032-29.918,18.792-29.1,20.2.714,1.236,37.293-21.531,37.293-21.531.856,1.483-31.03,20.79-29.577,23.306.3.516,33.363-21.285,34.239-19.767.313.542-23.92,17.409-23.1,18.829.357.618,23.5-16.06,24.578-14.19,0,0-18.746,13.131-18.434,13.67.848,1.47,18.057-12.073,18.77-10.837.171.3-9.28,9.478-9.246,9.538.414.716,9.627-6.53,10.048-5.8.206.357-9.855,8.152-9.649,8.51.138.239,9.227-5.878,9.465-5.465.033.057-2.879,3.76-2.852,3.807.052.09,2.3-1.464,2.358-1.362" fill="none" stroke="#f7f7f7" stroke-linecap="round" stroke-linejoin="round" stroke-width="1.568"/>
    <path id="Pfad_93" data-name="Pfad 93" d="M596.5,961.136H742.471V939.479H630.623v-.891L740.987,776.9V761.175H606v21.657H707.463v.89L596.5,946Z" fill="none" stroke="#f9f9f9" stroke-width="1.568"/>
  </g>
</svg>
