<svg id="Gruppe_126" data-name="Gruppe 126" xmlns="http://www.w3.org/2000/svg" xmlns:xlink="http://www.w3.org/1999/xlink" width="295.505" height="518.697" viewBox="0 0 295.505 518.697">
  <defs>
    <clipPath id="clip-path">
      <rect id="Rechteck_70" data-name="Rechteck 70" width="295.505" height="518.697" fill="none"/>
    </clipPath>
  </defs>
  <g id="Gruppe_125" data-name="Gruppe 125" clip-path="url(#clip-path)">
    <g id="Gruppe_124" data-name="Gruppe 124">
      <g id="Gruppe_123" data-name="Gruppe 123" clip-path="url(#clip-path)">
        <g id="Gruppe_122" data-name="Gruppe 122" opacity="0.91">
          <g id="Gruppe_121" data-name="Gruppe 121">
            <g id="Gruppe_120" data-name="Gruppe 120" clip-path="url(#clip-path)">
              <path id="Pfad_972" data-name="Pfad 972" d="M88.954,81.789c1.458,2.527,37.823-23.636,38.6-22.287C128,60.27,95.4,79.491,96.688,81.717c.152.263,26.986-17.8,27.945-16.134,1.482,2.567-25.6,27.206-25.461,27.454.8,1.378,30.116-18.005,30.383-17.541.623,1.076-34.924,25.464-34.924,25.464C95.986,103.3,130.1,79.393,130.57,80.211c1.244,2.154-27.219,23.747-27.047,24.043.6,1.044,31.118-18.329,31.275-18.057,0,0-36.317,32.826-35.654,33.973.728,1.263,36.84-23.1,37.632-21.727.259.448-29.69,27.873-28.278,30.321,1.663,2.878,35.433-21.576,35.918-20.738.158.274-36.168,27.241-36.1,27.353.362.627,36.129-21.738,36.51-21.079,1.2,2.081-38.687,22.313-36.934,25.349,1.005,1.74,36.613-22.3,37.115-21.429.546.948-31.471,23.732-31.451,23.769.653,1.132,29.636-20.326,31.028-17.914,1.021,1.77-31.217,27.649-30.4,29.062,1.3,2.255,30.183-18.092,30.471-17.592,1.417,2.454-25.431,24-24.866,24.984,1.2,2.079,27.8-17.943,28.621-16.523.709,1.229-33.882,21.972-32.5,24.366.043.075,35.7-23.1,36.776-21.232,0,.006-32.254,28.425-31.137,30.361.563.973,36.712-23.251,37.6-21.709,1.4,2.433-35.86,27.007-34.588,29.213l37.757-21.8c.467.81-38.673,23.494-37.109,26.2,1.3,2.247,35.74-24.259,37.309-21.54.794,1.375-36.451,28.088-36.1,28.694,0,0,38.8-22.854,39-22.514,1.455,2.518-29.748,26.484-29.319,27.227,1.064,1.844,28.309-17.127,28.648-16.539,1.418,2.459-30.335,23.1-28.789,25.776.815,1.41,33.1-20.621,33.754-19.488,1.345,2.331-37.293,28.3-36.521,29.634.077.133,37.767-23.742,38.605-22.289,1.33,2.3-37.53,23.92-37.147,24.582.589,1.02,35.39-23.75,36.826-21.261.323.557-34.439,24.091-34.362,24.225.3.522,35.583-24.261,37.194-21.472.583,1.008-33.469,24.862-33.469,24.862,1.471,2.547,34.689-22.919,35.94-20.75" transform="translate(53.428 35.708)" fill="none" stroke="#f7f7f7" stroke-linecap="round" stroke-linejoin="round" stroke-width="1.568"/>
              <path id="Pfad_973" data-name="Pfad 973" d="M56.69,205.2c.072.123,52.392-34.473,54.221-31.3,1.282,2.223-35.593,29.744-33.719,32.99,1.1,1.914,58.207-33.693,58.243-33.627,1.677,2.905-36.134,31.27-35.471,32.419,1.8,3.121,51.684-35.559,54.162-31.27.213.368-51.927,30.58-50.882,32.389,1.954,3.385,87.487-57.87,90.674-52.35,2.761,4.783-72.106,51.871-71.349,53.182.97,1.679,72.916-44.385,73.907-42.669,2.942,5.093-62.469,40.861-61.321,42.849,1.253,2.169,63.028-38.354,63.878-36.88.986,1.708-39.044,29.853-36.946,33.485,1.53,2.654,37.506-25.1,39-22.516.523.909-35.532,22.588-34.77,23.907,1.413,2.447,40.883-23.944,41.029-23.689.831,1.437-38.548,30.6-36.477,34.191,1.244,2.153,32.318-21.488,33.543-19.366.781,1.351-26.6,25.724-26.081,26.622.683,1.183,28-20.211,29.754-17.178.275.474-26.193,26.42-25.863,26.99.554.96,27.644-19.971,29.381-16.962.338.584-33.527,29.943-33.291,30.349.467.81,37.944-21.908,37.944-21.908,1.65,2.857-36.95,29.328-34.964,32.77L226.6,231.459c1.725,2.988-42.716,26.121-41.408,28.387.218.378,38.152-25.059,39.465-22.785,1.661,2.876-35.579,26.926-34.3,29.135.895,1.551,30.823-21.413,32.389-18.7.317.549-34.082,26.556-32.267,29.7.314.543,38.815-24.163,39.575-22.847,1.2,2.079-36.882,33.013-35.715,35.034.812,1.405,34.141-22.221,35.228-20.339.16.279-35.745,26.185-35.377,26.822,1.005,1.743,39.18-22.7,39.212-22.639.611,1.06-32.635,30.607-32.579,30.7,1.508,2.611,39.274-24.827,40.206-23.212.327.565-29.49,24.9-29.2,25.411.5.871,25.087-17.591,26.433-15.26.453.786-13.733,12.243-12.987,13.533.487.844,15.473-10.471,16.139-9.319.222.386-3.134,13.18-3.134,13.18.045.08,7.092-4.495,7.267-4.2" transform="translate(34.049 92.551)" fill="none" stroke="#f7f7f7" stroke-linecap="round" stroke-linejoin="round" stroke-width="1.568"/>
              <path id="Pfad_974" data-name="Pfad 974" d="M111.052,53.166c.013.022,8.951-5.316,9.015-5.205,0,0-8.907,16.173-8.895,16.193.888,1.538,25.135-15.881,25.727-14.854,1.405,2.433-35.687,29.175-34.581,31.09,1.994,3.454,47.167-30.5,48.585-28.049,2.523,4.37-54.3,38.191-51.927,42.3.186.32,65.971-38.876,66.312-38.285,2.266,3.926-70.147,42.132-69.14,43.876.619,1.072,73.837-46.285,75.42-43.545,3.321,5.753-75.556,53.032-73.96,55.8.869,1.508,37.411-22.061,37.611-21.716,1.913,3.313-44.947,35.6-44.657,36.1,1.005,1.74,43.654-25.464,43.766-25.269,1.439,2.492-54.336,38.732-52,42.772.56.972,48.733-33.418,51.02-29.456.443.767-54.914,42.348-54.914,42.348,1.846,3.2,47.567-27.486,47.577-27.468,1.572,2.721-47.335,29.719-45.8,32.369.88,1.524,46.3-27.059,46.439-26.812,2.575,4.461-56.894,45.454-56.894,45.454,2.154,3.733,44.891-29.754,46.554-26.876,1.293,2.239-53.382,36.515-50.813,40.963,2.073,3.592,47.005-29.853,48.18-27.817.379.655-47.5,34.866-47.271,35.263,2.359,4.085,45.17-28.181,46.08-26.605,1.609,2.787-56.884,36.857-55.085,39.972,2.314,4.011,48.769-33.285,50.989-29.439,0,0-52.148,35.345-50.34,38.477,0,0,43.668-29.232,45.41-26.217.271.469-53.408,36.1-53.19,36.481,1.532,2.652,49.208-33.791,51.538-29.756,2.114,3.662-57.645,36.472-54.962,41.12,2.217,3.837,49.8-28.917,49.875-28.8,1.188,2.055-58.258,46.706-57.819,47.465,1.167,2.02,48.716-33.078,50.861-29.365,2.178,3.773-52.051,32.04-51.594,32.829.319.554,56.768-36.491,58.376-33.7,2.257,3.907-54.7,40.14-54.7,40.14,2.225,3.853,67.1-41.229,68.18-39.362,1.7,2.944-77.659,48.3-75.29,52.4,2.686,4.653,84.106-53.309,86.163-49.746,2.609,4.517-90.688,49.037-86.321,56.6,1.452,2.516,94.23-63.658,98.238-56.718.331.573-103.144,63.658-103.1,63.729,2.268,3.926,51.178-31.838,52.171-30.119,2.587,4.482-54.82,37.2-53.637,39.249,2.167,3.752,49.979-31.785,51.247-29.587,1.42,2.459-59.679,38.088-57.425,41.992.1.173,47.7-30.258,48.873-28.216.976,1.69-58.624,38.663-55.644,43.823.173.3,57.376-33.219,57.416-33.149.344.6-61.046,40.017-60.787,40.469,1.612,2.791,56.995-34.926,57.869-33.411L11.876,354.673c.495.855,56.124-32.4,56.124-32.4,2.726,4.72-58.765,39.911-57,42.961,1.005,1.743,43.51-29.022,45.2-26.1,2.127,3.683-43.851,28.022-42.583,30.217,1.74,3.016,47.141-28.248,47.588-27.475,1.1,1.908-24.774,26.476-24.473,27,.146.251,12.634-8.022,12.949-7.476.019.034-1.673,8.4-1.655,8.429.067.115,1.551-.911,1.557-.9" transform="translate(6.582 28.805)" fill="none" stroke="#f7f7f7" stroke-linecap="round" stroke-linejoin="round" stroke-width="1.568"/>
              <path id="Pfad_975" data-name="Pfad 975" d="M92.728,236.244l31.342-92.6c6.174-19.468,11.4-38.938,16.145-57.934h.949c4.749,18.521,9.5,37.515,16.621,58.41l31.342,92.125Zm104.946,32.291,34.191,100.673h44.163L166.808,49.144H116.947L8.2,369.207h42.74l33.24-100.673Z" transform="translate(4.926 29.517)" fill="none" stroke="#f9f9f9" stroke-width="1.568"/>
            </g>
          </g>
        </g>
      </g>
    </g>
  </g>
</svg>
